ply
format ascii 1.0
comment PCL generated
element vertex 1360
property float x
property float y
property float z
element camera 1
property float view_px
property float view_py
property float view_pz
property float x_axisx
property float x_axisy
property float x_axisz
property float y_axisx
property float y_axisy
property float y_axisz
property float z_axisx
property float z_axisy
property float z_axisz
property float focal
property float scalex
property float scaley
property float centerx
property float centery
property int viewportx
property int viewporty
property float k1
property float k2
end_header
0.55271709 -0.25255725 -0.29196906
0.55225164 -0.23052019 -0.29420853
0.5529967 -0.20892116 -0.29062378
0.55300272 0.2067059 -0.29059482
0.55225164 0.22827516 -0.29420853
0.55271107 0.25032678 -0.29199803
0.55444419 -0.27518955 -0.28365958
0.53325593 -0.25357413 -0.27996051
0.53267282 -0.23139283 -0.28287387
0.53325886 -0.20966093 -0.27994597
0.53461921 -0.1881223 -0.27314913
0.55439883 -0.18746166 -0.28387761
0.53462219 0.18604042 -0.27313447
0.55440187 0.18529718 -0.28386319
0.53326762 0.20752898 -0.27990234
0.53267574 0.2292361 -0.28285944
0.53324717 0.25143459 -0.28000414
0.55443811 0.27302265 -0.28368855
0.5149743 -0.27729535 -0.26086235
0.53478646 -0.27623764 -0.27231359
0.49360567 -0.25552842 -0.25688171
0.51352197 -0.25455227 -0.26840878
0.49308056 -0.23317486 -0.2597239
0.5129568 -0.23228018 -0.27134562
0.49333745 -0.21115837 -0.25833297
0.51337206 -0.21040627 -0.26918769
0.51469004 -0.18878804 -0.26233947
0.5366469 -0.1666588 -0.26301825
0.55759573 -0.16636355 -0.26849699
0.51543826 -0.14478214 -0.25845146
0.53764987 -0.1448027 -0.25800729
0.51461905 -0.12249575 -0.26270831
0.53622192 -0.12240209 -0.26514149
0.51439762 -0.10037038 -0.26385891
0.53592426 -0.10028511 -0.26662874
0.5142954 -0.078277141 -0.26438987
0.53570342 -0.078199834 -0.26773238
0.51419616 -0.056192212 -0.26490557
0.5355621 -0.056137852 -0.2684381
0.55996984 -0.056312829 -0.25707412
0.49376178 -0.03418747 -0.25603664
0.51409692 -0.034115322 -0.26542151
0.53542095 -0.03408663 -0.26914358
0.55949599 -0.034162 -0.25935423
0.49365497 -0.012046303 -0.25661469
0.55906886 -0.012046303 -0.26140893
0.5140062 -0.012046204 -0.26589274
0.53528273 -0.012046204 -0.26983392
0.49365497 0.010090502 -0.2566148
0.51400334 0.010018997 -0.26590753
0.53528273 0.0099888202 -0.26983404
0.55906582 0.010053486 -0.26142371
0.49376178 0.032236278 -0.25603664
0.51409692 0.032091781 -0.26542151
0.53542095 0.032034449 -0.26914358
0.55949289 0.032184891 -0.2593689
0.51419616 0.054172635 -0.26490569
0.5355621 0.054091074 -0.2684381
0.5599668 0.054353207 -0.25708902
0.5142954 0.076261528 -0.26438987
0.53570044 0.076158106 -0.26774704
0.51439762 0.098358884 -0.26385903
0.53592128 0.098251753 -0.26664364
0.51461333 0.12049168 -0.26273787
0.536219 0.12038008 -0.26515627
0.51543546 0.14281154 -0.25846636
0.53763503 0.14283231 -0.25808144
0.5366587 0.16465747 -0.26295936
0.55760789 0.16432001 -0.26843822
0.5146929 0.18678938 -0.26232457
0.493343 0.20919168 -0.25830352
0.51338059 0.2083572 -0.2691437
0.49308056 0.23119518 -0.25972402
0.5129568 0.23021106 -0.27134585
0.49360293 0.25356922 -0.25689638
0.51351917 0.25250447 -0.26842344
0.51496863 0.27530408 -0.26089191
0.53478348 0.27415961 -0.27232838
0.49500287 -0.27836165 -0.24931896
0.47352833 -0.2565124 -0.24526119
0.47304213 -0.23407672 -0.24800742
0.47327721 -0.21196583 -0.24667966
0.47438681 -0.19013838 -0.24041271
0.49460959 -0.18945883 -0.25144744
0.49619174 -0.16774367 -0.24288392
0.51631141 -0.16714938 -0.25391459
0.47447968 -0.14563957 -0.23988807
0.49502212 -0.14520885 -0.24921465
0.5614177 -0.14516751 -0.25010824
0.47379035 -0.12322413 -0.24378157
0.49417025 -0.12283762 -0.25382555
0.5613094 -0.1229606 -0.25062919
0.47370827 -0.10097434 -0.24424493
0.49407971 -0.10066419 -0.25431561
0.56089824 -0.10071687 -0.25260735
0.47361833 -0.078730501 -0.24475324
0.49397278 -0.078496367 -0.25489438
0.56044453 -0.078498743 -0.25479054
0.47351247 -0.056493253 -0.24535084
0.49386585 -0.056337409 -0.25547302
0.58438218 -0.056475557 -0.24650061
0.47341466 -0.034265563 -0.24590349
0.58379078 -0.034239747 -0.24924457
0.47331423 -0.012046253 -0.24647069
0.58320373 -0.012046253 -0.25196815
0.47331154 0.010168549 -0.24648559
0.5831973 0.010126032 -0.25199783
0.47341466 0.032392174 -0.24590337
0.58378756 0.032340534 -0.24925923
0.49386585 0.054390572 -0.25547302
0.47351515 0.05462461 -0.24533594
0.58437574 0.054596961 -0.24653041
0.47361833 0.076866224 -0.24475324
0.49397278 0.076553941 -0.2548945
0.56044137 0.076556668 -0.25480545
0.47370565 0.099113286 -0.24425995
0.49407971 0.098726176 -0.2543155
0.56089211 0.098790795 -0.25263703
0.49416751 0.12090266 -0.25384045
0.47378772 0.12136658 -0.24379647
0.56130636 0.12105029 -0.25064397
0.47447705 0.14381182 -0.23990321
0.49501944 0.14330925 -0.24922943
0.561427 0.14326431 -0.25006342
0.49619454 0.16589461 -0.24286902
0.51631421 0.16521528 -0.25389981
0.47438943 0.18830848 -0.24039781
0.49461234 0.18754382 -0.25143266
0.47327721 0.21008651 -0.24667966
0.47304213 0.23218735 -0.2480073
0.4735257 0.25464267 -0.24527621
0.49499738 0.27645922 -0.24934876
0.4549208 -0.28070933 -0.22390604
0.47496068 -0.27948385 -0.23717153
0.45331109 -0.25751585 -0.23341095
0.43258366 -0.23595665 -0.22358763
0.45285746 -0.2349942 -0.23608959
0.43267688 -0.21360557 -0.22301114
0.45305866 -0.21278176 -0.23490143
0.45401096 -0.19082402 -0.22927821
0.45514429 -0.1688375 -0.22258639
0.4760108 -0.16837105 -0.23124051
0.4538064 -0.14607389 -0.23048592
0.43260086 -0.12400548 -0.22348154
0.45326772 -0.12361342 -0.23366714
0.43252483 -0.10159926 -0.22395134
0.45318869 -0.10128564 -0.23413372
0.43244886 -0.079200119 -0.22442138
0.45310965 -0.078965038 -0.23460042
0.43237296 -0.056808308 -0.22489107
0.45301792 -0.056650385 -0.23514211
0.4322848 -0.034423094 -0.22543645
0.45292109 -0.034343906 -0.23571372
0.45282689 -0.012046352 -0.23626995
0.43219179 -0.012046204 -0.22601175
0.43219179 0.01032603 -0.22601175
0.45282689 0.010247091 -0.23626995
0.4322848 0.032707334 -0.22543645
0.45292366 0.032549404 -0.23569858
0.4323754 0.055097051 -0.22487593
0.45302045 0.054860435 -0.23512697
0.43244886 0.07749223 -0.22442138
0.45310965 0.077178806 -0.23460031
0.43252483 0.099894933 -0.22395158
0.45318869 0.099502921 -0.23413372
0.43260086 0.12230492 -0.22348166
0.45326772 0.12183446 -0.23366702
0.45380387 0.14431845 -0.23050117
0.45513913 0.16714182 -0.22261667
0.47600275 0.16660808 -0.23128569
0.45401353 0.18907991 -0.22926307
0.43267688 0.21190839 -0.22301126
0.45306122 0.21099433 -0.23488641
0.43257874 0.23425262 -0.22361803
0.45285237 0.23319396 -0.23611963
0.45330596 0.25573596 -0.233441
0.45488742 0.27898568 -0.22410309
0.47493136 0.27766132 -0.23733687
0.43469641 -0.28194591 -0.21051848
0.59182149 -0.28181037 -0.21198642
0.41239569 -0.25955936 -0.20927846
0.43293694 -0.25853264 -0.22140241
0.59169304 -0.25927961 -0.21258235
0.41213414 -0.23692738 -0.21097732
0.59156132 -0.23675686 -0.21319354
0.41212472 -0.21443507 -0.21103847
0.59143299 -0.21424444 -0.21378911
0.41278264 -0.19221047 -0.20676494
0.43347523 -0.19151413 -0.21807253
0.59132773 -0.19174787 -0.21427751
0.43415782 -0.16930822 -0.21385014
0.59129483 -0.16927694 -0.21443021
0.41205645 -0.14695159 -0.21148205
0.43299833 -0.14651091 -0.22102261
0.59126192 -0.14680843 -0.21458268
0.41178587 -0.12439973 -0.21323931
0.59122902 -0.1243422 -0.21473515
0.41171533 -0.10191501 -0.21369731
0.59119612 -0.10187829 -0.21488774
0.41164246 -0.079436935 -0.21417058
0.59116656 -0.079417109 -0.21502519
0.41156963 -0.056965992 -0.21464372
0.41149917 -0.034502625 -0.21510136
0.41140997 -0.012046253 -0.21568072
0.41140997 0.01040571 -0.21568084
0.41149917 0.032866493 -0.21510136
0.41157201 0.055333816 -0.21462846
0.41164246 0.077807836 -0.21417058
0.59116322 0.077781126 -0.21504033
0.411713 0.10028903 -0.21371269
0.5911994 0.10024434 -0.21487248
0.41178587 0.12277792 -0.21323931
0.5912323 0.12270948 -0.21471989
0.41205174 0.14534178 -0.21151268
0.43299589 0.1448283 -0.22103786
0.5912652 0.14517711 -0.2145673
0.4341529 0.16767977 -0.21388054
0.5912981 0.16764696 -0.21441495
0.41278741 0.19064075 -0.20673418
0.43348014 0.18985726 -0.21804202
0.59133101 0.19011925 -0.21426213
0.41212472 0.21283028 -0.21103847
0.59143627 0.21261957 -0.21377373
0.41212705 0.23531915 -0.21102321
0.5915646 0.2351366 -0.21317816
0.41239098 0.25796512 -0.2093091
0.43293449 0.25684667 -0.22141767
0.59169304 0.25766268 -0.21258247
0.43465933 0.28032222 -0.21074784
0.59182149 0.28019816 -0.21198642
0.57273716 -0.30592582 -0.19564736
0.414285 -0.28319415 -0.19700694
0.3916803 -0.26059321 -0.19706869
0.39141396 -0.23785791 -0.19888961
0.39140496 -0.21527243 -0.19895136
0.39194924 -0.19292089 -0.19522989
0.39187011 -0.17028242 -0.19577086
0.41304499 -0.16978179 -0.2050612
0.36978388 -0.14785033 -0.1920259
0.39097458 -0.14739445 -0.20189404
0.36971733 -0.12519772 -0.19250619
0.39082602 -0.12479734 -0.20290959
0.36965081 -0.10255271 -0.19298637
0.39075631 -0.10223235 -0.20338619
0.36958429 -0.079915024 -0.19346631
0.39068663 -0.079674937 -0.20386267
0.36951998 -0.057284959 -0.19393063
0.39061919 -0.057124853 -0.20432389
0.36945778 -0.034662191 -0.19437933
0.39055401 -0.034582108 -0.20476925
0.3693935 -0.012046253 -0.19484329
0.39048213 -0.012046204 -0.20526087
0.3693935 0.010566065 -0.19484317
0.39048213 0.010485888 -0.20526075
0.36945564 0.033185273 -0.19439471
0.39055401 0.033025607 -0.20476937
0.36951998 0.055811808 -0.19393063
0.39061919 0.05557172 -0.20432377
0.36958429 0.078445382 -0.19346631
0.39068663 0.078125268 -0.20386267
0.36964867 0.10108609 -0.19300175
0.39075631 0.1006865 -0.20338619
0.36971518 0.12373478 -0.19252169
0.39082602 0.12325501 -0.20290947
0.36978388 0.14639166 -0.1920259
0.39097008 0.14585832 -0.2019248
0.39186558 0.16879329 -0.19580173
0.41304022 0.16822113 -0.20509183
0.39196283 0.1914442 -0.19513702
0.39140496 0.21376048 -0.19895124
0.39141172 0.23634516 -0.19890499
0.3916758 0.25909311 -0.19709945
0.41424462 0.28167108 -0.19726932
0.57269865 0.30441946 -0.19583273
0.39368394 -0.28445393 -0.18336987
0.3707912 -0.26163584 -0.1847564
0.34945706 -0.23974344 -0.17439604
0.37050873 -0.23878892 -0.18679488
0.3494488 -0.21696922 -0.17445886
0.37051302 -0.21611676 -0.18676376
0.37134862 -0.19381365 -0.18073344
0.34951037 -0.17145625 -0.17398822
0.37064236 -0.17081805 -0.18583047
0.34877282 -0.14842306 -0.17962432
0.34869307 -0.12567016 -0.18023372
0.34862769 -0.10292996 -0.18073344
0.34856436 -0.080197923 -0.18121731
0.34850103 -0.057473168 -0.1817013
0.34843978 -0.034756139 -0.1821692
0.3483867 -0.012046253 -0.18257463
0.3483867 0.010660464 -0.18257463
0.34843978 0.033373475 -0.1821692
0.34850103 0.056094162 -0.18170118
0.34856436 0.078822486 -0.18121731
0.34862769 0.10155844 -0.18073344
0.34869307 0.12430232 -0.1802336
0.34877077 0.14705925 -0.17964005
0.34950835 0.17013553 -0.17400408
0.37064019 0.16940625 -0.18584597
0.37135944 0.1924476 -0.18065536
0.34944674 0.21564485 -0.17447448
0.37051085 0.21469758 -0.18677938
0.349455 0.23841929 -0.17441189
0.37050658 0.23736942 -0.18681049
0.37078688 0.26023045 -0.18478739
0.39363837 0.28303078 -0.18368173
0.37300175 -0.28579947 -0.16880298
0.62372792 -0.2857109 -0.16976273
0.32854319 -0.26378906 -0.15932834
0.34975278 -0.26270452 -0.17213619
0.62367523 -0.26288548 -0.16999888
0.32824102 -0.24071454 -0.16178167
0.62366474 -0.24007827 -0.17004585
0.32820788 -0.21782902 -0.16205049
0.6236577 -0.21727294 -0.17007732
0.3288947 -0.19530763 -0.15647411
0.35050854 -0.19469878 -0.16636109
0.62364715 -0.19446707 -0.17012465
0.32820985 -0.17210038 -0.16203475
0.62363666 -0.17166188 -0.17017186
0.64784366 -0.17198968 -0.16408908
0.32758763 -0.14900215 -0.16708624
0.62362963 -0.14885825 -0.17020321
0.64760303 -0.14909253 -0.16513073
0.3274945 -0.12614702 -0.16784251
0.62361908 -0.1260543 -0.17025042
0.64735895 -0.12621079 -0.16618764
0.32743245 -0.10331137 -0.16834641
0.62360853 -0.10325132 -0.1702975
0.64711869 -0.10334581 -0.16722798
0.30599988 -0.080771796 -0.15636301
0.32737038 -0.080483444 -0.16885018
0.62386847 -0.080476955 -0.16913354
0.64756656 -0.080565758 -0.16528869
0.30594304 -0.057855763 -0.15685511
0.32731223 -0.057663843 -0.16932237
0.6267938 -0.057868451 -0.15602958
0.30591375 -0.034949053 -0.1571089
0.32725218 -0.034851283 -0.16981006
0.6267938 -0.034957379 -0.15602982
0.32723475 -0.012046352 -0.16995144
0.30590278 -0.012046253 -0.15720403
0.62677956 -0.012046253 -0.15609324
0.30590278 0.010855852 -0.15720415
0.32723475 0.010757737 -0.16995168
0.62677956 0.010864375 -0.15609324
0.30591375 0.033759296 -0.15710878
0.32725218 0.033563711 -0.16980994
0.6267938 0.033775896 -0.1560297
0.30594304 0.056667991 -0.15685511
0.32731029 0.056379639 -0.16933799
0.6267938 0.05668702 -0.15602958
0.30599988 0.079587832 -0.15636301
0.32737038 0.0792033 -0.16885018
0.62387896 0.079196066 -0.16908622
0.64757389 0.079313904 -0.16525698
0.32743049 0.10203449 -0.16836214
0.62360853 0.10196012 -0.1702975
0.64711505 0.1020776 -0.16724384
0.32749259 0.12487396 -0.16785812
0.62361556 0.12476272 -0.17026627
0.64735895 0.12495107 -0.16618764
0.32758573 0.14773485 -0.16710174
0.62362611 0.14756681 -0.17021906
0.6475994 0.14784016 -0.16514659
0.62363666 0.1703717 -0.17017174
0.64784366 0.17074616 -0.16408896
0.32820591 0.17087075 -0.16206658
0.32888886 0.19411953 -0.1565218
0.35052091 0.19344437 -0.16626644
0.62364715 0.19317718 -0.17012465
0.32820788 0.21660118 -0.16205049
0.6236577 0.21598324 -0.17007732
0.32823905 0.23948747 -0.16179764
0.62366825 0.23879036 -0.17003012
0.32854122 0.26258075 -0.15934432
0.34975073 0.26139757 -0.1721518
0.62367874 0.26159805 -0.16998303
0.37294069 0.28447568 -0.16924369
0.6237244 0.28442213 -0.16977859
0.35225365 -0.28725693 -0.15302587
0.19256468 -0.26525831 -0.14197636
0.30714926 -0.26488304 -0.14640915
0.30684137 -0.24169256 -0.14907527
0.30678982 -0.218697 -0.14952183
0.30712157 -0.19591269 -0.14664876
0.30673459 -0.17274889 -0.15000021
0.28467119 -0.15017453 -0.14170384
0.30621997 -0.14958544 -0.15445697
0.28455549 -0.12711182 -0.14277732
0.30611539 -0.12662745 -0.15536284
0.28450197 -0.10408341 -0.14327395
0.30605853 -0.10369595 -0.15585506
0.28444678 -0.08106228 -0.14378619
0.28440711 -0.058051303 -0.14415431
0.28439674 -0.03504806 -0.14425027
0.2843847 -0.012046204 -0.14436233
0.2843847 0.010954563 -0.14436233
0.28439674 0.03395731 -0.14425027
0.28440711 0.056961291 -0.14415431
0.28444678 0.079975188 -0.14378631
0.28450027 0.10299959 -0.14329004
0.30605671 0.10251531 -0.15587091
0.28455549 0.12603247 -0.14277744
0.30611354 0.12545048 -0.15537846
0.28466946 0.14910252 -0.14171982
0.30621997 0.14841625 -0.15445709
0.3067309 0.17161192 -0.15003204
0.30711606 0.19480033 -0.14669669
0.30678982 0.21756573 -0.14952183
0.30683956 0.24056342 -0.14909112
0.19256592 0.26418656 -0.14196026
0.30714738 0.26377413 -0.14642501
0.35220578 0.28606194 -0.15339184
0.19301713 -0.28882056 -0.13609886
0.33128545 -0.28873143 -0.13706386
0.21675925 -0.2664336 -0.12809706
0.28556859 -0.26598659 -0.13337719
0.26348984 -0.24367543 -0.12331748
0.28525963 -0.24268031 -0.13624382
0.26340538 -0.22045416 -0.12416089
0.28519031 -0.21957245 -0.13688707
0.26346385 -0.19733357 -0.123577
0.28531861 -0.19658725 -0.13569665
0.26325616 -0.17406091 -0.12565243
0.28508464 -0.17340259 -0.13786769
0.26293546 -0.15076792 -0.1288569
0.26281253 -0.12760042 -0.13008523
0.26276082 -0.10447359 -0.13060212
0.26271233 -0.081355587 -0.13108647
0.262701 -0.058250755 -0.13119948
0.26269132 -0.035147808 -0.13129628
0.26268163 -0.012046303 -0.13139319
0.26268163 0.011054561 -0.13139331
0.26269132 0.03415671 -0.13129616
0.262701 0.057260446 -0.13119948
0.26271233 0.080366164 -0.13108647
0.26276082 0.10348784 -0.130602
0.26281092 0.12661785 -0.13010132
0.26293546 0.14979556 -0.12885702
0.26325291 0.17311139 -0.12568474
0.28507942 0.17235808 -0.13791597
0.26346222 0.19640091 -0.12359321
0.28531688 0.19556123 -0.13571274
0.26340538 0.21951802 -0.12416089
0.28518859 0.21853706 -0.13690329
0.26348984 0.24274585 -0.12331736
0.28525791 0.24164993 -0.13625968
0.21677156 0.26548067 -0.12795115
0.28556684 0.26497793 -0.13339329
0.19300474 0.28777653 -0.13625968
0.33124584 0.28766379 -0.13738549
0.31009132 -0.2902219 -0.12092984
0.24183862 -0.26822403 -0.10695255
0.26379868 -0.26709974 -0.12023091
0.24153285 -0.24468032 -0.11026275
0.24143608 -0.22134443 -0.11130989
-0.014380202 -0.19802961 -0.11227465
0.24143155 -0.19808608 -0.11135888
-0.014412245 -0.17455743 -0.11643732
0.0089314878 -0.17500494 -0.1081332
0.24124886 -0.17472447 -0.1133368
-0.037628125 -0.15179779 -0.1065588
-0.014424035 -0.15127075 -0.11796904
0.0089060143 -0.15164869 -0.10978782
0.24101366 -0.15136713 -0.11588311
-0.037628125 -0.12846358 -0.10765779
0.032213945 -0.12844966 -0.10801864
-0.01443381 -0.1280178 -0.11923873
0.008876536 -0.12830789 -0.11170244
0.24088265 -0.12809238 -0.11730123
-0.037628125 -0.10517155 -0.10793662
-0.014436316 -0.10481343 -0.11956418
0.0088712499 -0.10504504 -0.11204588
0.032205615 -0.10515797 -0.10837901
0.24083449 -0.10486709 -0.11782253
-0.037628125 -0.081884466 -0.10818243
-0.01443857 -0.081614941 -0.11985695
0.0088624395 -0.081782088 -0.11261785
0.032187831 -0.081862167 -0.10914922
0.24081646 -0.08165741 -0.11801779
-0.037628125 -0.058603376 -0.10829711
-0.01443957 -0.058423296 -0.11998701
0.0088606775 -0.058535092 -0.11273229
0.032182913 -0.058586925 -0.10936201
0.2408074 -0.058452137 -0.11811554
-0.037628125 -0.035323873 -0.10841191
-0.014440572 -0.035233833 -0.12011719
0.0088589191 -0.035289779 -0.11284673
0.032180268 -0.035315696 -0.1094768
0.055553224 -0.035341516 -0.10611558
0.24079688 -0.035248302 -0.11822963
-0.037628125 -0.012046303 -0.10851002
-0.014441572 -0.012046253 -0.12024724
0.0088571571 -0.012046204 -0.11296117
0.032176856 -0.012046253 -0.10962415
0.055546653 -0.012046155 -0.10632896
0.24078785 -0.012046253 -0.11832714
-0.037628125 0.011230672 -0.10851014
-0.014441572 0.011140337 -0.12024724
0.0088571571 0.011196431 -0.11296117
0.032176856 0.0112221 -0.10962415
0.055546653 0.011247471 -0.10632908
0.24078785 0.011155054 -0.11832714
-0.037628125 0.034509137 -0.10841179
-0.014440572 0.034328863 -0.12011695
0.0088589191 0.034440748 -0.11284673
0.032180268 0.034492634 -0.10947669
0.055553224 0.034544416 -0.10611558
0.24079688 0.034357846 -0.11822939
-0.037628125 0.057789326 -0.10829711
-0.01443957 0.057519309 -0.11998701
0.0088606775 0.057686955 -0.11273229
0.032182913 0.057764798 -0.10936201
0.24080591 0.057562225 -0.11813188
-0.037628125 0.081071503 -0.10818231
-0.01443857 0.080711946 -0.11985695
0.0088624395 0.080934837 -0.11261785
0.032187831 0.081041723 -0.1091491
0.24081646 0.080768637 -0.11801791
-0.014436316 0.10391271 -0.11956406
0.0088712499 0.10420225 -0.11204576
0.032205615 0.10434332 -0.10837901
0.24083449 0.10397986 -0.11782229
-0.037628125 0.10436037 -0.10793638
-0.037628125 0.12765385 -0.10767424
-0.014433935 0.12711893 -0.11925483
0.008876536 0.12746774 -0.11170232
0.032213945 0.1276378 -0.10801852
0.24088113 0.12720838 -0.1173172
-0.037628125 0.15099724 -0.1065588
-0.014424158 0.15038149 -0.11798525
0.0089060143 0.15082321 -0.10978794
0.24101214 0.15049383 -0.11589932
-0.014412496 0.17367879 -0.1164701
0.0089312345 0.17419121 -0.10814953
0.24124582 0.1738697 -0.11336946
-0.014380326 0.19718389 -0.11229098
0.24143003 0.19724743 -0.11137533
0.24143608 0.22050725 -0.11130977
0.24153133 0.24384984 -0.11027896
0.2418371 0.26741892 -0.10696876
0.26379707 0.26619235 -0.12024724
0.31006131 0.28928459 -0.12118995
0.28915709 -0.2921479 -0.10007977
0.2193817 -0.2456916 -0.097127199
-0.037628125 -0.22274084 -0.091154933
-0.014329124 -0.22173719 -0.1056397
0.0091278963 -0.22244838 -0.095376015
0.032634798 -0.22283509 -0.089794993
0.21927689 -0.2222413 -0.098364949
-0.037628125 -0.19872901 -0.10091984
0.0089971945 -0.19854748 -0.10386539
0.03241479 -0.19882736 -0.099321723
0.055917528 -0.19913752 -0.094284654
0.21921964 -0.19884458 -0.099041343
-0.061021797 -0.17580201 -0.093341351
-0.037628125 -0.17516668 -0.10513055
0.032310996 -0.1752376 -0.10381591
0.055757854 -0.17547174 -0.0994699
0.079271466 -0.17570573 -0.095128059
0.10285558 -0.17594397 -0.090707183
0.21906053 -0.1753936 -0.10092008
-0.061011612 -0.15234724 -0.094664931
0.03227305 -0.15184858 -0.10545897
0.055706616 -0.15204838 -0.10113418
0.079201519 -0.15224184 -0.096945524
0.10274614 -0.15242048 -0.093076587
0.19652671 -0.1525391 -0.090508223
0.21890025 -0.15197083 -0.10281277
-0.061002828 -0.12891972 -0.095805764
0.055607837 -0.12859124 -0.10434198
0.079058677 -0.1287331 -0.10065651
0.10257202 -0.12887979 -0.096846461
0.12614721 -0.12902863 -0.092977285
0.19637872 -0.12904964 -0.092430711
0.21876799 -0.12858984 -0.10437489
-0.061000794 -0.10553686 -0.096070051
0.05559722 -0.1052716 -0.10468698
0.07904537 -0.10538503 -0.10100245
0.10254304 -0.10549369 -0.097473979
0.1260937 -0.10560152 -0.093970299
0.14969881 -0.10570975 -0.090458632
0.19632007 -0.10562561 -0.093192458
0.21873738 -0.10527016 -0.10473633
-0.06099876 -0.0821582 -0.096334457
0.055566873 -0.081942491 -0.10567248
0.078999743 -0.082023017 -0.10218775
0.10248664 -0.082103692 -0.098694921
0.12602775 -0.082184464 -0.095194221
0.14962326 -0.082265526 -0.091685295
0.19630478 -0.082226083 -0.093391061
0.21872903 -0.08196187 -0.10483479
-0.060997996 -0.058786027 -0.09643364
0.055556763 -0.058638759 -0.10600078
0.078983277 -0.058690786 -0.10261559
0.1024615 -0.058742821 -0.099239111
0.12599301 -0.058795147 -0.095838785
0.14957632 -0.058847427 -0.092447162
0.19629587 -0.058831073 -0.093506813
0.21872069 -0.058655158 -0.10493338
-0.060997233 -0.035415348 -0.096532583
0.078978851 -0.035367675 -0.10273063
0.1024539 -0.035393197 -0.099404097
0.12597965 -0.035418816 -0.096086621
0.14955695 -0.035444435 -0.092761993
0.19628695 -0.035437748 -0.093622684
0.21871234 -0.035349891 -0.10503197
0.14953758 -0.012046303 -0.093076587
0.218704 -0.012046303 -0.10513055
-0.060996473 -0.012046253 -0.096631765
0.078967452 -0.012046253 -0.10302675
0.10243943 -0.012046253 -0.099717379
0.12596275 -0.012046253 -0.09640038
0.17316408 -0.012046253 -0.089745283
0.19627295 -0.012046253 -0.093804836
-0.060996473 0.011322048 -0.096631765
0.078967452 0.01127284 -0.10302663
0.10243943 0.011298411 -0.099717379
0.12596275 0.011323832 -0.096400499
0.14953656 0.011349402 -0.093093038
0.17316294 0.011374922 -0.089761734
0.19627295 0.011343801 -0.093804598
0.218704 0.011256687 -0.10513055
-0.060997233 0.034691937 -0.096532702
0.078978851 0.034596547 -0.10273051
0.1024539 0.034647785 -0.099404097
0.12597965 0.034698777 -0.096086621
0.14955695 0.034749962 -0.092761874
0.19628695 0.034736782 -0.093622804
0.21871234 0.034561165 -0.10503197
-0.060997996 0.05806341 -0.09643352
0.055556763 0.057842501 -0.10600078
0.078983277 0.057920642 -0.10261548
0.1024615 0.05799859 -0.09923923
0.12599301 0.058077134 -0.095838785
0.14957632 0.058155425 -0.092447281
0.19629587 0.05813095 -0.093506932
0.21872069 0.057866976 -0.10493326
-0.06099876 0.081436217 -0.096334457
0.055566873 0.081148759 -0.10567248
0.078999743 0.081256039 -0.10218775
0.10248664 0.081363723 -0.098694921
0.12602775 0.081471398 -0.095193982
0.14962326 0.08157938 -0.091685295
0.19630478 0.081526801 -0.093390942
0.21872903 0.08117453 -0.10483479
-0.061000794 0.10481716 -0.096070051
0.055596706 0.1044848 -0.10470343
0.07904537 0.10462732 -0.10100234
0.10254304 0.10476294 -0.097473979
0.1260937 0.10489783 -0.09397018
0.14969881 0.10503316 -0.090458512
0.19631881 0.10492717 -0.093209028
0.21873738 0.10448346 -0.10473633
-0.061002828 0.12820202 -0.095805645
0.055607837 0.12780768 -0.10434198
0.079058677 0.12797798 -0.10065663
0.10257126 0.1281532 -0.096862912
0.12614633 0.1283318 -0.092993736
0.19637872 0.12835777 -0.092430592
0.21876661 0.12780544 -0.10439122
-0.061011486 0.15163717 -0.094681501
0.03227267 0.15105566 -0.10547543
0.055706616 0.15128945 -0.10113418
0.079200879 0.15151432 -0.096961975
0.10274538 0.15172285 -0.093093038
0.19652797 0.15186298 -0.090491652
0.21890025 0.15119901 -0.10281301
-0.061021797 0.17510313 -0.09334147
-0.037628125 0.17437598 -0.105147
0.032310996 0.17445806 -0.10381603
0.055757347 0.17472465 -0.099486351
0.079271466 0.17499302 -0.09512794
0.10285482 0.17526443 -0.090723872
0.21905915 0.17463535 -0.10093641
-0.037628125 0.1979706 -0.10093653
0.0089971945 0.19776769 -0.10386539
0.03241403 0.19808012 -0.099354506
0.055917013 0.1984304 -0.094301105
0.21921824 0.19810073 -0.099057674
-0.037628125 0.22204855 -0.091287374
-0.014329249 0.22094257 -0.10565603
0.0091268793 0.22172874 -0.095442057
0.032633644 0.22215961 -0.089844704
0.21927689 0.22150376 -0.098364949
0.2193803 0.24496216 -0.097143769
0.28906834 0.29131457 -0.10090363
0.26833785 -0.2944763 -0.07487309
0.19703718 -0.24671155 -0.083877206
-0.061153784 -0.22377725 -0.076195955
0.056228768 -0.22322428 -0.084176898
0.079909384 -0.22361381 -0.078554511
0.1036783 -0.22400598 -0.072894812
0.19692953 -0.22314806 -0.085275531
-0.084689237 -0.20029077 -0.075559855
-0.061054848 -0.19946004 -0.089048266
0.079499096 -0.19944979 -0.089214325
0.1031595 -0.19976312 -0.084126949
0.12689827 -0.20007649 -0.079039097
0.15071744 -0.20039184 -0.073917866
0.1742409 -0.20037431 -0.074202776
0.19682324 -0.19960731 -0.086655974
-0.084617928 -0.17651057 -0.080191612
0.12651023 -0.17618456 -0.086240411
0.15023448 -0.17642598 -0.081760287
0.17397645 -0.17662762 -0.078019738
0.19667616 -0.17605929 -0.08856678
-0.084597111 -0.15295327 -0.081543446
0.12635088 -0.15259966 -0.089197636
0.15001595 -0.1527793 -0.08530879
0.17373116 -0.15295243 -0.081560135
-0.084578373 -0.12942185 -0.082760692
0.14978257 -0.12917794 -0.089098096
0.1734726 -0.12932453 -0.08529222
-0.084574014 -0.10593814 -0.083043933
0.17335853 -0.10581817 -0.0869385
-0.084569909 -0.082458988 -0.083310604
0.17327334 -0.082346745 -0.088168263
-0.084568366 -0.058986522 -0.08341074
0.17320892 -0.058898963 -0.089098096
-0.084566571 -0.035515495 -0.083527327
0.17318593 -0.035470106 -0.089429855
-0.084565029 -0.012046303 -0.083627224
-0.084565029 0.011422195 -0.083627224
-0.084566571 0.034892231 -0.083527207
0.17318593 0.034801349 -0.089429855
-0.084568366 0.058363996 -0.083410501
0.17320776 0.058232337 -0.089114666
-0.084569909 0.081837304 -0.083310723
0.17327218 0.081687108 -0.088184714
-0.084574014 0.10531843 -0.083044052
0.17335738 0.1051679 -0.086955309
-0.084578373 0.12880439 -0.082760692
0.14978157 0.12851098 -0.089114547
0.17347147 0.1286868 -0.08530879
-0.084597111 0.15234518 -0.081543565
0.12634999 0.15193191 -0.089214087
0.15001492 0.15214147 -0.08532536
0.17373116 0.15234424 -0.081560254
-0.084618181 0.17591397 -0.080174923
0.12650844 0.17553832 -0.086273551
0.15023242 0.17581438 -0.081793785
0.17397529 0.17604579 -0.078036427
0.19667616 0.17539719 -0.088566899
-0.084688723 0.19972652 -0.075593233
-0.061054591 0.19879195 -0.089081407
0.079497814 0.1987804 -0.089247584
0.10315797 0.19913287 -0.084160209
0.12689738 0.19948658 -0.079056025
0.15071538 0.1998402 -0.073951364
0.17423974 0.19982156 -0.074219465
0.19682324 0.19895998 -0.086656094
-0.06115301 0.2232026 -0.076296449
0.056227233 0.22259206 -0.084226847
0.079908103 0.22302614 -0.07858789
0.10367675 0.22346187 -0.072928429
0.19692953 0.22251138 -0.085275531
0.19703718 0.24608546 -0.083876967
0.2682423 0.2938242 -0.075827718
0.1747811 -0.27165759 -0.066405535
0.15172637 -0.24873933 -0.057535052
0.17449786 -0.24774177 -0.070493937
-0.084919833 -0.22485894 -0.060582161
0.12751463 -0.22437263 -0.067601204
0.15139614 -0.22469854 -0.062897325
0.174335 -0.22400935 -0.072844386
-0.10855202 -0.20117661 -0.061174035
-0.10844132 -0.17727695 -0.065967441
-0.10840981 -0.15360971 -0.067331672
-0.10838066 -0.12996718 -0.068594098
-0.10837445 -0.10637465 -0.068863273
-0.10836785 -0.082786039 -0.069149017
-0.10836552 -0.059204504 -0.069249988
-0.10836318 -0.035624661 -0.069350839
-0.10836086 -0.012046303 -0.06945169
-0.10836047 0.011531163 -0.069468617
-0.10836318 0.035110459 -0.069350958
-0.10836552 0.058691144 -0.069249988
-0.10836785 0.082273372 -0.069149256
-0.10837445 0.10586421 -0.068863153
-0.10838066 0.12945889 -0.068593979
-0.10840981 0.15311098 -0.067331791
-0.10844132 0.17678888 -0.065967441
-0.10855123 0.20072308 -0.061207771
-0.084918275 0.22440447 -0.060683608
0.1275119 0.22386806 -0.067651629
0.15139407 0.22423148 -0.062930942
0.174335 0.22346845 -0.072844386
0.15172637 0.24831608 -0.057535052
0.1744967 0.24721739 -0.070510626
0.17477994 0.27116451 -0.066422343
0.24695252 -0.29662681 -0.051592946
0.15203051 -0.27282694 -0.052596092
0.12875114 -0.24973089 -0.04465425
-0.10893156 -0.22595659 -0.044739485
-0.132641 -0.20207199 -0.046634912
-0.13248938 -0.17805341 -0.051558971
-0.13244489 -0.15427148 -0.053004146
-0.13240513 -0.13051751 -0.054295301
-0.13239676 -0.10681493 -0.054566979
-0.15665624 -0.083463177 -0.039827943
-0.1323884 -0.083116509 -0.054838419
-0.15665227 -0.059655882 -0.03993082
-0.13238475 -0.059424624 -0.054957151
-0.15664831 -0.035850324 -0.040033579
-0.1323816 -0.035734572 -0.055059195
-0.15664369 -0.012046204 -0.040153623
-0.13237847 -0.012046204 -0.055160999
-0.15664369 0.011756878 -0.040153503
-0.13237847 0.01164137 -0.055161119
-0.15664831 0.035561793 -0.040033698
-0.1323816 0.035330527 -0.055059195
-0.15665227 0.059368193 -0.039930582
-0.13238475 0.05902122 -0.054957271
-0.15665624 0.083176181 -0.039827824
-0.1323884 0.082713999 -0.054838419
-0.13239676 0.1064145 -0.05456686
-0.13240513 0.13011938 -0.054295301
-0.13244489 0.15388311 -0.053004146
-0.13248886 0.17767514 -0.051575899
-0.13263996 0.20173025 -0.046669006
-0.10892919 0.22562392 -0.044842005
0.12875023 0.2494055 -0.044671297
0.15202947 0.2724402 -0.052613258
0.24692266 0.29621708 -0.051916003
0.10593049 -0.27523711 -0.024133444
0.12908699 -0.27402717 -0.03842175
0.10564554 -0.25083578 -0.030302644
-0.1331912 -0.22706321 -0.02876699
-0.15699033 -0.20302579 -0.031147599
-0.15679428 -0.17887881 -0.036241412
-0.15673149 -0.15497023 -0.037872672
-0.18122914 -0.13171373 -0.023215652
-0.15667866 -0.1310968 -0.039245009
-0.18121475 -0.10777067 -0.023527503
-0.15666744 -0.10727766 -0.039536595
-0.18120195 -0.083833143 -0.023804545
-0.18119635 -0.05990231 -0.023925662
-0.18119153 -0.035973467 -0.024029613
-0.18118675 -0.012046303 -0.024133444
-0.18118675 0.011880266 -0.024133563
-0.18119153 0.035808273 -0.024029732
-0.18119635 0.059737906 -0.023925781
-0.18120195 0.083669581 -0.023804545
-0.18121475 0.10760928 -0.023527384
-0.15666744 0.10699294 -0.039536595
-0.18122834 0.13155395 -0.023232937
-0.15667866 0.13081436 -0.039245009
-0.15673082 0.15469763 -0.037889838
-0.15679295 0.17861754 -0.036275744
-0.15698901 0.20280337 -0.031182051
-0.13318853 0.22685488 -0.028853416
0.10564315 0.2506178 -0.0303545
0.10592969 0.2750693 -0.024150848
0.12908514 0.27374792 -0.038455963
0.082559109 -0.27645826 -0.0097126961
0.082313418 -0.25192937 -0.016095996
-0.157773 -0.22830699 -0.010813475
-0.18161348 -0.20402667 -0.014894605
-0.18137653 -0.1797528 -0.020024419
-0.18129399 -0.15571214 -0.021811604
-0.20603447 -0.13233647 -0.0070368052
-0.20601843 -0.10826932 -0.0073341131
-0.2060024 -0.084206626 -0.0076316595
-0.20599674 -0.06015157 -0.0077366829
-0.20599015 -0.036097944 -0.00785923
-0.20598449 -0.012046204 -0.0079642534
-0.20598449 0.012004593 -0.007964015
-0.20599015 0.03605713 -0.00785923
-0.2059958 0.060111344 -0.0077540874
-0.2060024 0.084167592 -0.0076317787
-0.20601843 0.10823256 -0.0073341131
-0.20603351 0.13230121 -0.0070539713
-0.18129319 0.15556297 -0.021828771
-0.18137573 0.17961714 -0.020041823
-0.18161187 0.20392928 -0.014929414
-0.15776896 0.22823553 -0.01091814
0.082310081 0.25181788 -0.016182899
0.082558438 0.27640149 -0.0097302198
0.058995929 -0.27776238 0.0056895018
0.058758479 -0.25301272 -0.002022028
-0.18275602 -0.22973804 0.0098423958
-0.20649514 -0.20503706 0.0015121698
-0.20621862 -0.18063672 -0.003619194
-0.2061128 -0.15646179 -0.0055829287
-0.23112546 -0.13298209 0.0097360611
-0.23110476 -0.10878457 0.0094000101
-0.23108622 -0.084593043 0.0090993643
-0.23107859 -0.060408942 0.008975625
-0.23107207 -0.036226831 0.0088694096
-0.23106445 -0.012046204 0.0087456703
-0.23106445 0.012133284 0.0087455511
-0.231071 0.036314555 0.0088515282
-0.23107859 0.060497709 0.0089755058
-0.23108622 0.084682748 0.0090993643
-0.23110476 0.1088766 0.0094000101
-0.23112436 0.13307588 0.0097182989
-0.2061128 0.15643838 -0.0055829287
-0.20621671 0.18062639 -0.0036542416
-0.20649418 0.20506726 0.0014945269
-0.18269721 0.22973549 0.0085687637
0.058757942 0.25301534 -0.0020394325
0.058993753 0.27781937 0.0056188107
0.035206135 -0.27910519 0.021547198
0.011006676 -0.25522023 0.026654243
0.034983668 -0.25408569 0.011914253
-0.2317113 -0.20612946 0.019249082
-0.23135018 -0.18155305 0.013385534
-0.23121703 -0.15723789 0.011223197
-0.25649711 -0.13364021 0.026833177
-0.25647232 -0.10931033 0.02647531
-0.25645128 -0.084987335 0.026171327
-0.25644261 -0.060671724 0.026046157
-0.25643393 -0.036358047 0.025921106
-0.25642648 -0.012046253 0.025813937
-0.25642648 0.0122646 0.025813818
-0.25643393 0.03657724 0.025921226
-0.25644261 0.060891852 0.026046157
-0.25645128 0.085208409 0.026171446
-0.2564711 0.10953318 0.026457429
-0.25649586 0.13386559 0.026815176
-0.23121592 0.15734312 0.011205554
-0.23134802 0.18167369 0.01335001
-0.23170581 0.20629118 0.019160151
0.011006676 0.25544509 0.026654243
0.034983668 0.25419709 0.011914134
0.035202432 0.27927598 0.021386981
0.011187714 -0.2805334 0.038413048
-0.01319146 -0.25641289 0.04214716
-0.25723699 -0.20725413 0.037512302
-0.25676513 -0.18248619 0.030701637
-0.25660375 -0.15803 0.028372169
-0.2566025 0.15826716 0.028354287
-0.25676388 0.18274111 0.030683756
-0.25723073 0.20755632 0.03742218
-0.20867895 0.23231207 0.042038918
-0.013191599 0.25675553 0.042129159
0.011185218 0.28083372 0.038250685
-0.01308912 -0.2819753 0.055441737
-0.037628125 -0.25760603 0.057646871
-0.28332141 -0.20860092 0.059380531
-0.28260386 -0.18352929 0.050059795
-0.28240004 -0.15890937 0.04741168
-0.28227457 -0.13436948 0.045781851
-0.28224111 -0.10989149 0.045347214
-0.28221744 -0.08542306 0.045039654
-0.2822063 -0.06096191 0.044894934
-0.28219792 -0.036503188 0.044786334
-0.28218818 -0.012046303 0.044659734
-0.28218818 0.012409741 0.044659734
-0.28219792 0.036867768 0.044786334
-0.2822063 0.061327226 0.044894934
-0.28221744 0.085789464 0.045039535
-0.28224111 0.11026028 0.045347333
-0.28227457 0.1347416 0.045781612
-0.28240004 0.15929417 0.047411799
-0.28260109 0.18393213 0.050023317
-0.28330874 0.20906636 0.059216261
-0.037628125 0.258068 0.057628751
-0.01309038 0.28240666 0.055277824
-0.037628125 -0.28340319 0.072304487
-0.06230332 -0.25879824 0.07313323
-0.30896017 -0.18471217 0.072010159
-0.30870172 -0.1599046 0.068958163
-0.30855405 -0.1351945 0.067214251
-0.30851054 -0.11054897 0.066700578
-0.30848104 -0.085915275 0.066352129
-0.30846864 -0.061289951 0.066205263
-0.30845776 -0.036667213 0.066076994
-0.30844691 -0.012046352 0.065948725
-0.30844691 0.012573663 0.065948606
-0.30845776 0.037195511 0.066076994
-0.30846864 0.061819389 0.066205263
-0.30848104 0.086445801 0.066352129
-0.30851054 0.11108207 0.066700339
-0.3085525 0.13573068 0.067195773
-0.30870017 0.16045417 0.068939805
-0.30895704 0.18528384 0.071973205
-0.06230332 0.25938085 0.07313323
-0.037628125 0.28396598 0.072157383
-0.062427994 -0.28484488 0.089328408
-0.087219268 -0.26000193 0.08877027
-0.31008211 -0.21019451 0.085259557
-0.33552235 -0.16099347 0.092531085
-0.33535716 -0.13610008 0.090742707
-0.33530384 -0.11127155 0.090165615
-0.33527291 -0.086457483 0.089830756
-0.33525744 -0.061651148 0.089663267
-0.3352471 -0.036847785 0.08955133
-0.33523509 -0.012046303 0.089421272
-0.33523509 0.012754284 0.089421272
-0.3352471 0.037556753 0.089551568
-0.33525744 0.062361054 0.089663148
-0.33527291 0.087168731 0.089830637
-0.33530384 0.11198523 0.090165496
-0.33535716 0.13681823 0.090742588
-0.33552065 0.1617243 0.092512488
-0.3100664 0.21085781 0.085073948
-0.23617496 0.23613723 0.091729879
-0.087219268 0.26070502 0.088770151
-0.062426843 0.28553835 0.089179516
-0.087510996 -0.28640211 0.10771871
-0.11237951 -0.26121756 0.10456085
-0.23631041 -0.23556381 0.093929529
-0.33582744 -0.18599585 0.09583354
-0.33582571 0.1867521 0.095814943
-0.11237907 0.26204047 0.10454202
-0.08750549 0.28721786 0.10736132
-0.13778764 -0.26244506 0.12050688
-0.26259747 -0.23701558 0.11488426
-0.33784586 -0.2121914 0.11768365
-0.36363691 -0.16251184 0.1254071
-0.36342385 -0.13735229 0.12327802
-0.36335164 -0.11226895 0.12255633
-0.36331552 -0.087204941 0.1221956
-0.36329654 -0.062149107 0.1220057
-0.36327943 -0.037096441 0.12183487
-0.36326423 -0.012046253 0.12168312
-0.36326423 0.013002696 0.121683
-0.36327943 0.038053975 0.12183511
-0.36329654 0.063107975 0.12200594
-0.36331552 0.088165194 0.1221956
-0.36334974 0.11323123 0.12253737
-0.36342385 0.13832107 0.12327802
-0.36363691 0.16349699 0.12540698
-0.33781964 0.21309747 0.11739969
-0.26253206 0.23784702 0.11393964
-0.13778706 0.26339075 0.12048781
-0.11326592 -0.28938481 0.1429435
-0.16344737 -0.26368466 0.13661098
-0.28977925 -0.2389823 0.14327025
-0.36426246 -0.18792634 0.13165808
-0.36425674 0.18895593 0.13160086
-0.28967416 0.23999986 0.14190567
-0.16344664 0.2647545 0.13659179
-0.11322552 0.29034343 0.14119482
-0.13858221 -0.28967002 0.14631152
-0.18964528 -0.26540813 0.15899897
-0.36651164 -0.21443617 0.15413296
-0.36649227 0.21562909 0.15393937
-0.18964976 0.26666021 0.15909612
-0.13858221 0.29081598 0.14631152
-0.21576646 -0.26652962 0.17356658
-0.31770083 -0.24119663 0.17523253
-0.39387736 -0.11383182 0.17331219
-0.39332941 -0.08826796 0.16822791
-0.39327469 -0.062852956 0.16772032
-0.39327261 -0.037449457 0.16770077
-0.39327261 -0.012046352 0.16770089
-0.39327261 0.013357 0.16770077
-0.39327261 0.038760103 0.16770077
-0.39327469 0.064163752 0.16772032
-0.3933273 0.089582123 0.16820836
-0.39387521 0.11518488 0.17329276
-0.31757304 0.24244916 0.17372346
-0.21577172 0.2678937 0.17366469
-0.24201043 -0.26752421 0.18648636
-0.39526311 -0.16531838 0.18617034
-0.39456674 -0.13952436 0.1797092
-0.39456466 0.14092654 0.17968941
-0.39526311 0.16677126 0.18617034
-0.24201529 0.26898614 0.18656528
-0.16598168 -0.29442412 0.20245433
-0.26845896 -0.26852491 0.19948709
-0.34621707 -0.24348797 0.20830464
-0.21704964 -0.24273105 0.19737947
-0.39610958 -0.19128704 0.1940248
-0.39610532 0.19279775 0.1939851
-0.34607303 0.24499103 0.20674527
-0.26846445 0.27008697 0.19956684
-0.16595636 0.29594141 0.20179665
-0.32197571 -0.27054411 0.22571647
-0.2951124 -0.26953048 0.21255028
-0.39890102 -0.21848793 0.219926
-0.39892703 0.22021736 0.22016752
-0.32198426 0.27230993 0.22581732
-0.29511857 0.27119339 0.21263063
-0.19278191 -0.29649493 0.22690928
-0.34905133 -0.27156562 0.23898637
-0.37530932 -0.2458255 0.24204457
-0.42697063 -0.063958593 0.23953664
-0.42660156 -0.037977792 0.2363404
-0.42642787 -0.012046352 0.23483598
-0.42642787 0.013873741 0.23483598
-0.42660156 0.039816827 0.23634028
-0.42696828 0.065821752 0.23951626
-0.37515011 0.2475861 0.24045372
-0.34906074 0.27343366 0.23908842
-0.19276977 0.29823706 0.2266463
-0.37634385 -0.27259681 0.25238216
-0.4292284 -0.11647305 0.25908935
-0.42761171 -0.090043053 0.24508822
-0.42760697 0.09194804 0.24504733
-0.42900953 0.11841422 0.2571938
-0.37635207 0.27456623 0.25246441
-0.40392774 -0.27368876 0.26656806
-0.43119729 -0.16947396 0.27614021
-0.43023309 -0.14291458 0.26779008
-0.43008482 0.14493643 0.26650608
-0.43099302 0.171524 0.27437115
-0.40392995 0.27576235 0.26658893
-0.43179688 -0.27482536 0.28133273
-0.40614352 -0.24894908 0.28712809
-0.4322677 -0.19621144 0.2854104
-0.43226048 0.19842431 0.28534782
-0.40613449 0.25117257 0.28704429
-0.43179929 0.27701259 0.28135383
-0.4599092 -0.27597198 0.2962265
-0.43475145 -0.25032029 0.30692029
-0.43424293 -0.22357413 0.30251634
-0.43424049 0.22592124 0.30249512
-0.43473923 0.25269449 0.30681443
-0.45991442 0.27827549 0.2962687
-0.48827067 -0.27713004 0.31127167
-0.46295413 -0.22470924 0.320948
-0.46281204 -0.19806428 0.31979442
-0.46275941 -0.17147057 0.31936729
-0.46273047 -0.14489077 0.31913233
-0.46271732 -0.11831861 0.31902575
-0.4627147 -0.091750063 0.3190043
-0.4627226 -0.065182954 0.31906807
-0.46273309 -0.038615394 0.31915379
-0.46273834 -0.012046303 0.31919622
-0.46270421 0.014520857 0.31891882
-0.46268839 0.041086234 0.31879067
-0.46267527 0.067650072 0.31868422
-0.4627147 0.094225407 0.3190043
-0.46271732 0.12079424 0.31902552
-0.46273047 0.14736721 0.31913233
-0.46275941 0.1739486 0.31936729
-0.46281728 0.20054826 0.31983697
-0.46295413 0.22719961 0.32094812
-0.48827347 0.27954778 0.31129301
-0.54585779 -0.27953559 0.34251952
-0.5169149 -0.27831674 0.32668567
-0.463608 -0.25165996 0.32625687
-0.49198079 -0.22585927 0.33962178
-0.49178863 -0.19905362 0.33815348
-0.49171799 -0.17231321 0.3376137
-0.49168694 -0.14559299 0.33737659
-0.49167281 -0.11888029 0.33726847
-0.49166715 -0.092170872 0.33722544
-0.49166435 -0.065462381 0.33720386
-0.49160501 -0.038750775 0.33675075
-0.49154577 -0.012046303 0.33629799
-0.49150908 0.01465247 0.33601773
-0.4915514 0.041356497 0.33634114
-0.49162197 0.06807033 0.33688033
-0.49166715 0.094786495 0.33722556
-0.49167281 0.12149618 0.33726859
-0.49168974 0.1482107 0.33739805
-0.49172083 0.17493297 0.33763552
-0.49179709 0.20168045 0.33821821
-0.49198359 0.22849488 0.3396436
-0.46361592 0.25419611 0.32632113
-0.54584515 0.28218454 0.34243286
-0.5169149 0.28085116 0.32668567
-0.52136242 -0.25391343 0.35878289
-0.49241659 -0.25281653 0.34295237
-0.52133214 -0.22702585 0.35856438
-0.52115065 -0.20008275 0.35725439
-0.52092093 -0.17314377 0.35559642
-0.52088159 -0.1462834 0.35531294
-0.52086657 -0.11943267 0.35520387
-0.52086657 -0.092585973 0.35520387
-0.52081817 -0.065733984 0.3548553
-0.52074873 -0.03888645 0.35435402
-0.52068233 -0.012046253 0.35387468
-0.52068537 0.014790179 0.3538965
-0.52075481 0.041634388 0.35439754
-0.52082121 0.068485983 0.35487723
-0.52086657 0.095340103 0.35520387
-0.52086353 0.12218576 0.35518217
-0.52088159 0.1490382 0.35531294
-0.52093303 0.1759057 0.3556838
-0.52115667 0.2028553 0.35729802
-0.52133518 0.2298073 0.35858619
-0.5213927 0.25671181 0.35900128
-0.49242511 0.25548121 0.34301734
-0.57530576 -0.28088504 0.3600502
-0.55019611 -0.25484172 0.37218082
-0.5505473 -0.17402081 0.37458181
-0.55036688 -0.14697754 0.37334788
-0.55034751 -0.11998732 0.37321568
-0.55033463 -0.092999995 0.37312746
-0.55027986 -0.066009648 0.37275326
-0.55022192 -0.039024904 0.37235701
-0.55014789 -0.012046352 0.37185061
-0.55015111 0.014928581 0.37187266
-0.55022514 0.041911341 0.37237906
-0.55028313 0.068899304 0.37277532
-0.55033463 0.095891878 0.37312746
-0.55034751 0.1228799 0.37321591
-0.5503701 0.14987227 0.37336993
-0.55055696 0.17692749 0.37464797
-0.5502187 0.25773826 0.37233484
-0.57529902 0.28367272 0.36000645
-0.60513455 -0.28228733 0.37826681
-0.57924867 -0.2557756 0.38566005
-0.55100554 -0.22820511 0.37771451
-0.55079567 -0.20110813 0.37627983
-0.58024085 -0.14769953 0.39210439
-0.58013809 -0.1205482 0.39143658
-0.58010036 -0.093417086 0.39119184
-0.58004558 -0.066287935 0.39083588
-0.57998735 -0.039164148 0.39045787
-0.57992226 -0.012046452 0.39003527
-0.57992566 0.015068619 0.39005744
-0.57998735 0.042189635 0.39045763
-0.58004558 0.069316342 0.39083588
-0.58010036 0.096448116 0.39119184
-0.58013809 0.12358122 0.39143682
-0.5802443 0.15073861 0.3921268
-0.55080217 0.20402704 0.37632394
-0.55100554 0.2311326 0.37771475
-0.57926917 0.25877437 0.38579309
-0.60512739 0.28521538 0.37822258
-0.63527608 -0.28370446 0.39667439
-0.60852915 -0.25671813 0.39926541
-0.58100975 -0.22939891 0.39709842
-0.58076239 -0.20214327 0.39549184
-0.5805015 -0.17490822 0.3937974
-0.6101163 -0.066569 0.40908372
-0.61005819 -0.03930483 0.40872419
-0.60999644 -0.012046155 0.408342
-0.60999644 0.015209299 0.40834224
-0.61005819 0.042470895 0.40872419
-0.6101163 0.069737695 0.40908372
-0.58050489 0.17796056 0.39381969
-0.58076578 0.20520879 0.39551401
-0.58100629 0.23247391 0.39707613
-0.60854 0.25981647 0.3993324
-0.63527232 0.28677574 0.39665222
-0.66568345 -0.28511381 0.41498268
-0.63797593 -0.25764316 0.41261625
-0.61136907 -0.23061424 0.41683304
-0.61108452 -0.20319845 0.41507292
-0.61079663 -0.17580874 0.41329193
-0.61050904 -0.14844656 0.41151297
-0.61023629 -0.1211145 0.40982568
-0.61017811 -0.093839079 0.40946591
-0.61017811 0.097010843 0.40946591
-0.61023629 0.12428898 0.40982544
-0.61050904 0.1516341 0.41151297
-0.61079299 0.17900872 0.41326952
-0.61108094 0.20641199 0.41505051
-0.61136544 0.23384118 0.41681039
-0.63797593 0.2608391 0.41261625
-0.66567951 0.28832611 0.41496015
-0.69608402 -0.28640279 0.43172836
-0.69781303 -0.25961557 0.44108713
-0.66775471 -0.25861758 0.42668128
-0.64238322 -0.23195714 0.43864
-0.64194226 -0.204328 0.43603635
-0.64164096 -0.17677687 0.43425715
-0.64133608 -0.14925259 0.43245697
-0.64099681 -0.12174972 0.43045378
-0.64092749 -0.094314292 0.43004429
-0.64086199 -0.066885695 0.42965758
-0.64079654 -0.039463051 0.4292711
-0.64072728 -0.012046253 0.42886221
-0.64072728 0.015367275 0.42886198
-0.64079654 0.042787246 0.42927134
-0.64086199 0.070212916 0.42965782
-0.64092749 0.097644478 0.43004429
-0.64099681 0.12508298 0.43045378
-0.64133608 0.15260132 0.43245697
-0.64163709 0.18013844 0.4342345
-0.64193839 0.20770301 0.4360137
-0.64237934 0.2353521 0.43861699
-0.69782996 0.26303789 0.44117868
-0.66776276 0.26192531 0.42672658
-0.69607556 0.28974226 0.43168271
-0.72698528 -0.2877892 0.44973612
-0.72811568 -0.26062179 0.45561016
-0.67317092 -0.20547232 0.45727205
-0.67284811 -0.17775589 0.45544863
-0.67250514 -0.15006313 0.45351148
-0.67212999 -0.12239436 0.45139265
-0.67205256 -0.094797239 0.45095539
-0.6719833 -0.067207694 0.45056427
-0.67190999 -0.039623804 0.45015025
-0.67182857 -0.012046352 0.44969022
-0.67182857 0.015527729 0.44969022
-0.67190999 0.043108746 0.45015025
-0.6719833 0.070695706 0.45056427
-0.67205256 0.098288424 0.45095539
-0.67212999 0.12588887 0.45139265
-0.67250514 0.15357375 0.45351171
-0.67284811 0.18128152 0.45544851
-0.67316687 0.20901066 0.45724905
-0.72813791 0.26415768 0.45572555
-0.72694987 0.29125521 0.44955206
-0.75859588 -0.2893416 0.46990275
-0.75866568 -0.2616362 0.47025156
-0.6737808 -0.23331673 0.46071637
-0.70402741 -0.15087952 0.47472334
-0.70363563 -0.12304752 0.47260261
-0.70354092 -0.095285438 0.47209024
-0.70346785 -0.067532912 0.47169435
-0.70337749 -0.03978584 0.47120559
-0.70329154 -0.012046352 0.4707402
-0.70329154 0.015689667 0.47073996
-0.70337749 0.043432824 0.47120559
-0.70346785 0.071183607 0.47169435
-0.70354092 0.098939158 0.47209024
-0.70363128 0.12670442 0.47257924
-0.70402741 0.15455362 0.47472334
-0.6737808 0.2368831 0.46071637
-0.75869364 0.26528659 0.47039139
-0.75854462 0.29295686 0.46964681
-0.79072088 -0.29096946 0.49105048
-0.78946602 -0.26265901 0.48501313
-0.70557332 -0.23469462 0.483091
-0.70476925 -0.20662916 0.47873867
-0.70442402 -0.17874521 0.47686994
-0.73513097 -0.012046253 0.49206257
-0.73513097 0.015853789 0.49206257
-0.70442402 0.18243587 0.47686994
-0.70476925 0.21033408 0.4787389
-0.70557332 0.23843321 0.483091
-0.789505 0.26642662 0.48520064
-0.79064751 0.2947394 0.4906975
-0.82129014 -0.26393774 0.50347006
-0.73776436 -0.23608993 0.50574601
-0.73675233 -0.20780095 0.50048721
-0.73634285 -0.17973778 0.4983598
-0.73592937 -0.15170652 0.49621093
-0.73551178 -0.12370762 0.49404132
-0.73540294 -0.095779188 0.49347579
-0.73531228 -0.067860909 0.49300444
-0.73522162 -0.039950162 0.49253333
-0.73522162 0.043761261 0.49253345
-0.73531228 0.071675874 0.49300444
-0.73540294 0.099597715 0.49347556
-0.73550725 0.12752958 0.49401772
-0.73592484 0.155545 0.49618757
-0.73634285 0.18359382 0.49835956
-0.73675233 0.21167356 0.50048721
-0.73776436 0.24000287 0.50574601
-0.82133102 0.26784757 0.50365961
-0.76898408 -0.20894964 0.52180517
-0.76860583 -0.18073344 0.51991558
-0.76820892 -0.15254262 0.5179323
-0.7677694 -0.12437569 0.5157367
-0.76763576 -0.096277989 0.51506889
-0.76754034 -0.068193503 0.51459205
-0.7674402 -0.040115967 0.51409149
-0.76734477 -0.012046253 0.51361501
-0.76734477 0.016019693 0.51361501
-0.7674402 0.044093169 0.51409149
-0.76754034 0.072174378 0.51459205
-0.76763576 0.10026262 0.51506889
-0.7677694 0.12836555 0.5157367
-0.76820415 0.15654814 0.51790845
-0.76860106 0.1847541 0.51989162
-0.76897925 0.21298483 0.52178133
-0.77009219 -0.23741974 0.52734184
-0.77011621 0.2415072 0.52746201
0 0 0 1 0 0 0 1 0 0 0 1 0 0 0 0 0 1360 1 0 0
