ply
format ascii 1.0
comment PCL generated
element vertex 1356
property float x
property float y
property float z
element camera 1
property float view_px
property float view_py
property float view_pz
property float x_axisx
property float x_axisy
property float x_axisz
property float y_axisx
property float y_axisy
property float y_axisz
property float z_axisx
property float z_axisy
property float z_axisz
property float focal
property float scalex
property float scaley
property float centerx
property float centery
property int viewportx
property int viewporty
property float k1
property float k2
end_header
-0.061213136 -0.072406501 -0.14771926
-0.041404612 -0.072426446 -0.14685041
-0.021582896 -0.072446853 -0.14596933
-0.10089387 -0.052585751 -0.14720953
-0.080890402 -0.052517366 -0.15165085
-0.060996912 -0.052469816 -0.15474141
-0.041242331 -0.052483018 -0.15387726
-0.02147446 -0.052496426 -0.15301245
-0.0016932767 -0.052509733 -0.15214711
0.018101228 -0.052523214 -0.15126973
0.037909158 -0.052536573 -0.1504032
0.057730436 -0.052549854 -0.14953613
0.077565081 -0.052563287 -0.14866853
0.097413108 -0.05257659 -0.14780033
0.11727452 -0.052589975 -0.14693147
0.13714986 -0.052603509 -0.14605051
-0.10077038 -0.032732643 -0.14988309
-0.08078786 -0.032698549 -0.15431523
-0.060917549 -0.032675374 -0.15731895
-0.041182771 -0.032682039 -0.15645635
-0.021434726 -0.032688681 -0.1555934
-0.0016733967 -0.03269532 -0.15473002
0.018101228 -0.032702088 -0.15385413
0.03788925 -0.032708701 -0.15298945
0.057690598 -0.032715369 -0.15212405
0.077505276 -0.032722034 -0.15125823
0.097333312 -0.032728698 -0.1503917
0.1171747 -0.03273534 -0.14952463
0.13703001 -0.032742158 -0.14864552
0.15691885 -0.032751825 -0.14739484
-0.12067771 -0.012920722 -0.14811289
-0.10064715 -0.012920696 -0.15255111
-0.080685511 -0.012920722 -0.15697396
-0.060838334 -0.012920696 -0.15989125
-0.02139507 -0.012920696 -0.15816927
0.018101228 -0.012920748 -0.15643346
0.037869379 -0.012920722 -0.15557039
0.057650834 -0.012920696 -0.15470695
0.097253673 -0.012920696 -0.15297806
0.11707554 -0.012920696 -0.15210116
0.15677045 -0.012920722 -0.15014899
-0.041123323 -0.01292062 -0.15903062
-0.0016536433 -0.012920646 -0.15729594
0.077445589 -0.012920671 -0.15384275
0.13691039 -0.012920646 -0.15123522
-0.14063956 0.0069219312 -0.14589971
-0.1205574 0.0068877125 -0.15034562
-0.10054385 0.0068534939 -0.15478754
-0.080599733 0.0068194279 -0.15920258
-0.060771629 0.0067975735 -0.1620577
-0.041073263 0.0068041896 -0.16119838
-0.021361845 0.006810776 -0.16032696
-0.0016369317 0.0068174684 -0.15946656
0.018101228 0.0068241088 -0.15860564
0.037852649 0.0068306727 -0.15774411
0.057617344 0.0068373652 -0.15688193
0.077395327 0.0068440298 -0.15601939
0.09718661 0.0068507204 -0.15515602
0.11699165 0.0068573104 -0.15428066
0.13680966 0.0068641035 -0.15341622
0.15664536 0.0068713026 -0.15247023
0.17682989 0.006920428 -0.14609683
-0.12070079 0.026737031 -0.14768434
-0.10066687 0.026668619 -0.15212411
-0.080701888 0.02660054 -0.15654856
-0.060850702 0.026555307 -0.15948975
-0.041132875 0.026568737 -0.15861726
-0.021401437 0.026581917 -0.15775567
-0.0016567409 0.026595198 -0.15689355
0.018101228 0.02660853 -0.15603077
0.037872486 0.026621785 -0.15516752
0.057657041 0.026635114 -0.15430361
0.07745491 0.026648369 -0.15343916
0.097266108 0.026661649 -0.15257412
0.11709109 0.026675235 -0.15169704
0.13692906 0.026688542 -0.15083081
0.1567935 0.026705638 -0.14972126
-0.10079015 0.046524987 -0.14945525
-0.080804266 0.04642266 -0.15388882
-0.060930289 0.046352953 -0.15690506
-0.041192338 0.04637295 -0.1560424
-0.021441104 0.046392795 -0.15517902
-0.0016765874 0.046412766 -0.15431511
0.018101228 0.046432685 -0.15345085
0.037892357 0.046452656 -0.15258574
0.057696819 0.046472706 -0.15172011
0.077514611 0.046492625 -0.15085381
0.097345769 0.046512648 -0.14998716
0.11719029 0.046532746 -0.14911973
0.13704872 0.046552945 -0.14824021
0.15694197 0.046582509 -0.14696628
-0.10091367 0.066422567 -0.14678079
-0.080906853 0.066285796 -0.15122354
-0.061009683 0.066190265 -0.15432674
-0.04125192 0.066216879 -0.15346235
-0.021480853 0.066243485 -0.15259725
-0.0016964767 0.066270076 -0.15173161
0.018101228 0.066296808 -0.15086544
0.037912272 0.066323496 -0.14999861
0.057736672 0.066350162 -0.14913136
0.077574439 0.066376902 -0.14826351
0.097425587 0.066403687 -0.1473949
0.11729013 0.066430375 -0.14652574
0.13716806 0.066457242 -0.14565605
-0.061254174 0.086273566 -0.14638662
-0.041435681 0.086307503 -0.14550525
-0.06172134 -0.11269888 -0.13121516
-0.041786015 -0.11273282 -0.13033509
-0.021837344 -0.11276714 -0.12944251
-0.0018749312 -0.11280151 -0.12854952
-0.10162666 -0.092739277 -0.13134408
-0.081498057 -0.092600085 -0.13586366
-0.061466426 -0.092488348 -0.13949358
-0.041594706 -0.09251529 -0.13861895
-0.021709716 -0.092542589 -0.13773239
-0.0018110741 -0.092569888 -0.13684505
0.018101228 -0.092596881 -0.13596886
0.038027115 -0.092624284 -0.13508016
0.057966694 -0.092651531 -0.13419116
0.077919699 -0.092678621 -0.133313
0.097886607 -0.092706077 -0.1324228
0.11786725 -0.092733502 -0.13153172
0.13786109 -0.09276057 -0.13065189
-0.14156629 -0.072795957 -0.13085145
-0.1213636 -0.072691388 -0.13538426
-0.10123195 -0.072587386 -0.13988966
-0.081170276 -0.072483666 -0.14437944
-0.0017476231 -0.072467253 -0.1450876
0.018101228 -0.072487324 -0.1442169
0.037963577 -0.072507836 -0.14333403
0.057839528 -0.072528183 -0.14245045
0.07772883 -0.072548255 -0.14157814
0.097631939 -0.072568715 -0.14069349
0.11754869 -0.072589144 -0.13980824
0.13747856 -0.07260929 -0.13893402
0.1574779 -0.072653562 -0.13702011
0.17778827 -0.072803356 -0.13053441
-0.18160249 -0.05286143 -0.12930167
-0.16132012 -0.052792154 -0.13380486
-0.14110877 -0.052723236 -0.13828075
-0.12096654 -0.052654367 -0.14275283
0.15706758 -0.052625336 -0.14463484
0.17731482 -0.052724101 -0.13822234
0.19766301 -0.052823294 -0.13177788
-0.18139471 -0.032870304 -0.13200068
-0.16113377 -0.032835703 -0.1364947
-0.14094298 -0.032801181 -0.14097285
-0.12082197 -0.032766834 -0.14543563
0.17714401 -0.032801002 -0.14099628
0.19746988 -0.032850511 -0.13456553
-0.20149629 -0.012920696 -0.13020581
-0.14077753 -0.012920696 -0.14365947
0.17697284 -0.012920722 -0.14377546
0.21768112 -0.012920696 -0.13091004
-0.18118645 -0.012920671 -0.13470596
-0.160947 -0.012920646 -0.13919044
0.19727637 -0.012920646 -0.1373589
-0.20130558 0.007025349 -0.13245779
-0.1810137 0.0069907485 -0.13695008
-0.16079123 0.0069562504 -0.14143842
0.19711474 0.0069697099 -0.13969165
0.21750155 0.0070192711 -0.13324279
-0.20153506 0.027013119 -0.12974799
-0.1812207 0.026943665 -0.13426125
-0.16097769 0.026874594 -0.13874733
-0.14080472 0.026805878 -0.14321786
0.17700003 0.026803993 -0.14333409
0.19730791 0.026903085 -0.13690346
0.21771637 0.027002335 -0.13045233
-0.18142898 0.046938457 -0.13155526
-0.16116454 0.046834555 -0.13605058
-0.14097022 0.046731085 -0.14053041
-0.12084511 0.046627693 -0.1450063
0.17717053 0.046730321 -0.14056528
0.19750069 0.046879154 -0.13412082
-0.18163778 0.066974819 -0.12884331
-0.16135176 0.066836163 -0.13334823
-0.14113607 0.066697888 -0.13783729
-0.12098971 0.066559821 -0.14232266
0.15709072 0.066501945 -0.14420533
0.17734213 0.066699803 -0.137779
0.19769387 0.066898212 -0.1313324
-0.14165451 0.086926617 -0.12941897
-0.1214405 0.086751938 -0.13395697
-0.10129711 0.086578019 -0.13847911
-0.081223935 0.08640451 -0.14298534
-0.021603623 0.08634147 -0.14462334
-0.0017579012 0.086375028 -0.14375228
0.018101228 0.086408861 -0.14286906
0.037973963 0.086442925 -0.14198524
0.057860129 0.086476609 -0.14111269
0.077760018 0.086510651 -0.14022762
0.09767355 0.08654464 -0.13934195
0.11760029 0.086578429 -0.13846743
0.13754107 0.086612493 -0.13758063
0.15755534 0.086689427 -0.1355831
0.17787795 0.086939692 -0.12907839
-0.061508439 0.10649374 -0.13812912
-0.041626506 0.10653478 -0.13724214
-0.021730749 0.10657528 -0.13636607
-0.10169333 0.10687391 -0.12990063
-0.081552967 0.1066644 -0.13443691
-0.001821598 0.10661621 -0.13547778
0.018101228 0.10665725 -0.13458884
0.038037654 0.10669793 -0.13371122
0.057987787 0.10673904 -0.13282108
0.077951364 0.10677962 -0.13194215
0.097928852 0.10682071 -0.13105088
0.11791964 0.10686134 -0.13017064
0.13792454 0.1069027 -0.12927824
-0.061787494 0.12688449 -0.12906659
-0.062189646 -0.13335703 -0.1160062
-0.04213804 -0.13339929 -0.11509204
-0.022072369 -0.13344152 -0.11417705
-0.0019926187 -0.13348375 -0.1132617
0.018101228 -0.13352552 -0.1123575
0.038209092 -0.13356791 -0.11144072
-0.14262904 -0.11337712 -0.11359477
-0.12229086 -0.11320078 -0.11817634
-0.10202398 -0.11302506 -0.12274182
-0.081828006 -0.1128499 -0.1272912
0.018101228 -0.1128354 -0.12766773
0.038091063 -0.1128699 -0.12677342
0.058094673 -0.11290435 -0.12587857
0.078111798 -0.11293834 -0.12499487
0.098142914 -0.11297281 -0.12409884
0.11818785 -0.11300731 -0.12320209
0.13824607 -0.11304137 -0.1223166
0.15843271 -0.11315744 -0.11930132
0.17888497 -0.11341062 -0.11272639
-0.18284912 -0.093300916 -0.11310714
-0.16243656 -0.093159795 -0.11769032
-0.14209554 -0.093019128 -0.12225753
-0.1218257 -0.092878975 -0.12680882
0.15795337 -0.092836156 -0.1281969
0.1783351 -0.09303765 -0.12165505
0.19881904 -0.093239732 -0.11509204
-0.22308648 -0.073217668 -0.11259544
-0.20259924 -0.073111758 -0.11718059
-0.18218294 -0.073005944 -0.12176138
-0.16183908 -0.072900847 -0.12631422
0.19820075 -0.072953865 -0.1240164
0.21871611 -0.073105194 -0.11746508
-0.24287502 -0.053070836 -0.11569756
-0.22237957 -0.053000748 -0.12024814
-0.2019555 -0.052930936 -0.1247828
0.21811289 -0.052923024 -0.12530136
0.23866421 -0.053023059 -0.11880404
0.25931972 -0.053123679 -0.11226237
-0.26314726 -0.033009823 -0.11386824
-0.24260207 -0.032974817 -0.11842501
-0.22212848 -0.032939859 -0.12296599
-0.20172615 -0.032905083 -0.12749124
0.21789631 -0.032900222 -0.1281147
0.23842581 -0.032950241 -0.12161964
0.2590583 -0.033000462 -0.11509204
-0.26285166 -0.012920696 -0.11661136
-0.24232851 -0.012920722 -0.12115866
-0.22187684 -0.012920722 -0.12569004
0.25879747 -0.012920696 -0.11791563
0.27951059 -0.012920696 -0.11136937
-0.28344664 -0.01292062 -0.11204815
0.23818791 -0.012920646 -0.12442905
-0.28318569 0.0071651479 -0.11430806
-0.26260766 0.0071298881 -0.11887503
-0.24210276 0.0070950584 -0.12341458
-0.22166917 0.0070601525 -0.12793821
0.2379894 0.007069082 -0.12677342
0.25858092 0.0071193045 -0.12025994
0.27927479 0.0071695754 -0.11372554
-0.2835016 0.027292997 -0.11157191
-0.2629028 0.02722273 -0.11613667
-0.24237584 0.027152739 -0.12068576
-0.22191928 0.027082805 -0.12523067
0.23822686 0.027102139 -0.12396908
0.25884128 0.02720258 -0.11744136
-0.26319855 0.047357727 -0.11339259
-0.24264832 0.047252301 -0.11796302
-0.22217102 0.047147404 -0.12250561
-0.201764 0.047042564 -0.1270442
0.21793164 0.04702834 -0.12765592
0.23846585 0.047178801 -0.12114686
0.2591022 0.047329511 -0.11461681
-0.2429273 0.067395747 -0.11517519
-0.22242327 0.067254186 -0.11977488
-0.20199445 0.067114107 -0.12432301
0.21814828 0.067098185 -0.12484169
0.23870635 0.067299344 -0.11830658
0.25937137 0.067502722 -0.11170286
-0.20272481 0.087454878 -0.11569762
-0.18229669 0.087278262 -0.12028366
-0.16193947 0.087101854 -0.12486523
0.19830376 0.087191813 -0.12252921
0.218833 0.087445237 -0.11594689
-0.18296549 0.10771929 -0.11159563
-0.16254009 0.10750683 -0.1161961
-0.14218651 0.10729514 -0.12078029
-0.12190439 0.10708408 -0.12534839
0.1580326 0.10702053 -0.12672639
0.17842686 0.10732353 -0.12016541
0.19892444 0.10762808 -0.11357087
-0.12242061 0.12760116 -0.11576879
-0.10213096 0.12735024 -0.12042552
-0.081913218 0.12709951 -0.12507743
-0.041835941 0.12693261 -0.12817329
-0.021870827 0.12698147 -0.12726766
-0.0018917751 0.12703037 -0.12636149
0.018101228 0.12707858 -0.12546635
0.03810811 0.12712741 -0.12455869
0.058128789 0.12717572 -0.12366223
0.078163564 0.12722477 -0.12275362
0.098212346 0.12727371 -0.12184411
0.1182747 0.12732212 -0.12094593
0.13835146 0.12737113 -0.12003505
0.15856744 0.12754554 -0.11680108
-0.062274158 0.1478301 -0.11326182
-0.042201467 0.14788653 -0.1123457
-0.022114499 0.14794226 -0.11144084
-0.083077483 -0.15457092 -0.094828844
-0.062690489 -0.15430623 -0.099740922
-0.042505331 -0.15433605 -0.09918803
-0.0223174 -0.15438591 -0.098261952
-0.0021151267 -0.15443523 -0.097347438
0.018101228 -0.15448521 -0.09642005
0.038331866 -0.15453514 -0.095492125
0.0585768 -0.15458527 -0.094563425
-0.14367411 -0.13425224 -0.096624792
-0.12318723 -0.1340251 -0.10154217
-0.10277744 -0.1337994 -0.1064291
-0.082443587 -0.13357447 -0.11129797
0.05833108 -0.13361025 -0.11052352
0.078467205 -0.1336527 -0.10960537
0.098617494 -0.1336951 -0.10868675
0.11878194 -0.13373755 -0.1077674
0.13896057 -0.13378009 -0.10684747
0.15932633 -0.13397086 -0.10271764
0.17991811 -0.13428339 -0.095950186
-0.22470874 -0.11409158 -0.095033824
-0.20407498 -0.11390983 -0.099752963
-0.18352072 -0.11373165 -0.10438311
-0.16303885 -0.11355404 -0.10899717
0.19944076 -0.11366493 -0.1061182
0.22010088 -0.11392047 -0.099476457
-0.26522389 -0.093870774 -0.094599545
-0.24452119 -0.093727618 -0.099248111
-0.22389047 -0.09358456 -0.10389203
-0.20333365 -0.09344247 -0.10850763
0.21940657 -0.093442902 -0.10849577
0.24009849 -0.093646966 -0.10186607
0.26089558 -0.093852103 -0.095202744
-0.28518999 -0.073578879 -0.096950054
-0.26427794 -0.073430561 -0.10337687
-0.24364589 -0.073323913 -0.10799438
0.23933515 -0.0732572 -0.11088103
0.26005861 -0.073410027 -0.10426325
0.28088853 -0.073563918 -0.097600281
-0.30568847 -0.053394448 -0.094684005
-0.2841548 -0.05322155 -0.10591489
-0.26344225 -0.053141158 -0.11113113
0.28007919 -0.053225063 -0.10568756
0.30094346 -0.053326726 -0.099079788
-0.3052997 -0.033133212 -0.097840786
-0.28379342 -0.03304702 -0.10904467
0.2797946 -0.033050887 -0.10853165
0.30063543 -0.033101741 -0.10193813
0.32158163 -0.033152752 -0.095311224
0.30032805 -0.012920722 -0.10479021
-0.30491033 -0.012920671 -0.1010021
0.32125065 -0.01292062 -0.09817785
-0.30458683 0.0072472217 -0.10362846
0.30007416 0.0072202282 -0.10714626
0.32097721 0.0072710356 -0.1005457
-0.30497393 0.027463634 -0.10048562
0.27955827 0.027303454 -0.11089283
0.30038098 0.027405016 -0.10429937
0.32130763 0.027506858 -0.097684443
-0.30536342 0.047728989 -0.097323298
-0.28385541 0.047470637 -0.10850787
0.27984357 0.047481399 -0.108042
0.30068976 0.047634043 -0.10143417
0.32164013 0.047787149 -0.094804823
-0.28423354 0.067701928 -0.10523307
-0.26350263 0.067537606 -0.11057115
0.28014144 0.067707121 -0.10506546
0.30101734 0.06791243 -0.098394156
-0.28538617 0.088241749 -0.095250964
-0.26444465 0.087988555 -0.10183007
-0.24379896 0.087810189 -0.10646504
-0.22322614 0.08763238 -0.11108351
0.23946638 0.087699845 -0.10933113
0.26020473 0.087955758 -0.10268176
0.28104883 0.088212997 -0.095998347
-0.24467646 0.10836135 -0.097696364
-0.2240333 0.10814663 -0.10234588
-0.20346208 0.10793201 -0.10699087
0.21952517 0.10793376 -0.10695511
0.24023269 0.10824195 -0.1002816
-0.20431028 0.1286139 -0.096974134
-0.1837274 0.12835935 -0.10169804
-0.16321842 0.12810567 -0.1064052
-0.14278296 0.1278529 -0.11109531
0.17904927 0.12790889 -0.11005855
0.19963732 0.12827404 -0.10328102
0.22033246 0.1286412 -0.09646827
-0.14376169 0.14894226 -0.095202744
-0.12328362 0.14866197 -0.099752843
-0.10287637 0.14838275 -0.10428739
-0.082539037 0.14810371 -0.10881805
-0.0020136982 0.14799862 -0.1105234
0.018101228 0.14805526 -0.10960549
0.038230203 0.14811102 -0.10869867
0.058373325 0.14816767 -0.10777932
0.078530617 0.14822438 -0.10685951
0.098702103 0.14828101 -0.10593873
0.11888778 0.14833778 -0.10501772
0.13908766 0.14839454 -0.10409564
0.15948609 0.14866197 -0.099752843
-0.062780134 0.16906232 -0.096829653
-0.042571202 0.16909653 -0.096335649
-0.022361344 0.16916095 -0.095407784
-0.0021372065 0.16922525 -0.094479203
-0.1446998 -0.15537165 -0.079969645
-0.12408133 -0.1551033 -0.084949434
-0.10354095 -0.15483667 -0.089898348
0.078836046 -0.15463531 -0.093634248
0.09910962 -0.15468535 -0.092704296
0.11939754 -0.15473555 -0.091773689
0.1396998 -0.1547858 -0.090842426
0.16024908 -0.15506862 -0.085593402
0.18097818 -0.15543804 -0.07873708
-0.22632702 -0.13513482 -0.077515483
-0.20555204 -0.13491334 -0.082309842
-0.1848522 -0.13469285 -0.087086558
-0.16422795 -0.13447349 -0.091834128
0.20061652 -0.13459757 -0.089147508
0.22142237 -0.13491334 -0.082309842
-0.26620105 -0.11445715 -0.085532725
-0.24541806 -0.11427425 -0.090285838
0.24087533 -0.11418162 -0.092692316
0.26175746 -0.11444412 -0.085872829
0.28274813 -0.114708 -0.079017878
-0.28635415 -0.094108753 -0.086868167
0.28179869 -0.09405835 -0.088505507
0.30280855 -0.094265595 -0.081773877
-0.30683061 -0.073845431 -0.085411251
0.30182341 -0.073718272 -0.090915203
0.32286516 -0.073873438 -0.084195852
0.34401456 -0.074029446 -0.07744211
-0.32740775 -0.053568874 -0.0833565
0.32191336 -0.053429049 -0.0924384
0.34298968 -0.053531755 -0.085763514
0.36417156 -0.053634867 -0.079066575
-0.32699108 -0.033220172 -0.08654052
0.34263402 -0.033203989 -0.088650882
0.36379179 -0.033255432 -0.081968725
-0.34842435 -0.012920696 -0.078358412
-0.32657382 -0.012920722 -0.089729011
0.34227771 -0.012920646 -0.091543972
0.36341283 -0.012920671 -0.084864557
-0.34804904 0.0074210623 -0.081067204
-0.32622555 0.0073338235 -0.09239006
0.34198603 0.0073220963 -0.093911946
0.363103 0.0073735127 -0.087232232
-0.34849036 0.027811769 -0.077882171
-0.32663879 0.02763699 -0.089232385
0.34234172 0.027609386 -0.091023862
0.36348286 0.027712345 -0.084329545
-0.3270562 0.047989484 -0.086042881
0.34269825 0.047941197 -0.088129699
0.36386195 0.048095878 -0.08143276
-0.32750809 0.068399169 -0.082589924
-0.30577767 0.068049096 -0.093960166
0.32199991 0.068118937 -0.091688991
0.34308994 0.068326436 -0.084949493
0.36428821 0.068535022 -0.078175247
-0.30700579 0.088675313 -0.083989143
0.30199954 0.08847148 -0.089280844
0.32305905 0.08873187 -0.08251673
-0.28654903 0.1089394 -0.085180342
-0.26539299 0.10857679 -0.093030453
0.26104495 0.10855111 -0.093585908
0.28196374 0.10886203 -0.086856067
0.30298987 0.1091744 -0.080091655
-0.26650771 0.12938373 -0.08268708
-0.24570058 0.12912647 -0.087462723
-0.22496858 0.12887006 -0.092221022
0.24113548 0.12901026 -0.089619994
0.2620461 0.12938045 -0.082748055
-0.20566241 0.1498165 -0.081006229
-0.18495218 0.14952211 -0.085787833
-0.16431592 0.14922789 -0.090564191
0.18010463 0.14908265 -0.092921674
0.20083079 0.1495056 -0.086054862
0.22166544 0.1499307 -0.079152167
-0.1447915 0.17033353 -0.078480542
-0.1241816 0.17001437 -0.083088875
-0.10364337 0.16969627 -0.087681115
-0.083176464 0.16937912 -0.092257261
0.018101228 0.16928962 -0.093549788
0.03835398 0.16935399 -0.092619717
0.058621056 0.16941844 -0.091688991
0.078902476 0.16948299 -0.090757668
0.099197879 0.16954683 -0.089837968
0.11950794 0.16961144 -0.088905334
0.13983239 0.16967604 -0.087971926
0.16041684 0.17005658 -0.082480192
-0.10468512 -0.1766358 -0.065126657
-0.084015071 -0.17630672 -0.070469737
-0.063427567 -0.17597836 -0.075803518
-0.043039724 -0.17596319 -0.076048255
-0.0226741 -0.17602199 -0.075093508
-0.0022938848 -0.17608164 -0.074125946
0.018101228 -0.17614199 -0.073145449
0.038511351 -0.17620176 -0.072176337
0.058936588 -0.17626218 -0.07119441
0.079376683 -0.17632186 -0.070223987
0.099832118 -0.17638248 -0.06924051
0.12030272 -0.17644311 -0.068256319
0.14078794 -0.176503 -0.06728369
0.16162169 -0.17694412 -0.060121179
-0.20702273 -0.15618142 -0.064941645
-0.18616921 -0.15590997 -0.069978118
-0.16539539 -0.15564032 -0.074983418
0.20181529 -0.15580942 -0.071844995
0.22276129 -0.15618274 -0.064916909
-0.26810542 -0.13558072 -0.067862391
-0.24717759 -0.13535701 -0.072703838
0.24233653 -0.13523079 -0.075436234
0.26335979 -0.13554996 -0.068526924
0.28449306 -0.1358708 -0.061581492
-0.30947646 -0.11528877 -0.063929498
-0.2875993 -0.11482088 -0.076084912
0.30384821 -0.11497319 -0.072127342
0.32505852 -0.11523982 -0.065200567
-0.33000502 -0.094828025 -0.063509703
-0.30808336 -0.094466783 -0.075240433
0.32392749 -0.094474316 -0.074995577
0.34515357 -0.094683826 -0.068194747
-0.35068223 -0.074384607 -0.062063873
-0.32866225 -0.074114218 -0.073770642
0.36540762 -0.074210078 -0.069621742
-0.37141448 -0.053922251 -0.060393691
-0.34931669 -0.053744901 -0.071918666
0.38643804 -0.053847075 -0.065286934
-0.37093884 -0.033396505 -0.063645601
-0.34886998 -0.033307996 -0.075142562
0.38595498 -0.033356994 -0.068772972
-0.37046438 -0.012920773 -0.066889405
0.38547492 -0.012920696 -0.07223767
-0.37006298 0.0075089866 -0.069633901
0.38508257 0.0074672112 -0.075068951
0.40757346 0.0075778561 -0.060690761
-0.37053284 0.027988181 -0.06642133
0.38556334 0.027908396 -0.071599424
-0.37100568 0.048517235 -0.063188553
-0.34893614 0.048252214 -0.07466495
0.38604534 0.048403334 -0.068120778
-0.34942555 0.068751939 -0.071132898
0.38660559 0.068969205 -0.064077795
-0.32881144 0.089112498 -0.072630286
0.34422547 0.088993154 -0.075730026
0.36567813 0.089307912 -0.067554653
-0.35080561 0.089553364 -0.061173201
-0.33015057 0.10999172 -0.062397659
-0.30825531 0.10946303 -0.073844135
0.32412416 0.10948849 -0.073292494
0.34536746 0.10980418 -0.066458225
-0.30972913 0.13050503 -0.061878324
-0.28790897 0.12988408 -0.073402882
0.28306738 0.12975341 -0.075827956
0.3041991 0.13012829 -0.068871498
0.32544214 0.13050503 -0.061878324
-0.26826736 0.15071844 -0.06635952
-0.24730898 0.15040872 -0.071390808
-0.2264479 0.15011206 -0.076207221
0.24260841 0.15035717 -0.072225392
0.26366252 0.15078682 -0.06524992
-0.20705618 0.17129891 -0.064546704
-0.18622884 0.17097639 -0.069203436
-0.16547348 0.17065403 -0.073856354
0.18117316 0.17053521 -0.075571001
0.20203835 0.1710164 -0.06862545
0.22301424 0.17150104 -0.061631024
-0.084196515 0.19167478 -0.065755665
-0.063592188 0.19131285 -0.070457399
-0.043162599 0.19129211 -0.070727587
-0.022756642 0.19136867 -0.069732308
-0.0023352802 0.19144438 -0.068748355
0.018101228 0.19152109 -0.067751586
0.038553089 0.19159795 -0.066753983
0.059019946 0.19167291 -0.065780222
0.079502091 0.1917488 -0.064793468
0.099999458 0.19182479 -0.063805938
0.12051158 0.19190001 -0.06283021
-0.10487399 0.19203791 -0.061037123
0.14105417 0.19200081 -0.061519623
-0.064350903 -0.19843796 -0.045817494
-0.043707825 -0.19834785 -0.047118485
-0.023120018 -0.19841635 -0.046130359
-0.0025170092 -0.19848482 -0.045141399
0.018101228 -0.19855341 -0.044151843
0.038734704 -0.19862196 -0.043161571
-0.16719955 -0.1776325 -0.048942804
-0.14627674 -0.17729865 -0.05436343
-0.12543926 -0.17696692 -0.059749722
0.18257114 -0.17739068 -0.052870095
0.20363501 -0.17783961 -0.045579672
-0.27033427 -0.15713847 -0.047180951
-0.24896072 -0.15672326 -0.054885566
-0.22795443 -0.15645324 -0.059898317
0.24381703 -0.15655798 -0.057952523
0.26498336 -0.15693529 -0.05095154
0.28626117 -0.15731449 -0.043913722
-0.28998259 -0.13615422 -0.055444837
0.3057372 -0.13619332 -0.054599583
0.32709306 -0.13651736 -0.047581077
-0.33155549 -0.11576089 -0.051662087
0.34637997 -0.11550774 -0.058237791
0.36844417 -0.11596278 -0.046418011
-0.3521218 -0.095192418 -0.051674604
0.36685356 -0.094980158 -0.058572412
0.38939786 -0.095431134 -0.043926239
-0.37288669 -0.074655704 -0.050328016
0.38785002 -0.074545547 -0.055096805
-0.39370519 -0.054101333 -0.048767984
0.40901616 -0.054069683 -0.050826907
-0.39320016 -0.033485699 -0.052048385
0.40850255 -0.033468097 -0.054338455
-0.41512075 -0.012920722 -0.043662965
-0.39269444 -0.012920722 -0.055332899
0.40798846 -0.01292062 -0.057853341
0.43074954 -0.012920671 -0.043299437
-0.41466525 0.0076872027 -0.046480596
-0.39226821 0.007597751 -0.058101356
0.43030792 0.0076895943 -0.046167791
-0.41519371 0.028345451 -0.043211639
-0.39276522 0.028165936 -0.054873168
0.40808642 0.028130319 -0.057183325
-0.3932673 0.048784595 -0.051612198
0.40860078 0.048737176 -0.05366683
-0.39383981 0.069467522 -0.047893405
-0.37153584 0.069108114 -0.059563875
0.4092187 0.069419816 -0.049441993
-0.3730053 0.090002097 -0.049517095
0.38814646 0.089869648 -0.052957416
-0.35223579 0.11052503 -0.050851822
0.3671312 0.11026634 -0.056450903
-0.33173984 0.13113151 -0.050253212
0.34679744 0.13088392 -0.054848313
-0.31199583 0.15212774 -0.043474913
-0.29003856 0.15142056 -0.054960132
0.28482646 0.15121797 -0.058250129
0.30610216 0.15165123 -0.051213264
0.32749194 0.15208763 -0.044126809
-0.27026561 0.17245799 -0.047818422
-0.24893709 0.1719519 -0.055121779
-0.22795673 0.17162278 -0.059873462
0.24409989 0.17198725 -0.054612041
0.26529703 0.17247607 -0.047555983
-0.18813899 0.1933195 -0.044389844
-0.1673476 0.19313347 -0.046805739
-0.14644924 0.19276738 -0.05156225
-0.12562436 0.19240162 -0.056314468
0.16194066 0.1925642 -0.054201722
0.18294232 0.19313066 -0.04684341
-0.085566714 -0.19952309 -0.030156732
0.059383251 -0.1986898 -0.042182982
0.080047168 -0.1987585 -0.041191161
0.10072637 -0.19882737 -0.040198684
0.1214209 -0.19889608 -0.039205372
0.14222032 -0.19909939 -0.036271572
0.1633053 -0.19961157 -0.028877318
0.22481418 -0.17829104 -0.038249135
0.2461096 -0.17874503 -0.030878365
-0.29239315 -0.15781815 -0.034568846
0.30765131 -0.15769583 -0.03683871
0.32915622 -0.15807974 -0.029713631
-0.33435488 -0.13731703 -0.030270696
-0.31206378 -0.13673255 -0.042923331
0.34859407 -0.1368556 -0.040261388
-0.37633023 -0.11671852 -0.02678436
-0.35383913 -0.11623739 -0.039280832
0.39114094 -0.11654282 -0.031346679
-0.39695105 -0.095931128 -0.027685285
-0.37443626 -0.095560141 -0.039733589
0.4121913 -0.095887013 -0.029118121
-0.41789037 -0.075205185 -0.026530564
-0.39528784 -0.074928969 -0.038488328
0.41053942 -0.074884653 -0.040412366
-0.41619137 -0.054281838 -0.037040293
0.43184319 -0.05429494 -0.036195874
-0.43831024 -0.033666663 -0.028547823
-0.41565642 -0.033575814 -0.040349483
0.43129468 -0.033580344 -0.039758623
-0.43774197 -0.012920722 -0.031903088
0.45375851 -0.012920722 -0.028598487
-0.43726063 0.0077775707 -0.034745634
0.4532938 0.0078028059 -0.031473041
-0.43781912 0.028526589 -0.031447709
0.43085575 0.028354734 -0.042609572
0.45387331 0.02858144 -0.027888298
-0.43837678 0.049326342 -0.028154731
-0.4157235 0.049054325 -0.039934695
0.4314031 0.049074575 -0.039054453
-0.41634008 0.06983006 -0.036120355
0.43208206 0.069875494 -0.034644425
-0.39539829 0.090454161 -0.037770689
0.41086316 0.090437755 -0.038198769
-0.39698428 0.1116049 -0.027469754
-0.37451166 0.11106227 -0.039217889
0.38970202 0.11094625 -0.04173106
0.41252151 0.11163317 -0.026860595
-0.37634322 0.1324009 -0.02669549
-0.35394371 0.1317635 -0.038526058
0.36898527 0.13156091 -0.042283237
0.39173439 0.13238107 -0.027063608
-0.33414456 0.15284203 -0.031877756
0.34910724 0.15258229 -0.036095023
-0.29219654 0.17325793 -0.036271691
0.28660652 0.17296763 -0.040462673
0.30803066 0.17346253 -0.033318758
0.32956776 0.17395929 -0.026149452
-0.27234927 0.19454391 -0.028484344
-0.25070876 0.19385615 -0.037418067
-0.22981599 0.19367693 -0.039746046
-0.20895946 0.19349809 -0.04207015
0.20406006 0.19370025 -0.039444268
0.22529489 0.19427298 -0.032004356
-0.18939269 0.21532263 -0.028103948
-0.16848089 0.21512413 -0.03044796
-0.14760543 0.21492599 -0.032788157
-0.12676622 0.21472816 -0.035124063
-0.10596258 0.21452962 -0.037468553
-0.085195683 0.21433255 -0.039796412
-0.0644833 0.2141868 -0.041517735
-0.04388766 0.21437189 -0.039331019
-0.023242133 0.21446778 -0.038198769
-0.0025792737 0.21456486 -0.037052929
0.018101228 0.2146609 -0.035918534
0.038799204 0.21475701 -0.034783483
0.059514672 0.21485318 -0.03364706
0.080247648 0.21494947 -0.032509923
0.10099856 0.2150469 -0.031359196
0.12176674 0.21514341 -0.030220211
0.14268668 0.2154859 -0.026174903
-0.10705049 -0.20064828 -0.013914824
0.18450661 -0.2001268 -0.021442235
0.20582525 -0.20064476 -0.013965964
-0.19024849 -0.17960042 -0.016987145
0.26752344 -0.17920214 -0.023454428
0.28905568 -0.17966186 -0.015989304
-0.31465933 -0.15850349 -0.021849871
0.35122782 -0.15866362 -0.018878162
-0.35685739 -0.13790694 -0.017498314
0.37123132 -0.1375549 -0.025120497
0.3941237 -0.13826148 -0.0098203421
-0.39903173 -0.11720385 -0.014171124
0.41409472 -0.11712954 -0.01610446
-0.41966683 -0.096305117 -0.015541315
0.43523809 -0.096348085 -0.014145494
-0.44069296 -0.075483456 -0.014478564
0.43347991 -0.075227521 -0.025565326
0.45667568 -0.075574234 -0.010552764
-0.46176055 -0.054647785 -0.013273835
-0.43887559 -0.054464072 -0.025209308
0.45491949 -0.054522488 -0.021416783
-0.46116197 -0.033758175 -0.016654551
0.45433924 -0.033693913 -0.025005996
0.4776364 -0.0338086 -0.010103226
-0.46056485 -0.012920722 -0.020026863
0.47702128 -0.012920722 -0.013735414
-0.48305321 0.0079607451 -0.010951042
-0.4600549 0.0078686485 -0.022907019
0.47653335 0.0079171387 -0.016616225
-0.46064168 0.028709158 -0.01959306
0.47714719 0.028810769 -0.012991667
-0.46123219 0.049601056 -0.016257882
0.45445433 0.049415436 -0.02429384
0.47776267 0.049760371 -0.0093574524
-0.46193767 0.070564315 -0.012273312
-0.43903708 0.07019534 -0.024255812
0.45519984 0.070336238 -0.019682407
-0.44078407 0.091371447 -0.013940454
-0.41799095 0.090910755 -0.025908172
0.43383038 0.091011554 -0.023288846
-0.41965649 0.112153 -0.01560533
0.43559745 0.11232816 -0.011811256
-0.39894101 0.13304406 -0.014760375
0.4147414 0.13321 -0.011683106
-0.35648581 0.1535625 -0.020179927
0.37179607 0.15352391 -0.020804882
-0.33663458 0.17488056 -0.012850642
-0.31431916 0.17406583 -0.02461195
0.35176814 0.17476693 -0.01449132
-0.29444993 0.19544668 -0.016756833
0.24664776 0.19484885 -0.024522901
0.26811969 0.19542804 -0.016999781
0.28971162 0.19601035 -0.0094347
-0.25240067 0.21596546 -0.020511568
-0.23132685 0.2157217 -0.02339071
-0.21034199 0.21552254 -0.025743008
0.16390331 0.21619681 -0.017779469
0.18525243 0.21691221 -0.0093318224
-0.12879495 -0.20178726 0.0025244951
0.22727609 -0.20117819 -0.0062679052
0.24890295 -0.20175855 0.0021095276
0.31070593 -0.18012346 -0.0084955692
0.3326079 -0.18065766 0.00017857552
-0.33746231 -0.15932927 -0.0065255165
0.37406147 -0.15949257 -0.0034940243
-0.40246871 -0.13909172 0.0081527233
-0.37956488 -0.13849956 -0.0046687126
0.41727909 -0.13897689 0.0056672096
-0.42194661 -0.11769403 -0.0014390945
0.43730989 -0.11772291 -0.00068867207
-0.44257072 -0.096679278 -0.0033906698
0.45854247 -0.096814215 0.00099468231
-0.46370253 -0.075764656 -0.0023053885
0.4801333 -0.075925119 0.00464046
-0.48550928 -0.054888256 0.0023428202
0.47825319 -0.054752782 -0.0064611435
-0.48459798 -0.033866554 -0.0025897026
0.5011946 -0.033924766 0.0049784184
0.50054431 -0.012920722 0.0013056993
-0.48376608 -0.012920671 -0.0070924759
0.50002855 0.0080326432 -0.0016071796
-0.48385417 0.028908819 -0.0066156387
0.50067747 0.029042438 0.0020576715
-0.48465526 0.049923852 -0.00227952
0.50133038 0.050109118 0.0057454109
-0.48555958 0.071022794 0.0026153326
0.47857639 0.070802115 -0.004552722
-0.46378031 0.091836177 -0.0018658638
0.45705613 0.091592349 -0.0081996918
0.4805429 0.092179686 0.0070590973
-0.44254446 0.11270996 -0.0035456419
0.45893243 0.11303101 0.0034068823
-0.42174175 0.13369362 -0.0027059317
0.43801439 0.1340488 0.0038872957
-0.40181196 0.1550446 0.0038871765
-0.37904659 0.15429944 -0.0082125664
0.39474636 0.15447713 -0.0053266287
-0.35914356 0.17570162 -0.00099921227
0.37476084 0.17589907 0.0018502474
-0.33923498 0.19727704 0.0070202351
-0.31674373 0.19635743 -0.0049268007
0.31142461 0.19659603 -0.0018271208
-0.29675272 0.21797219 0.0031862259
-0.2744799 0.21696439 -0.0087143183
0.20673527 0.21763197 -0.00083100796
0.2283531 0.21835639 0.0077229738
-0.25438961 0.23860928 -0.00063705444
-0.23285623 0.23803681 -0.0068347454
-0.2118624 0.23794866 -0.0077877045
-0.19125831 0.23831075 -0.0038685799
-0.17059469 0.23867381 6.210804e-05
-0.14987125 0.23903793 0.0040041208
-0.12905122 0.23934072 0.0072802305
-0.045022488 -0.22333312 0.0098081827
-0.023998922 -0.22342137 0.010956049
-0.0029576924 -0.22350983 0.012105107
0.018101228 -0.2235985 0.013255358
0.039177865 -0.22368704 0.014406204
0.060272232 -0.22377574 0.015558243
0.081384368 -0.2238645 0.016711116
0.10251427 -0.22395334 0.017865062
0.12366198 -0.22404219 0.019019842
0.27066234 -0.20234159 0.010525584
0.29255787 -0.20292915 0.019006848
0.35558221 -0.1816612 0.016475201
-0.36153224 -0.160556 0.016239405
0.39715639 -0.16033103 0.012066007
-0.42558953 -0.13968951 0.021095872
0.44070029 -0.13970041 0.021332502
-0.44507784 -0.11818866 0.011412978
0.46079096 -0.11832299 0.014903545
-0.46568108 -0.097056724 0.0088694096
0.48210874 -0.097285718 0.016304851
-0.48833823 -0.076225631 0.017655253
0.50385278 -0.076279566 0.019991755
0.50184429 -0.054985389 0.0086479187
0.52570164 -0.055220667 0.023939133
-0.5101223 -0.03404963 0.021201015
0.52501369 -0.034042049 0.020215154
-0.50924057 -0.012920773 0.016619444
0.52432752 -0.012920722 0.016501546
-0.50836426 0.0081378678 0.012066007
0.52378815 0.0081496211 0.013581991
-0.50912708 0.029257517 0.016029835
0.52447283 0.029277056 0.01728797
-0.50997555 0.0504485 0.020438671
0.52515936 0.050461575 0.021003962
-0.51082683 0.071707822 0.024861813
0.50221598 0.071273133 0.010747433
-0.4879775 0.092512406 0.015702128
0.50429517 0.092773639 0.022490501
-0.46563494 0.11327135 0.0086086988
0.48252851 0.1137413 0.018783569
-0.46825588 0.13510098 0.023411989
-0.4447442 0.13434838 0.0094429255
0.46155405 0.13489686 0.019623995
-0.42478117 0.15579635 0.0160954
0.41795912 0.15544055 0.01031673
-0.40476125 0.17736742 0.023043394
-0.38185212 0.17653081 0.010969162
0.39803082 0.17704409 0.018376708
-0.36192295 0.19820377 0.0190593
0.33355123 0.19737926 0.0083483458
0.35662654 0.19865766 0.024953961
-0.31922168 0.21898882 0.015191436
0.2501072 0.21908532 0.016331196
0.27200007 0.21981992 0.025006652
-0.277141 0.24014404 0.015977263
-0.10814981 0.23958144 0.0098862648
-0.087207958 0.23982129 0.012484074
-0.066226669 0.24006304 0.015099883
-0.2352664 0.26156092 0.019256234
-0.21437505 0.26182392 0.021885157
-0.1934436 0.26208758 0.024518967
0.14513963 -0.2246514 0.026933312
0.31458679 -0.20351855 0.027514338
0.37883484 -0.1826777 0.032981157
-0.40771523 -0.16195655 0.042230129
-0.38510659 -0.16147099 0.033220172
0.42051703 -0.16117911 0.027804971
-0.44893056 -0.14029291 0.034162164
0.46439409 -0.140433 0.037192225
-0.46936849 -0.11889236 0.029695868
0.48454472 -0.1189306 0.030688643
-0.4911992 -0.097804137 0.033140421
0.50594133 -0.09776254 0.03178823
0.52784073 -0.07663808 0.035516858
-0.51142126 -0.05528244 0.027950406
0.54982507 -0.055458646 0.039389133
0.54910028 -0.034160607 0.035623193
0.54837757 -0.012920722 0.031867623
-0.5351637 -0.01292062 0.040748715
-0.53423625 0.0083230799 0.036114931
0.54781449 0.0082678711 0.028941989
-0.53482753 0.029612318 0.039069295
0.5485357 0.029514015 0.032689571
0.54925889 0.050818264 0.036447287
0.52612317 0.071749598 0.02622056
0.55030245 0.072231501 0.04186976
-0.51321512 0.093342654 0.037271857
0.52831739 0.093374304 0.038097143
-0.49043328 0.11421288 0.028994799
0.50639462 0.11446022 0.03434813
0.48536688 0.13575469 0.035543561
-0.44795692 0.15655495 0.028413177
0.44144064 0.15641502 0.026141167
0.46519554 0.15740095 0.042150021
-0.42787141 0.17821044 0.035211205
0.42158473 0.17820308 0.03510499
-0.38481188 0.19913886 0.031205177
0.37998405 0.19995151 0.041762948
-0.3425023 0.22041094 0.031986952
0.29403338 0.22056033 0.033750772
-0.30023453 0.24174792 0.0333395
-0.25798506 0.26316559 0.035290956
-0.17247102 0.26235032 0.027144551
-0.15145916 0.26261497 0.029788613
0.16727887 -0.22603159 0.044862986
0.33788195 -0.20478921 0.045853376
0.4023675 -0.18370573 0.049673915
-0.43047217 -0.1624451 0.051299214
0.44414803 -0.16203706 0.043726325
0.48836097 -0.14117338 0.053222537
0.50857157 -0.11954468 0.046643257
0.53004485 -0.0982446 0.047447443
-0.51442385 -0.076823749 0.043552637
0.5527283 -0.077075973 0.054474831
-0.53782469 -0.055684209 0.054043889
-0.53610498 -0.034236319 0.04545176
0.57470715 -0.012920722 0.057441592
0.5739705 0.0084588835 0.053761005
0.57504511 0.029921073 0.059129953
-0.5357222 0.050981954 0.043539286
-0.53662515 0.072421804 0.048050761
0.55364501 0.094188064 0.059238076
-0.51581389 0.11521897 0.05077517
0.53053313 0.11518732 0.050090313
-0.49316484 0.13619864 0.04377985
0.50946015 0.13662331 0.051662087
-0.47231457 0.15765868 0.04633534
0.48922873 0.15839836 0.058346391
-0.45155984 0.17921332 0.049687505
0.44542986 0.17937714 0.052052259
-0.4086403 0.20045006 0.048238277
0.40362531 0.20125932 0.058751583
-0.36612228 0.22188248 0.049365282
0.31653005 0.22155915 0.045545459
-0.32362428 0.24337336 0.05093646
-0.28112164 0.26492912 0.05291307
-0.13152179 0.26495072 0.053128362
-0.23877136 0.28676397 0.057198405
-0.21652827 0.28569856 0.047313333
0.18979299 -0.22753541 0.064397693
0.36154822 -0.20610973 0.064913392
-0.39083287 -0.18510354 0.072370887
-0.21889992 -0.18528517 0.075321198
0.42618686 -0.18474627 0.066570044
0.46806511 -0.16290866 0.059900641
-0.47534445 -0.1416457 0.06344831
0.51260781 -0.1419224 0.069440365
-0.49622071 -0.12007111 0.06032002
0.53288084 -0.12016648 0.062797666
-0.51763517 -0.098638579 0.060238719
0.5558784 -0.098964989 0.070843339
-0.5410071 -0.077433221 0.069944143
0.57683355 -0.055900101 0.068065643
-0.56256503 -0.034426924 0.070202947
0.57576835 -0.034369428 0.062743545
-0.56154746 -0.012920671 0.065307021
-0.56056714 0.0085114455 0.060590506
-0.56097806 0.029973991 0.062567353
-0.5619089 0.051524915 0.067045689
0.57612383 0.051466607 0.064519763
-0.56285971 0.07314764 0.071620464
0.57800126 0.073217757 0.073899984
-0.53893739 0.094202161 0.059603095
-0.54159933 0.11624105 0.072903037
-0.51852435 0.13733444 0.064859033
0.53438997 0.13766348 0.070966125
-0.49731266 0.15888393 0.066230416
0.51354259 0.15940671 0.074719787
-0.47643915 0.18059514 0.069630861
0.4695676 0.18056487 0.069195151
-0.43282664 0.20180681 0.065863848
0.42755684 0.20258224 0.075936794
-0.39004406 0.22337395 0.066977859
0.34009847 0.22321063 0.065048933
-0.34731281 0.2450186 0.068745971
-0.068170778 -0.22860071 0.078236818
0.21262613 -0.22905944 0.084196091
-0.154842 -0.20748192 0.084719181
0.38554075 -0.20744744 0.084223747
-0.41378263 -0.18567432 0.081639051
-0.37057143 -0.1856641 0.081474304
-0.34907201 -0.18570814 0.082188606
-0.32756159 -0.18575209 0.082903385
-0.30603865 -0.18579528 0.083604574
-0.28444117 -0.18580209 0.083714724
-0.26255044 -0.18562944 0.08091116
-0.24070339 -0.18545723 0.078113437
0.45029831 -0.18579952 0.083673477
-0.45758128 -0.16427423 0.085242391
0.49237689 -0.16382663 0.076935768
0.53834116 -0.14298065 0.092352271
-0.52367693 -0.12127633 0.091632843
0.5596292 -0.12122633 0.090333104
-0.54470921 -0.099507011 0.088440895
0.57991338 -0.077745177 0.083453298
-0.56473368 -0.056093708 0.080636859
0.60349202 -0.034601856 0.092933655
-0.58842206 -0.012920722 0.090388417
0.60237175 -0.012920722 0.087544084
-0.58736932 0.0087031713 0.085504055
0.60173029 0.0086951824 0.084457636
-0.58757418 0.030341819 0.086454749
0.60287964 0.030396212 0.089987516
-0.58855015 0.052077703 0.090982795
-0.56512767 0.09508466 0.082532048
0.58161974 0.09544827 0.091978669
0.55704033 0.11642473 0.076880932
-0.54437238 0.1385145 0.086758018
-0.52274138 0.16014899 0.086771846
-0.50168139 0.18199766 0.089877129
0.49400306 0.18176645 0.08653748
-0.45739713 0.20321485 0.084154963
0.45178798 0.20392267 0.093349218
-0.41426957 0.22488327 0.084801674
0.36400124 0.22488561 0.08482933
-0.30583388 0.26782307 0.081831336
0.23578054 -0.23060013 0.10420823
-0.17748095 -0.20850287 0.099456549
0.40986788 -0.2088041 0.10380352
0.47470713 -0.18686579 0.10098767
0.51737863 -0.16487475 0.096385717
-0.50313532 -0.14322992 0.09774673
0.58325845 -0.099867977 0.1001662
-0.56830722 -0.07807719 0.097829938
-0.59216291 -0.056510996 0.10774386
0.6046223 -0.056366745 0.098372221
-0.58950239 -0.034620736 0.095400691
0.60402203 0.052181609 0.095483661
-0.5895443 0.073885791 0.095594764
0.60629988 0.074219882 0.10644317
-0.59175301 0.095981821 0.10584223
-0.56782246 0.11728454 0.095497727
0.5852347 0.11795629 0.11004043
-0.5707286 0.13973893 0.1094799
0.56329513 0.13973358 0.10938179
-0.54872388 0.16148703 0.10849965
0.54122353 0.16145344 0.10795367
-0.52728963 0.18341993 0.11040485
-0.48228949 0.20464052 0.10267365
-0.43965572 0.2268568 0.10810757
0.38824373 0.2265833 0.10487843
-0.37409514 0.24854353 0.10690451
0.25926855 -0.23216383 0.12452161
-0.20103504 -0.21014336 0.12313473
0.43454084 -0.21018156 0.12368655
-0.44055796 -0.18764809 0.11368906
0.49990413 -0.18812175 0.12138176
0.54391593 -0.16628331 0.12252665
0.56528395 -0.14424457 0.11971569
-0.55223119 -0.12260003 0.12602329
0.58714581 -0.12235234 0.11958873
-0.57299691 -0.10049077 0.12039328
-0.59618545 -0.07873708 0.12640584
0.60774165 -0.078436263 0.11337984
-0.61693013 -0.034818362 0.12105691
0.6318261 -0.034839425 0.12379968
-0.61578757 -0.012920722 0.11593902
0.63065398 -0.012920671 0.11836159
-0.61465544 0.0088985087 0.1108675
0.6301105 0.0089368215 0.11584044
-0.6146304 0.030715957 0.11075532
0.63133544 0.030881733 0.12152302
-0.61565876 0.052640669 0.11536217
0.63254988 0.052913092 0.12715757
-0.61669374 0.074637175 0.11999798
0.61026055 0.096738338 0.12549889
-0.59459442 0.11837118 0.11902452
0.52155429 0.18408267 0.11996973
-0.50751239 0.20608492 0.12143838
0.47632015 0.2052788 0.11096573
0.41283679 0.22830653 0.12522972
-0.24630751 -0.21122733 0.13877964
-0.22360924 -0.21068381 0.13093555
0.45956102 -0.21157765 0.14383674
-0.48680788 -0.16658865 0.12819338
-0.53331238 -0.14525998 0.14169991
0.61121917 -0.10079002 0.1301111
0.636244 -0.079150297 0.14429593
-0.62036341 -0.056952704 0.1364361
0.63302416 -0.056843765 0.12935793
-0.64365792 -0.01292062 0.1419723
-0.6424619 0.0090979664 0.13679326
-0.64215857 0.031096607 0.13547993
-0.64324117 0.053213499 0.14016747
0.63526773 0.075245932 0.13976681
-0.61882448 0.096894093 0.12954247
-0.62181699 0.11947621 0.14294732
0.61410481 0.11952459 0.14399457
-0.59751147 0.14098249 0.13255811
-0.57511425 0.16284685 0.13058007
-0.55327421 0.18486315 0.13123441
-0.53307527 0.20754988 0.14046812
-0.46565479 0.22895733 0.13291407
-0.35947734 -0.21281527 0.16170001
-0.33696106 -0.2126433 0.15921736
-0.31448182 -0.21247053 0.15672457
-0.29204297 -0.21229917 0.15425062
-0.26912946 -0.21177268 0.14665246
0.52645427 -0.18973924 0.14764488
-0.51422697 -0.1681831 0.15778208
0.57120776 -0.16779059 0.15049684
0.59278131 -0.14553919 0.14774573
0.61524057 -0.12350202 0.14945912
-0.60231805 -0.10155202 0.15485775
0.63978869 -0.10173327 0.16074145
-0.62463415 -0.07941056 0.15556657
0.66205335 -0.057331167 0.16101718
-0.6454069 -0.035037667 0.14954555
0.66079777 -0.035082646 0.15539289
0.65956646 -0.01292062 0.14987695
0.65913236 0.0091838064 0.14793277
0.66042984 0.031377785 0.15374458
0.66172612 0.053661264 0.15955102
-0.64462256 0.075442389 0.14614928
0.63957274 0.098056294 0.15973973
-0.6248377 0.14227135 0.15647852
0.59300035 0.14185981 0.14883971
-0.60191619 0.16422714 0.15299344
0.57060903 0.16388175 0.14738595
-0.57988685 0.18640865 0.1535424
0.50490338 0.20835295 0.15090072
-0.55897951 0.20903341 0.15973973
-0.49211597 0.23109616 0.15817344
0.43778422 0.23005368 0.14586174
-0.38355899 -0.21375073 0.1752038
0.48476383 -0.212919 0.16319752
-0.47071695 -0.1906728 0.16280472
0.55350184 -0.19138758 0.17441201
-0.56242418 -0.14688803 0.17695034
0.62121707 -0.1469465 0.17821372
-0.5817697 -0.12400785 0.16260123
0.66537434 -0.079879947 0.17589343
-0.65122068 -0.057542227 0.17471993
0.66492587 0.076296493 0.17388451
-0.64884531 0.09823703 0.16443443
-0.60747272 0.18815657 0.17877245
0.55253679 0.18749255 0.16918826
-0.40812498 -0.2148174 0.19059765
0.51028687 -0.21426941 0.18268883
-0.49860847 -0.19264591 0.19484341
-0.54221827 -0.16981016 0.18797648
0.59904134 -0.16932778 0.17902243
0.64393198 -0.12467629 0.17996395
-0.63329953 -0.10276908 0.19438255
0.66912723 -0.10271734 0.19270408
0.69173759 -0.057829764 0.19340193
0.69042993 -0.035331663 0.18773949
-0.67806411 -0.012920773 0.1937139
0.68912387 -0.012920671 0.18208444
-0.67600352 0.0094697131 0.1850791
0.68881768 0.0094365375 0.18075883
-0.67640549 0.031886149 0.18676353
0.69019079 0.031885337 0.1867044
-0.67847914 0.054490291 0.19545305
0.69156951 0.054426178 0.1926744
0.66948867 0.09938743 0.19432318
-0.65532941 0.1217654 0.1925112
0.64453202 0.12131447 0.1827476
0.62323087 0.14396471 0.18790233
0.60150051 0.16658686 0.19130933
-0.58530504 0.21056303 0.17961073
-0.51905203 0.23327443 0.18389809
-0.43295094 -0.21589427 0.20614088
0.53615689 -0.21563821 0.20244515
0.58068514 -0.19294761 0.19974279
0.627433 -0.17089561 0.20811975
-0.59183294 -0.14846162 0.21101809
0.65026283 -0.14838387 0.20933545
-0.61243677 -0.12551677 0.20180261
0.67323917 -0.12587549 0.21112323
-0.65754074 -0.080484889 0.20208633
0.69524741 -0.08063525 0.20859993
-0.68010843 -0.035443503 0.20228064
-0.6805616 0.077229321 0.20417964
0.6961844 0.077490352 0.21265745
-0.63496929 0.16723664 0.20186245
-0.54647332 0.23549204 0.21008658
-0.45804563 -0.21698374 0.22186601
0.56238097 -0.21702561 0.22247171
-0.5253123 -0.19405854 0.21778309
0.60834467 -0.19453409 0.22550464
-0.57129276 -0.17160369 0.22126031
-0.68511486 -0.058289539 0.22325969
-0.66265458 0.14592232 0.22423017
0.65429491 0.14612767 0.22804213
-0.41358832 0.25972518 0.22795081
-0.48340863 -0.21808378 0.23774529
0.58922678 -0.21852587 0.24412668
0.65686852 -0.17261253 0.23998177
0.68061376 -0.14999227 0.24415755
-0.64430493 -0.12712868 0.24368107
-0.66545427 -0.10406145 0.23635316
0.70101452 -0.10397586 0.23357248
0.72594494 -0.035754342 0.24265158
0.72346884 -0.012920773 0.23227561
-0.71173728 0.0098867966 0.23924613
0.72545421 0.0098970747 0.2405951
-0.71347767 0.032802951 0.24631119
-0.68713909 0.10082781 0.23174191
0.58760422 0.19210041 0.23569572
-0.55620468 -0.19669856 0.26065171
0.63651216 -0.19615367 0.25180221
-0.62330711 -0.15036538 0.25223494
0.70688075 -0.12771727 0.25897384
-0.69167554 -0.08160878 0.25075173
0.72846806 -0.058750786 0.25322449
-0.71610385 -0.035864606 0.25697219
-0.71394062 -0.012920671 0.24819064
0.72881889 0.032932039 0.2546947
-0.71574497 0.055877395 0.25551534
-0.69423097 0.12494997 0.26146042
-0.64872223 0.19402464 0.26346803
-0.44042867 0.2621972 0.25471008
0.61742413 -0.22037868 0.27086842
0.66539007 -0.19786042 0.27951705
-0.60484564 -0.17442553 0.27362549
0.68849701 -0.17474043 0.27946985
-0.6985513 -0.10539202 0.27956438
0.73142952 -0.08195249 0.26563442
-0.72016364 -0.059062287 0.273453
-0.71929193 0.079253376 0.26991403
-0.65567452 -0.15232264 0.29461026
0.71361923 -0.1520243 0.28815269
-0.67708063 -0.12878439 0.28669667
0.7373023 -0.10572077 0.29024386
-0.67736202 0.17253619 0.28791511
-0.46776018 0.2647143 0.28195906
0.55452394 -0.24614796 0.30618215
0.57770461 -0.24608876 0.30541325
0.60284543 -0.24681841 0.31489134
0.64630985 -0.22232355 0.29894125
0.74328411 -0.12988573 0.31531036
-0.72696906 -0.082771033 0.30107963
-0.75346655 -0.036301531 0.31373155
-0.75115412 -0.012920773 0.30462873
-0.74966073 0.010344737 0.29874992
-0.75210273 0.033758268 0.30836272
0.73955286 0.056897134 0.29967499
-0.72710681 0.10351801 0.30163872
-0.70605218 0.15059774 0.31099653
-0.63682276 0.22098075 0.31493974
-0.49574882 0.2673611 0.31061089
0.53434908 -0.24757887 0.3247695
0.6281442 -0.24755266 0.3244288
0.67574233 -0.22430542 0.32754564
0.69656646 -0.20008357 0.31561649
0.72174609 -0.17710453 0.32334268
-0.71081668 -0.13048813 0.3309617
-0.73370886 -0.10689697 0.32843959
-0.75641072 -0.059860785 0.32532096
0.76976311 -0.059899557 0.3278383
0.7671181 -0.036327481 0.31710064
0.76892728 -0.012920722 0.32444501
-0.75456029 0.057321183 0.31803691
0.6555891 -0.24902739 0.34358621
-0.68898082 -0.15433711 0.33822596
0.74968714 -0.15451795 0.34214187
0.772443 -0.083640262 0.33871698
0.77284235 0.010664991 0.34033823
-0.73518562 0.12832066 0.33443451
-0.59482443 0.24639395 0.33883166
0.51618111 -0.25010163 0.3575412
0.70573723 -0.22632496 0.35669637
0.73006511 -0.20277774 0.35936511
-0.64473981 -0.1786309 0.35166991
0.77598774 -0.10765659 0.35310686
0.61547416 -0.27576476 0.38051188
0.68571568 -0.2513544 0.37381589
0.75711787 -0.1797954 0.37328017
0.78241146 -0.13234417 0.37918401
-0.62599373 0.24948832 0.3753742
0.59234464 -0.2761156 0.38465476
0.64100939 -0.2764588 0.38870728
0.66687411 -0.27723563 0.39788127
0.73858315 -0.22906531 0.39624918
0.71644193 -0.25372791 0.40464771
0.76600003 -0.20592681 0.41050017
-0.68109852 -0.181693 0.40849543
-0.7780273 -0.08529602 0.41041446
0.57525849 -0.27938727 0.42329073
0.69546068 -0.27902627 0.41902721
-0.73437095 -0.15856045 0.42966461
-0.76193291 -0.13480107 0.44301498
-0.6453442 -0.20949708 0.46847403
-0.61972022 -0.20917341 0.46321833
-0.71690625 -0.18442249 0.4591465
-0.67427552 -0.21074267 0.4886986
-0.80504966 -0.1126966 0.51678717
-0.70703745 -0.21295896 0.52468729
-0.67012346 -0.24232893 0.58769345
-0.64277345 -0.24168502 0.57839942
-0.61840439 -0.24206276 0.58385122
-0.59515697 -0.24289255 0.59582829
-0.5739612 -0.24459732 0.62043452
-0.61289227 -0.27583471 0.69182336
-0.64335567 -0.27750352 0.71350205
-0.58983368 -0.27724031 0.71008241
-0.56701738 -0.27888379 0.7314316
0 0 0 1 0 0 0 1 0 0 0 1 0 0 0 0 0 1356 1 0 0
