ply
format ascii 1.0
comment PCL generated
element vertex 1373
property float x
property float y
property float z
element camera 1
property float view_px
property float view_py
property float view_pz
property float x_axisx
property float x_axisy
property float x_axisz
property float y_axisx
property float y_axisy
property float y_axisz
property float z_axisx
property float z_axisy
property float z_axisz
property float focal
property float scalex
property float scaley
property float centerx
property float centery
property int viewportx
property int viewporty
property float k1
property float k2
end_header
0.5077002 -0.16886656 -0.21750939
0.53038311 -0.16891871 -0.21654034
0.48524776 -0.14639209 -0.21735799
0.50671721 -0.14615819 -0.22242069
0.52883816 -0.14608647 -0.22397375
0.48487511 -0.12383479 -0.21929455
0.50620735 -0.12361645 -0.22496796
0.52808106 -0.12351446 -0.22761607
0.48461047 -0.10132464 -0.22066963
0.50588202 -0.10114223 -0.22659338
0.5276252 -0.10104319 -0.22980905
0.55154943 -0.10126284 -0.22267711
0.48443612 -0.07884647 -0.22157574
0.50569546 -0.078709148 -0.22752583
0.55154288 -0.078820392 -0.22270715
0.527354 -0.078626275 -0.23111427
0.4843258 -0.056387417 -0.22214913
0.50555408 -0.056293834 -0.22823226
0.52718258 -0.056236684 -0.23193896
0.55154288 -0.05637886 -0.22270715
0.48425314 -0.033938769 -0.22252619
0.50545478 -0.033890978 -0.22872806
0.5270704 -0.033862151 -0.23247838
0.54983425 -0.033876315 -0.23063445
0.54975665 -0.01149583 -0.23099434
0.57437527 -0.011495879 -0.22095644
0.48422411 -0.011495779 -0.22267711
0.5054127 -0.011495779 -0.22893834
0.52700818 -0.011495779 -0.23277807
0.48422703 0.01094596 -0.22266197
0.50541878 0.010898019 -0.2289083
0.52701128 0.010868243 -0.23276293
0.54975986 0.010882054 -0.23097944
0.57442248 0.010960824 -0.22074521
0.48425606 0.033390153 -0.22251117
0.50546682 0.033295467 -0.22866809
0.52707672 0.033237267 -0.23244834
0.54984391 0.033265844 -0.23058939
0.527192 0.055616554 -0.2318939
0.48433158 0.055842351 -0.22211885
0.50556302 0.055702176 -0.2281872
0.55153966 0.055828441 -0.22272241
0.48445061 0.078307413 -0.22150004
0.5057075 0.078123756 -0.22746575
0.52736652 0.078013308 -0.23105431
0.55154288 0.078270182 -0.22270715
0.48463956 0.10079604 -0.22051859
0.50591218 0.10056794 -0.22644305
0.52766895 0.10044648 -0.229599
0.55154943 0.10071298 -0.22267711
0.48490426 0.1233179 -0.21914327
0.50625861 0.12306073 -0.22471189
0.52816546 0.12294533 -0.22721016
0.48528275 0.14589275 -0.21717632
0.50676858 0.14562407 -0.22216415
0.52896345 0.14555912 -0.22337079
0.5078032 0.1683881 -0.21699464
0.48794976 -0.23740357 -0.203318
0.51069355 -0.23746243 -0.20255363
0.4656246 -0.21491237 -0.20188057
0.48721537 -0.21454844 -0.20713425
0.50933158 -0.21439421 -0.20935833
0.53302336 -0.2147768 -0.20383763
0.46521786 -0.19217502 -0.20408213
0.48664388 -0.19180404 -0.21010399
0.50849509 -0.19159265 -0.21353817
0.53164816 -0.19178256 -0.21045375
0.44322601 -0.16977061 -0.20073271
0.46449348 -0.16937876 -0.20800292
0.48591283 -0.16906083 -0.21390247
0.55528092 -0.16952094 -0.20536482
0.44291714 -0.1470793 -0.2024771
0.46403506 -0.14670952 -0.21048403
0.55310082 -0.14647882 -0.21547961
0.44268438 -0.12443152 -0.20379174
0.463743 -0.12411299 -0.2120651
0.55328047 -0.12401375 -0.21464562
0.57844603 -0.1244726 -0.20272195
0.44250861 -0.10181377 -0.20478463
0.46352693 -0.1015536 -0.21323442
0.5768795 -0.10166124 -0.20973873
0.44237885 -0.079217345 -0.20551729
0.46337828 -0.079020575 -0.21403897
0.57665205 -0.07909634 -0.21075797
0.44228968 -0.056635786 -0.20602095
0.46327183 -0.056503419 -0.21461546
0.57665205 -0.056562871 -0.21075797
0.44222215 -0.03406278 -0.20640242
0.46321294 -0.033997171 -0.21493387
0.57664859 -0.034029201 -0.21077311
0.44219789 -0.011495879 -0.20653951
0.46319333 -0.01149583 -0.21503997
0.44220057 0.011070271 -0.20652425
0.46319333 0.011004764 -0.21503997
0.44222483 0.033638522 -0.20638692
0.46321294 0.033506855 -0.21493375
0.57665205 0.033571113 -0.21075785
0.4422951 0.056214731 -0.20599031
0.46328023 0.056016702 -0.21457005
0.57664859 0.056104284 -0.21077299
0.44238964 0.078801453 -0.20545638
0.46339229 0.078539521 -0.21396303
0.57664859 0.078637756 -0.21077323
0.44251671 0.10140339 -0.20473886
0.46354374 0.10107985 -0.21314347
0.57844257 0.10148035 -0.20273709
0.4427087 0.12403338 -0.20365429
0.46376827 0.12365111 -0.21192837
0.55328381 0.1235263 -0.21463048
0.57844603 0.12407637 -0.20272195
0.44294146 0.14669232 -0.20233953
0.46405753 0.14625998 -0.21036243
0.55331969 0.14603899 -0.21446383
0.44329652 0.16941416 -0.20033455
0.46458074 0.16897097 -0.2075305
0.48600629 0.16860849 -0.21341681
0.5305469 0.16846456 -0.2157526
0.55542898 0.16914672 -0.2046777
0.4652715 0.19178823 -0.20379162
0.48669657 0.19136997 -0.20983005
0.50856495 0.19113721 -0.21318901
0.53175259 0.19136161 -0.20995176
0.46566132 0.21453789 -0.20168185
0.48727992 0.21414395 -0.20679867
0.50944138 0.21398926 -0.20881009
0.53317261 0.21442714 -0.2031194
0.48804983 0.23704675 -0.20279813
0.51084971 0.23713347 -0.20177352
0.44550225 -0.26130193 -0.18787634
0.4671894 -0.26083326 -0.19341111
0.48947462 -0.26066524 -0.19539475
0.51282537 -0.26096103 -0.19190228
0.42331633 -0.23883031 -0.18478405
0.4446477 -0.23822072 -0.19270289
0.46612254 -0.23772168 -0.19918537
0.5348165 -0.23802771 -0.19521022
0.42305696 -0.21599072 -0.18631554
0.44428542 -0.21540649 -0.19474912
0.55844176 -0.21568695 -0.19070029
0.42274028 -0.19315393 -0.18818533
0.44396713 -0.19263901 -0.19654679
0.55671537 -0.19250576 -0.19871032
0.40091589 -0.17074102 -0.182724
0.4220821 -0.17023727 -0.1920718
0.58236408 -0.17060921 -0.18517089
0.40066296 -0.14791939 -0.18428874
0.42181882 -0.14748821 -0.1936264
0.57968748 -0.14732477 -0.19716096
0.60544133 -0.14794801 -0.18366921
0.62836456 -0.1479831 -0.18290997
0.40049532 -0.12514225 -0.18532562
0.42161822 -0.12477718 -0.19481075
0.62775111 -0.12513624 -0.18548024
0.40035278 -0.10238578 -0.18620741
0.4214673 -0.10209342 -0.19570196
0.60528755 -0.10244343 -0.18433511
0.62741542 -0.10236486 -0.18688762
0.40024528 -0.079647928 -0.18687224
0.42134765 -0.079427734 -0.19640851
0.60398495 -0.079576261 -0.18997562
0.62720895 -0.079627559 -0.18775284
0.40017787 -0.056924094 -0.18728936
0.42127222 -0.056776911 -0.19685388
0.60376418 -0.056867991 -0.19093156
0.62709832 -0.056909878 -0.18821621
0.40012044 -0.034207258 -0.18764472
0.42120722 -0.034133442 -0.19723761
0.60378206 -0.034182537 -0.19085443
0.62703204 -0.034200702 -0.18849409
0.40010041 -0.01149583 -0.18776834
0.42117864 -0.011495879 -0.19740641
0.60378909 -0.01149583 -0.19082367
0.62700248 -0.01149583 -0.18861759
0.40010542 0.0112149 -0.18773746
0.42117864 0.011140532 -0.19740653
0.60378563 0.011191028 -0.19083905
0.62700248 0.011208092 -0.18861759
0.40012294 0.033927228 -0.18762922
0.42120722 0.033779297 -0.19723761
0.60378206 0.033877634 -0.19085443
0.62703204 0.033914015 -0.18849409
0.40018284 0.056647364 -0.18725848
0.42127484 0.056426067 -0.19683838
0.60376072 0.056562241 -0.19094694
0.62710571 0.05662604 -0.18818533
0.40025529 0.079375662 -0.18681037
0.42135805 0.0790819 -0.19634724
0.604074 0.079289988 -0.18958986
0.62722361 0.07934849 -0.18769097
0.40036279 0.10211901 -0.18614542
0.42147771 0.10175364 -0.19564068
0.60544491 0.1022149 -0.18365371
0.62743747 0.10209405 -0.18679488
0.40050781 0.12488344 -0.18524837
0.4216443 0.1244489 -0.19465685
0.62778807 0.12487984 -0.18532574
0.40068299 0.14767173 -0.18416488
0.42184222 0.14716923 -0.193488
0.57999945 0.14704673 -0.19576347
0.60548425 0.14770846 -0.18348336
0.62843478 0.14775506 -0.18261552
0.40094095 0.1705081 -0.18256915
0.4221082 0.16993241 -0.19191778
0.58253336 0.17039467 -0.1844126
0.4228057 0.19289626 -0.18779922
0.44401333 0.1923084 -0.19628561
0.55684757 0.19218293 -0.19809687
0.42307788 0.21573035 -0.1861918
0.44431803 0.21508583 -0.1945647
0.55865455 0.21545921 -0.18971336
0.42335829 0.23859318 -0.18453646
0.44469675 0.23792507 -0.19242573
0.46619049 0.2373838 -0.19881749
0.53504336 0.23778154 -0.19411874
0.44561985 0.26108137 -0.18721223
0.46734574 0.26058692 -0.19256449
0.48969355 0.26043054 -0.19425702
0.51316786 0.26080611 -0.19019139
0.47194991 -0.28588051 -0.1676439
0.4026258 -0.26263389 -0.17214656
0.42402509 -0.26191819 -0.18059897
0.53787279 -0.26192605 -0.18050611
0.38069814 -0.2402547 -0.16628087
0.4020209 -0.23951514 -0.17588842
0.56093705 -0.23926602 -0.17912376
0.58561683 -0.23992223 -0.17060018
0.38058236 -0.21732666 -0.16703308
0.40184981 -0.21663985 -0.17694688
0.58444679 -0.21671636 -0.17584181
0.60764849 -0.21683621 -0.17411232
0.38013661 -0.19427833 -0.16992807
0.4014954 -0.19371107 -0.17913949
0.58356154 -0.19366995 -0.17980731
0.60662031 -0.19374646 -0.17856431
0.37966534 -0.17126553 -0.17298949
0.60595334 -0.17080943 -0.18145263
0.62989902 -0.17107752 -0.17648005
0.37943724 -0.14837284 -0.17447078
0.37926453 -0.12551688 -0.17559254
0.60602498 -0.12530319 -0.18114221
0.3578383 -0.10300273 -0.16617131
0.3791447 -0.10268865 -0.17637098
0.35774207 -0.080110788 -0.16682947
0.37904406 -0.079875328 -0.17702472
0.35769391 -0.057234116 -0.16715825
0.37898654 -0.057076477 -0.17739809
0.65402925 -0.057173863 -0.17106915
0.35765728 -0.034363046 -0.16740894
0.37894344 -0.034284025 -0.17767799
0.65402925 -0.03433482 -0.17106915
0.35764813 -0.01149583 -0.16747153
0.37892911 -0.011495929 -0.17777133
0.65402925 -0.011495779 -0.17106903
0.35764813 0.011370937 -0.16747153
0.37893149 0.011291766 -0.17775583
0.65402925 0.01134326 -0.17106915
0.35765728 0.034238603 -0.16740894
0.37894586 0.034080762 -0.17766261
0.65403318 0.034182552 -0.17105341
0.35769624 0.05711187 -0.16714263
0.37899375 0.056876164 -0.17735136
0.65402925 0.057021197 -0.17106903
0.35774663 0.079991803 -0.166798
0.37905359 0.07967893 -0.17696249
0.35784522 0.10288965 -0.16612411
0.37915188 0.102497 -0.17632425
0.37927896 0.12533379 -0.17549908
0.60597837 0.12506379 -0.18134403
0.37945166 0.14819905 -0.1743772
0.37969416 0.17110975 -0.17280209
0.60603571 0.17059882 -0.18109572
0.63020003 0.17096078 -0.17521858
0.38019681 0.19416153 -0.16953731
0.40155819 0.19352321 -0.17875075
0.58365166 0.19347812 -0.17940331
0.6067065 0.19356196 -0.17819118
0.3805896 0.21720865 -0.16698611
0.40186238 0.21644793 -0.17686903
0.58453715 0.21655819 -0.17543674
0.60773849 0.2166902 -0.17372227
0.38071263 0.24014695 -0.16618681
0.40204859 0.23933996 -0.17571723
0.56125534 0.23917647 -0.17764699
0.58572507 0.23981415 -0.17011583
0.40272427 0.26252922 -0.17153776
0.42413285 0.261751 -0.1799624
0.53839588 0.26193327 -0.17798901
0.42814639 -0.28693181 -0.15626383
0.44964793 -0.28617451 -0.16446185
0.49612311 -0.28650826 -0.16084838
0.35972401 -0.26423156 -0.15327871
0.38121271 -0.26341355 -0.16293895
0.58745003 -0.26346016 -0.16238892
0.56401622 -0.26325282 -0.16483843
0.35928968 -0.24102706 -0.15624809
0.61006558 -0.24045762 -0.16364563
0.35920897 -0.21803564 -0.15680027
0.33705494 -0.19544016 -0.15106368
0.35864675 -0.19485009 -0.16064394
0.6336782 -0.19485009 -0.16064394
0.33683348 -0.17236096 -0.15266192
0.35830647 -0.17180546 -0.16297042
0.33666259 -0.14932318 -0.15389514
0.358109 -0.14884175 -0.16432047
0.33651376 -0.12631059 -0.15496945
0.35794839 -0.12590852 -0.16541874
0.3364175 -0.10332636 -0.15566409
0.6582793 -0.10338311 -0.1538161
0.33633876 -0.080355607 -0.15623224
0.65679514 -0.080272131 -0.15984118
0.33629724 -0.057397712 -0.15653193
0.33626664 -0.03444507 -0.15675282
0.3362579 -0.011495879 -0.15681589
0.3362579 0.011452858 -0.15681589
0.33626881 0.034402847 -0.15673697
0.33629942 0.057357389 -0.15651631
0.33634093 0.080317542 -0.15621638
0.65691531 0.08022096 -0.15935314
0.33643061 0.10329586 -0.15556931
0.65846229 0.10339204 -0.15307307
0.33652687 0.12628618 -0.15487456
0.35796216 0.12580365 -0.16532469
0.33667135 0.14930622 -0.15383184
0.3581205 0.14874537 -0.16424215
0.33685321 0.17235869 -0.15251958
0.35833403 0.1717267 -0.16278195
0.33711201 0.19546993 -0.15065193
0.35871583 0.1948103 -0.16017175
0.63421547 0.19493367 -0.15839255
0.35921586 0.21799655 -0.15675282
0.35930586 0.24099778 -0.1561377
0.61059177 0.24055503 -0.16136718
0.3598119 0.26427147 -0.15267789
0.38129979 0.2633757 -0.16237319
0.56429017 0.26326549 -0.16356719
0.58772016 0.26348615 -0.16117859
0.42900833 0.28740242 -0.15117455
0.45049664 0.28655243 -0.15966809
0.4732199 0.28644228 -0.16076958
0.49766508 0.28723618 -0.15283597
0.3857111 -0.28901419 -0.13372076
0.40688792 -0.28790009 -0.14578176
0.5222441 -0.2879867 -0.14484406
0.5453378 -0.28801018 -0.14458954
0.56860018 -0.28810424 -0.14357162
0.31651396 -0.26600569 -0.13232672
0.3381747 -0.26510343 -0.1429826
0.31614086 -0.24264903 -0.13517785
0.337778 -0.24182792 -0.14584517
0.31606546 -0.21949378 -0.13575375
0.33772299 -0.21876712 -0.14624238
0.6397171 -0.2195226 -0.13533771
0.31546351 -0.19609958 -0.14035356
0.31524658 -0.1729348 -0.14201117
0.31509238 -0.14981772 -0.14318955
0.29329181 -0.12715563 -0.13301587
0.31496119 -0.12672541 -0.14419198
0.66071677 -0.12673587 -0.14392149
0.2932089 -0.10400291 -0.13368881
0.31487587 -0.1036595 -0.14484394
0.29314184 -0.080863602 -0.13423336
0.31480306 -0.080605775 -0.14540029
0.29310045 -0.05773576 -0.13456953
0.31476563 -0.057564758 -0.14568639
0.29307285 -0.034614116 -0.13479352
0.31474274 -0.03452884 -0.14586127
0.31473234 -0.011495879 -0.14594066
0.29306102 -0.011495779 -0.1348896
0.29306102 0.011621709 -0.1348896
0.31473026 0.011536532 -0.14595652
0.29307482 0.034740947 -0.13477778
0.31474066 0.034570094 -0.145877
0.29310438 0.057864938 -0.13453758
0.31477603 0.057609361 -0.14560699
0.29314777 0.080996096 -0.13418531
0.31480929 0.080652088 -0.1453526
0.29321682 0.10414056 -0.13362467
0.31488419 0.10371117 -0.1447804
0.2932997 0.12729892 -0.13295186
0.31496745 0.12678187 -0.14414418
0.31510487 0.14988479 -0.14309394
0.3152695 0.1730167 -0.14183593
0.31548437 0.19619457 -0.14019418
0.31609687 0.21963145 -0.1355139
0.3377274 0.21880803 -0.14621079
0.64046252 0.21988553 -0.13221443
0.31615341 0.24278085 -0.13508177
0.33779123 0.24187751 -0.14574993
0.33826739 0.26522887 -0.14231372
0.40776023 0.28848219 -0.14038551
0.52343976 0.28863376 -0.13886988
0.54596972 0.28836572 -0.14154911
0.36441725 -0.29017177 -0.12119079
0.2947304 -0.26693645 -0.1213361
0.62040019 -0.26714307 -0.11889541
0.29436672 -0.24348722 -0.1242888
0.29424366 -0.22021885 -0.12528789
0.27188373 -0.19747095 -0.11808646
0.29374436 -0.19677781 -0.12934148
0.27171004 -0.17414297 -0.11959088
0.29354662 -0.17353104 -0.13094711
0.27158496 -0.15085769 -0.12067378
0.29341421 -0.15033348 -0.13202202
0.27147496 -0.12759402 -0.12162685
0.27139667 -0.10435347 -0.12230492
0.27133331 -0.081126384 -0.12285352
0.27128857 -0.057910215 -0.12324071
0.27126437 -0.034701444 -0.1234504
0.27124947 -0.011495779 -0.1235795
0.27124763 0.011708735 -0.1235956
0.27126437 0.034915451 -0.1234504
0.27129978 0.058128025 -0.12314403
0.27134076 0.081346951 -0.12278891
0.27141157 0.1045813 -0.12217569
0.27148613 0.12782639 -0.12152994
0.27159619 0.15109827 -0.12057698
0.29342213 0.15048482 -0.13195801
0.27172121 0.17439251 -0.11949396
0.29356241 0.17369515 -0.13081872
0.27190241 0.1977374 -0.11792469
0.29376021 0.19695537 -0.12921309
0.29428929 0.22044721 -0.12491715
0.29438657 0.24370839 -0.12412751
0.29485574 0.26726061 -0.12031841
0.31662101 0.26622692 -0.13150859
0.38662291 0.28974175 -0.12779856
0.57239878 0.28992695 -0.12594819
0.34308499 -0.29143211 -0.10754561
0.27281693 -0.26789585 -0.11000478
0.25037998 -0.24520986 -0.10191226
0.27244529 -0.24433908 -0.11322308
0.25010693 -0.22166294 -0.1044457
0.27225608 -0.2209412 -0.11486208
0.24987653 -0.19817938 -0.10658371
0.24972543 -0.17476833 -0.10798573
0.24960431 -0.15139176 -0.10910952
0.67112553 -0.15173551 -0.10166693
0.24950433 -0.12804002 -0.11003733
0.22729534 -0.10506965 -0.099046826
0.24942368 -0.10470814 -0.11078548
0.22722811 -0.081660755 -0.09971869
0.24936411 -0.08139237 -0.11133838
0.22718549 -0.058265828 -0.10014462
0.24931857 -0.058086969 -0.11176109
0.22714782 -0.034877848 -0.10052121
0.24928704 -0.034789123 -0.11205363
0.22713304 -0.01149583 -0.10066855
0.24927127 -0.01149583 -0.11219978
0.2271347 0.011885242 -0.10065222
0.24927303 0.011796513 -0.11218369
0.2271511 0.035268914 -0.10048819
0.2492888 0.035091154 -0.1120373
0.22719041 0.058660295 -0.10009539
0.24932206 0.058391605 -0.11172843
0.22724614 0.082062833 -0.099538445
0.24936759 0.081700519 -0.11130595
0.2273019 0.10547398 -0.09898138
0.2494342 0.10502348 -0.11068797
0.24951661 0.12836246 -0.10992336
0.67113769 0.1287462 -0.10161769
0.24961483 0.15172136 -0.10901165
0.67112148 0.15211631 -0.10168314
0.24973422 0.17510633 -0.1079042
0.24989408 0.19853429 -0.10642076
0.25016856 0.22206715 -0.10387409
0.2723141 0.22125994 -0.11435926
0.25041172 0.24561448 -0.10161781
0.27245843 0.24464135 -0.11310935
0.2729598 0.26832765 -0.10876751
0.34412187 0.29251745 -0.10006261
0.36538798 0.29106715 -0.11455393
0.32176992 -0.29285309 -0.092163801
0.22861153 -0.26993755 -0.085894585
0.25078067 -0.26889598 -0.098194361
0.22817373 -0.246106 -0.090269446
0.22786558 -0.22243166 -0.09334898
0.20537364 -0.19962466 -0.083114862
0.22770265 -0.19889411 -0.094976783
0.20525435 -0.176039 -0.084406018
0.22757116 -0.17539859 -0.096290827
0.20515653 -0.15248393 -0.085464716
0.22745946 -0.15193234 -0.097406864
0.20506644 -0.12894842 -0.086440086
0.22736919 -0.12849157 -0.098309159
0.20543945 -0.082060508 -0.082402349
0.18190101 -0.058535919 -0.08260107
0.20534608 -0.058523457 -0.083412886
0.15838861 -0.035016675 -0.082501888
0.18183368 -0.035009816 -0.083396196
0.20527115 -0.035003312 -0.084224105
0.15836948 -0.01149583 -0.08275032
0.18181124 -0.01149583 -0.083661199
0.20524213 -0.011495879 -0.084538341
0.15837203 0.012023264 -0.08271718
0.18181404 0.012016357 -0.083628178
0.20524824 0.012009851 -0.084472299
0.15839373 0.035546809 -0.082435608
0.18184072 0.035533298 -0.083313465
0.20527881 0.035520587 -0.084141254
0.18190521 0.059065554 -0.082551718
0.20535833 0.059048634 -0.083280206
0.20545322 0.082595155 -0.082253337
0.20507866 0.12945338 -0.086307764
0.22738558 0.12890655 -0.098145008
0.20516571 0.15299554 -0.085365534
0.2274726 0.15235376 -0.097275734
0.20527115 0.17656468 -0.084224105
0.2275843 0.17582966 -0.096159458
0.20538434 0.20015718 -0.082998872
0.22771746 0.19933736 -0.094828725
0.22788367 0.22289133 -0.093167901
0.22820014 0.24659775 -0.090005517
0.22876546 0.27058271 -0.084356427
0.25091326 0.26941809 -0.096963763
0.62815893 0.27049568 -0.085299253
0.32294112 0.29420358 -0.083214045
0.30052024 -0.29450068 -0.074328065
0.20629305 -0.2710157 -0.073161721
0.18320951 -0.24788591 -0.067148685
0.20578578 -0.24700029 -0.078653097
0.2055175 -0.22324863 -0.081557035
0.11234713 -0.20066252 -0.06626153
0.13590482 -0.20058425 -0.067533493
0.15946105 -0.20052029 -0.068570495
0.1830056 -0.20045964 -0.069556713
0.04141929 -0.17703022 -0.066010356
0.064984336 -0.17693369 -0.067801237
0.08854264 -0.17685802 -0.069205642
0.11208658 -0.17678872 -0.070492148
0.1356189 -0.17672576 -0.071660757
0.15915895 -0.17668086 -0.072494626
0.18268481 -0.17663503 -0.073345065
0.017740063 -0.15333533 -0.067031384
0.041304648 -0.15324485 -0.068988442
0.064848483 -0.15316388 -0.070742607
0.088382483 -0.15309761 -0.072177768
0.11190267 -0.15303752 -0.07347846
0.13541791 -0.15298747 -0.074561357
0.15893579 -0.15294899 -0.075393915
0.18244508 -0.152913 -0.076176047
-0.0058998391 -0.12969537 -0.067031503
0.017674148 -0.12961295 -0.069172502
0.041222349 -0.12953769 -0.07112658
0.064753681 -0.12947354 -0.072794914
0.088269293 -0.12941648 -0.074278235
0.11177139 -0.12936519 -0.07561028
0.13526689 -0.12932165 -0.076741576
0.15876165 -0.12928636 -0.077656031
0.18224943 -0.12925449 -0.078486919
-0.029532794 -0.10606939 -0.0665797
-0.0059442669 -0.10599617 -0.068955183
0.017615512 -0.10593096 -0.071076512
0.041149803 -0.10587131 -0.073011637
0.064669013 -0.10582156 -0.074627876
0.088172406 -0.10577688 -0.076076269
0.11166179 -0.10573654 -0.077390075
0.13514595 -0.10570271 -0.078486919
0.15862608 -0.10567414 -0.079416871
0.18210179 -0.10564906 -0.080230236
0.20557573 -0.1056276 -0.080926895
-0.053164963 -0.082459711 -0.065122247
-0.029553406 -0.082395107 -0.067918181
-0.0059751347 -0.082340255 -0.070291758
0.017573893 -0.082290918 -0.072427988
0.041097201 -0.082245924 -0.074378133
0.064607501 -0.082209341 -0.075959802
0.088099822 -0.082175463 -0.077423453
0.1115789 -0.082145184 -0.078736067
0.13505161 -0.082119562 -0.079848528
0.15851879 -0.082097344 -0.080810785
0.181981 -0.082077779 -0.081656456
-0.076819569 -0.058804754 -0.065139055
-0.053172827 -0.05878929 -0.066144228
-0.029569626 -0.058745801 -0.068971872
-0.0059986487 -0.05870977 -0.071310282
0.017542578 -0.058676891 -0.073445082
0.041059382 -0.058647364 -0.075360775
0.064562172 -0.058623094 -0.076941133
0.088047877 -0.058600776 -0.07838738
0.11152162 -0.058581106 -0.079665899
0.13498838 -0.05856429 -0.080760956
0.1584473 -0.058549128 -0.081739545
-0.076819569 -0.035145238 -0.065792322
-0.053178243 -0.035137229 -0.066847444
-0.029580943 -0.035115059 -0.069707155
-0.0060160011 -0.035097044 -0.072060943
0.017518975 -0.035080481 -0.074211478
0.041029915 -0.035065766 -0.076126218
0.064526856 -0.035053555 -0.077705741
0.088006705 -0.035042446 -0.079151392
0.11147664 -0.035032839 -0.080396175
0.13493784 -0.035024378 -0.081490874
-0.076819569 -0.01149583 -0.066010237
-0.05317992 -0.01149583 -0.067064881
-0.0060217753 -0.01149583 -0.072311163
0.017511286 -0.01149583 -0.074461341
0.041020319 -0.01149583 -0.076375723
0.064515337 -0.01149583 -0.077955246
0.11146031 -0.01149583 -0.080661654
-0.029584546 -0.011495779 -0.069941163
0.087994173 -0.011495729 -0.079383731
0.13491948 -0.011495729 -0.081756115
-0.076819569 0.012152077 -0.065993428
-0.053179789 0.01214397 -0.067048311
-0.029584289 0.012121799 -0.069924116
-0.0060210004 0.012103734 -0.072278023
0.017511792 0.01208707 -0.074444771
0.0410216 0.012072506 -0.076342463
0.064516872 0.012060196 -0.077921987
0.087995082 0.012049136 -0.079367042
0.11146235 0.012039327 -0.080628395
0.13492174 0.01203102 -0.081722856
-0.076819569 0.035803385 -0.065775752
-0.053177856 0.035787623 -0.066797137
-0.029580172 0.035743531 -0.069656968
-0.0060144514 0.0357076 -0.071994185
0.017521031 0.035674423 -0.07414484
0.041033119 0.035645247 -0.076042891
0.064529926 0.035620674 -0.07763958
0.088010296 0.035598505 -0.079084992
0.11148076 0.035579339 -0.080329776
0.13494244 0.035562422 -0.081424356
-0.076819569 0.059469905 -0.065038443
-0.053172313 0.059445988 -0.066077232
-0.029568594 0.059380677 -0.068904877
-0.0059971139 0.059326682 -0.071243525
0.017545141 0.059277687 -0.073361754
0.041062593 0.059233401 -0.075277328
0.064566016 0.059196915 -0.076858044
0.088052347 0.059163641 -0.078304172
0.11152671 0.059134115 -0.07958293
0.13499413 0.059108738 -0.080678105
0.15845113 0.05908547 -0.081689835
-0.02955186 0.083039649 -0.067817807
-0.0059720501 0.082967535 -0.070158243
0.017578006 0.082901828 -0.072294593
0.041102968 0.082842126 -0.074228287
0.064613655 0.08279293 -0.075826526
0.08810699 0.082747839 -0.077290416
0.11158708 0.082707554 -0.078603148
0.13506082 0.082673222 -0.079715848
0.15852772 0.082643099 -0.080694795
0.18198943 0.082616523 -0.081557155
-0.029530216 0.10672769 -0.06641221
-0.0059415624 0.10663426 -0.068838
0.017619625 0.10655309 -0.070942879
0.041154929 0.10647877 -0.072878361
0.064675167 0.10641652 -0.074494839
0.088178694 0.10636012 -0.075959682
0.11166893 0.10630957 -0.077273726
0.13515401 0.10626733 -0.078370571
0.15863377 0.1062308 -0.079317451
0.18211162 0.10620023 -0.080114126
0.20559257 0.10617591 -0.080744505
-0.0058955923 0.13035212 -0.066847444
0.017680317 0.13025409 -0.068971634
0.041230068 0.13016376 -0.070926428
0.06476292 0.13008663 -0.072594881
0.088279158 0.13001747 -0.074095011
0.11178266 0.12995592 -0.075427055
0.13527954 0.12990363 -0.07655859
0.15877444 0.12986043 -0.077489853
0.18226629 0.1298237 -0.078287482
0.017746769 0.15399528 -0.066813946
0.041313015 0.15388983 -0.068771124
0.064859271 0.15379615 -0.070508838
0.088392362 0.15371607 -0.071994424
0.11191501 0.15364696 -0.073278427
0.13543062 0.15358765 -0.074378014
0.15894987 0.15354273 -0.075210929
0.18246341 0.15350248 -0.075959802
0.041425727 0.17769668 -0.065842748
0.064999014 0.17759569 -0.067483306
0.088557035 0.17750606 -0.068938255
0.11210509 0.17742874 -0.070191503
0.13563971 0.17735687 -0.07136035
0.15918079 0.17730437 -0.072211266
0.18271306 0.17725518 -0.073011637
0.11237189 0.20134453 -0.065859556
0.13593496 0.2012587 -0.067098379
0.15949452 0.20118694 -0.068135977
0.18304664 0.20112188 -0.069072008
0.2055313 0.22379658 -0.081407905
0.18324208 0.24856584 -0.066763759
0.20581186 0.24758296 -0.078370571
0.20647642 0.27180013 -0.071176767
0.27955821 -0.29659808 -0.051623583
0.18381605 -0.27213144 -0.059985876
0.08967337 -0.24934286 -0.048221827
0.11324546 -0.24907707 -0.051674128
0.13685496 -0.24891193 -0.053819656
0.16056797 -0.24888335 -0.054190993
-0.0055604056 -0.22527322 -0.052333474
0.018092856 -0.22504874 -0.055574417
0.041719154 -0.22486562 -0.058219314
0.0654829 -0.2249496 -0.057006836
0.089119226 -0.22484569 -0.058505535
0.112716 -0.22472334 -0.060271621
0.13631015 -0.2246255 -0.061683178
0.15987624 -0.22452207 -0.06317699
0.18344212 -0.22443719 -0.064401507
-0.076819569 -0.20155041 -0.051843286
-0.053090036 -0.20133212 -0.055388808
-0.029368546 -0.20129989 -0.055911541
-0.0056974962 -0.20115471 -0.058269858
0.017945632 -0.20102623 -0.060355663
0.041578725 -0.20093305 -0.061867833
0.065185517 -0.20083588 -0.063445687
0.088770792 -0.20074189 -0.064971566
-0.1005846 -0.17785101 -0.050778031
-0.076819569 -0.17756715 -0.056046247
-0.053101063 -0.17752537 -0.056821585
-0.029425062 -0.17737669 -0.059582233
-0.0057871863 -0.17723806 -0.06215322
0.017827764 -0.17712861 -0.064183593
-0.10056482 -0.15396729 -0.053346992
-0.076819569 -0.15371506 -0.058808446
-0.053122573 -0.15367778 -0.05961585
-0.029468782 -0.15354817 -0.062421918
-0.00585033 -0.15343432 -0.064887643
-0.10054845 -0.13014027 -0.055473089
-0.076819569 -0.12992908 -0.06096065
-0.053139649 -0.1298954 -0.061834335
-0.029502615 -0.12978821 -0.064619541
-0.12437072 -0.10659815 -0.049407363
-0.10053405 -0.10635374 -0.057343841
-0.076819569 -0.10618499 -0.062824726
-0.05315464 -0.10615561 -0.063781023
-0.12435015 -0.082791708 -0.050744176
-0.10052381 -0.082608543 -0.058673739
-0.076819569 -0.08248058 -0.06421721
-0.12433478 -0.059011038 -0.051741838
-0.10051683 -0.058890279 -0.059582233
-0.12432438 -0.035248179 -0.052417874
-0.10051177 -0.035188023 -0.060238004
-0.12432074 -0.011495879 -0.052654386
-0.10050996 -0.011495879 -0.060473323
-0.124321 0.012254917 -0.052637458
-0.10051009 0.012194715 -0.060456634
-0.12432438 0.036009017 -0.052417874
-0.10051177 0.03588856 -0.060238004
-0.12433609 0.059779029 -0.051657319
-0.10051721 0.059597168 -0.059531927
-0.12435171 0.083568469 -0.05064261
-0.10052485 0.083325252 -0.058539033
-0.076819569 0.0831552 -0.064066291
-0.053163931 0.083126776 -0.064988136
-0.12437281 0.10738733 -0.049271822
-0.10053509 0.10708185 -0.057209134
-0.076819569 0.10687092 -0.062690377
-0.053153217 0.10683604 -0.063596725
-0.10054988 0.13088609 -0.0552876
-0.076819569 0.13063402 -0.060742259
-0.05313823 0.13059208 -0.061649442
-0.029499777 0.13046357 -0.064435005
-0.10056664 0.15473367 -0.05311048
-0.076819569 0.15444106 -0.058539152
-0.053120635 0.15439673 -0.059363604
-0.029465165 0.15424459 -0.062186837
-0.0058449134 0.15411167 -0.064653039
-0.10058642 0.17863891 -0.050541043
-0.076819569 0.17831662 -0.055776596
-0.053098857 0.17826979 -0.056535125
-0.029421698 0.17809568 -0.059363604
-0.0057813674 0.1779393 -0.06190145
0.017834477 0.17781223 -0.063965678
-0.076819569 0.20237544 -0.050980926
-0.053084843 0.20211661 -0.054714084
-0.029364135 0.20205361 -0.055624843
-0.0056881681 0.20189837 -0.05786562
0.017958052 0.20175384 -0.05995214
0.041589059 0.20163979 -0.061599135
0.065205649 0.20154205 -0.063009381
0.088797003 0.20143981 -0.06448555
-0.0055143237 0.2261883 -0.050338149
0.018131293 0.22588132 -0.054325938
0.041761279 0.22566593 -0.057124853
0.065514818 0.22572803 -0.056316137
0.08915551 0.22561148 -0.057832241
0.11275122 0.22546756 -0.059700012
0.13635206 0.22536147 -0.06107831
0.15993436 0.22525813 -0.062422037
0.18350321 0.22516124 -0.06368053
0.11333087 0.24996097 -0.050287366
0.13692982 0.24975358 -0.052738905
0.16065377 0.24972479 -0.053076625
0.18401125 0.27304682 -0.057680726
0.30237585 0.2966004 -0.059262633
0.066650212 -0.32234704 -0.031733871
0.06637235 -0.29787967 -0.037749648
0.13832581 -0.27445123 -0.032589912
0.1611606 -0.27327394 -0.046492696
0.066141888 -0.24976487 -0.04273963
-0.052908335 -0.22669698 -0.03178525
-0.029223014 -0.22568038 -0.046458721
-0.12458227 -0.20254664 -0.0356673
-0.10062529 -0.20194165 -0.045491457
-0.14852126 -0.17879979 -0.033171415
-0.12446998 -0.17827223 -0.042960644
-0.14846559 -0.15478781 -0.035581946
-0.12443233 -0.15433407 -0.045406699
-0.14841592 -0.13082303 -0.037732601
-0.12439942 -0.1304455 -0.047543883
-0.14837222 -0.10689932 -0.039625049
-0.14833997 -0.083016202 -0.041021347
-0.1483164 -0.05916037 -0.042042494
-0.17247348 -0.035409272 -0.031494021
-0.1482999 -0.035322595 -0.042756677
-0.17246556 -0.01149583 -0.031750917
-0.14829402 -0.011495779 -0.043011665
-0.1724661 0.01241576 -0.031733751
-0.1482944 0.012329034 -0.042994499
-0.172474 0.036331404 -0.031476974
-0.14830029 0.036157951 -0.04273963
-0.14831796 0.060002577 -0.041974306
-0.14834312 0.083868936 -0.04088521
-0.14837575 0.1077645 -0.039471626
-0.14842026 0.13170561 -0.037545085
-0.12440255 0.13125306 -0.047340512
-0.14847073 0.15569027 -0.03535974
-0.12443572 0.15516075 -0.045186043
-0.1485264 0.17972237 -0.032948971
-0.12447339 0.17911933 -0.042739511
-0.12460542 0.20354043 -0.034163475
-0.10063431 0.2028369 -0.044319868
-0.029184595 0.22667907 -0.043963313
0.066295967 0.2508828 -0.039403439
0.089797631 0.25033116 -0.045915961
0.16136055 0.27432027 -0.043895483
0.066382587 0.29877552 -0.037527919
0.090786368 -0.29882023 -0.027567029
0.25854042 -0.29894724 -0.026192904
0.066882342 -0.27494922 -0.026708364
0.091150776 -0.27544922 -0.020804644
0.11505738 -0.27532655 -0.02225256
0.042926058 -0.25098714 -0.026862979
-0.076819569 -0.22780837 -0.015743613
-0.14874797 -0.20330481 -0.023354888
-0.17277396 -0.17941603 -0.021735668
-0.17270026 -0.15531683 -0.024129391
-0.17263301 -0.13126266 -0.026313186
-0.19698983 -0.10763202 -0.015830278
-0.17257324 -0.10724953 -0.028253675
-0.19693328 -0.083564088 -0.01730001
-0.17252889 -0.083277836 -0.029694796
-0.19689138 -0.05952464 -0.01838851
-0.17249615 -0.059334122 -0.030757427
-0.19686215 -0.035504356 -0.019148231
-0.19685416 -0.011495779 -0.019355536
-0.19685483 0.012511245 -0.01933825
-0.19686347 0.036521822 -0.019113779
-0.19689538 0.06054971 -0.018284917
-0.17249879 0.060263511 -0.030671716
-0.19693992 0.084600478 -0.017127275
-0.17253363 0.084218189 -0.029540181
-0.19699717 0.10868187 -0.015639901
-0.17257854 0.10820279 -0.028082132
-0.1726383 0.13223228 -0.026141286
-0.17270714 0.15630746 -0.023905754
-0.17278776 0.18044055 -0.021287322
-0.1488013 0.20444933 -0.021046042
-0.052865282 0.22804698 -0.026192904
0.043142661 0.25242114 -0.021235585
0.066685811 0.27551502 -0.030963063
0.09116751 0.27648199 -0.020494103
0.1152411 0.27659512 -0.019269109
0.13889883 0.27612865 -0.024318576
0.090847462 0.2998859 -0.026433468
0.043012068 0.32403281 -0.024628282
0.066686615 0.32335195 -0.030945659
0.0194057 -0.25205895 -0.01293838
-0.1009897 -0.22902694 0.0018458366
-0.1731672 -0.20419109 -0.0089646578
-0.19725144 -0.18010044 -0.0090339184
-0.22183952 -0.15651579 0.0018283129
-0.19715254 -0.1558954 -0.011603355
-0.22173373 -0.13225754 -0.00046205521
-0.19706582 -0.13174203 -0.013856888
-0.22164261 -0.10804448 -0.0024348497
-0.22157495 -0.083873466 -0.0038999319
-0.22152504 -0.059730973 -0.0049803257
-0.22149046 -0.035607595 -0.0057293177
-0.22147839 -0.011495879 -0.005990386
-0.22147919 0.012614186 -0.0059731007
-0.22149126 0.036728002 -0.0057117939
-0.22152907 0.060858887 -0.0048931837
-0.22158138 0.085012145 -0.003760457
-0.22165067 0.10919672 -0.0022604465
-0.2217418 0.13342649 -0.00028729439
-0.19707315 0.13280845 -0.013666391
-0.22184922 0.15770541 0.0020383596
-0.19716056 0.15698147 -0.011395216
-0.19727017 0.1812252 -0.0085473061
-0.17333174 0.2056565 -0.003620863
-0.076819569 0.22929974 -0.0099197626
0.019594453 0.25364274 -0.0068084002
-0.0042776614 -0.25330216 0.0032110214
-0.19795844 -0.20531799 0.009334445
-0.22196974 -0.18083765 0.0046476126
-0.24677378 -0.15717082 0.016011238
-0.24664639 -0.13280077 0.013647556
-0.24654007 -0.10847902 0.011674285
-0.24646516 -0.084201053 0.010283947
-0.24640925 -0.059950016 0.0092465878
-0.24637327 -0.035717692 0.0085786581
-0.24636096 -0.011495879 0.0083503723
-0.24636191 0.012724482 0.0083680153
-0.24637516 0.036948647 0.0086140633
-0.24641304 0.061187077 0.0093169212
-0.24647179 0.085448377 0.010407329
-0.24655145 0.10974126 0.011885643
-0.24665684 0.13407907 0.013841391
-0.24678615 0.15847073 0.016240835
-0.22199242 0.18206795 0.0051386356
-0.19826777 0.20711082 0.017371416
-0.1010399 0.23070754 0.0083678961
-0.0041110665 0.25510198 0.010424972
0.045219794 -0.27998242 0.032729983
-0.028177086 -0.25470823 0.02147603
-0.12544543 -0.23031218 0.020395756
-0.22314741 -0.20659962 0.030144811
-0.27215952 -0.18241824 0.033979297
-0.24693851 -0.18161473 0.01906836
-0.27196288 -0.15785328 0.030786395
-0.27181372 -0.13336712 0.028364539
-0.27169436 -0.10893322 0.026426435
-0.27160901 -0.084541857 0.025040865
-0.27154672 -0.060177568 0.024029136
-0.2715041 -0.035831392 0.023337364
-0.27149209 -0.011495879 0.023142219
-0.2714932 0.012838432 0.023159981
-0.27150628 0.037175898 0.023372769
-0.27155 0.061528075 0.024082422
-0.2716167 0.08590278 0.0251652
-0.2717053 0.11030766 0.026604176
-0.27182469 0.13475792 0.028542638
-0.27197605 0.15926608 0.031000257
-0.27218807 0.18387264 0.034443736
-0.24696425 0.18295522 0.01954639
-0.2233963 0.20836934 0.035533667
-0.12554237 0.23211814 0.026693106
-0.028062265 0.25666925 0.02893424
0.021311119 -0.28135523 0.048941731
-0.05235415 -0.25614998 0.040205479
-0.15018687 -0.23159766 0.038951159
-0.24839106 -0.20757754 0.046024442
-0.29765105 -0.18325368 0.049482584
-0.29741895 -0.15856215 0.046132326
-0.29725206 -0.13395829 0.043723106
-0.29711646 -0.10940549 0.041765809
-0.29701951 -0.084895819 0.040367007
-0.29694873 -0.060413528 0.039345264
-0.29690284 -0.035949599 0.038682461
-0.29688793 -0.01149583 0.038467526
-0.29688793 0.012956238 0.038467646
-0.29690406 0.037411757 0.038700461
-0.29695371 0.061882239 0.039416909
-0.29702824 0.0863747 0.040492535
-0.29713014 0.11089898 0.041963458
-0.29726574 0.13546839 0.043920636
-0.29744017 0.16009788 0.046438217
-0.29768479 0.18482883 0.049969435
-0.24865615 0.20943698 0.050943732
-0.15032612 0.23352593 0.044981122
-0.052298825 0.2582323 0.047392368
0.021377206 0.28309438 0.051088095
0.045360737 0.28173691 0.036391735
-0.0028449968 -0.28273585 0.065247178
-0.076819569 -0.25756711 0.058614373
-0.17520344 -0.23285964 0.057164192
-0.27409855 -0.20877479 0.065465689
-0.32339728 -0.18410023 0.06519258
-0.3231312 -0.15928283 0.061736584
-0.32294536 -0.13455863 0.059321642
-0.32279736 -0.10988701 0.05739975
-0.32268864 -0.085256487 0.055986881
-0.32260922 -0.06065369 0.054955244
-0.32255769 -0.036069654 0.054285884
-0.32254374 -0.01149583 0.054105282
-0.32254517 0.013076744 0.054123402
-0.32256049 0.03765237 0.054322124
-0.32261479 0.062242758 0.055027723
-0.32269835 0.086855777 0.05611372
-0.32281274 0.11150086 0.057599068
-0.3229593 0.13618799 0.059503317
-0.32314941 0.160935 0.061972737
-0.32344213 0.18580219 0.065775514
-0.17538956 0.23492932 0.063208938
-0.076819569 0.25981835 0.066121578
-0.0028147027 0.28452373 0.066558719
-0.027282968 -0.28394717 0.079550982
-0.10157035 -0.25900358 0.077274203
-0.20050287 -0.23412581 0.075440645
-0.29999679 -0.20987566 0.083340168
-0.34945303 -0.18498987 0.081701994
-0.34915113 -0.16004036 0.078136802
-0.34895229 -0.13519254 0.075788856
-0.34878787 -0.11039346 0.073847055
-0.34866703 -0.085636072 0.072419763
-0.34857723 -0.060906362 0.071359158
-0.34851995 -0.036195867 0.070682764
-0.34850448 -0.01149583 0.070500135
-0.34850448 0.013202756 0.070500255
-0.3485215 0.037904594 0.070701241
-0.3485834 0.062621646 0.071432233
-0.34867942 0.087362319 0.072566032
-0.34880805 0.11213527 0.074085236
-0.3489694 0.13694945 0.075990438
-0.34918222 0.16182585 0.078503966
-0.34951848 0.1868307 0.082474828
-0.27441534 0.21079934 0.070609689
-0.20073608 0.23633711 0.081499696
-0.10162924 0.26141059 0.084924817
-0.027225196 0.28607035 0.083303452
-0.051923893 -0.28534827 0.096097708
-0.12661549 -0.26047543 0.096394777
-0.22582333 -0.23500153 0.088080049
-0.32618713 -0.21098991 0.10143375
-0.37577876 -0.18588866 0.098382473
-0.37546313 -0.16081759 0.094965816
-0.37524739 -0.13584076 0.092630148
-0.37507641 -0.11091477 0.090778947
-0.37494487 -0.086027116 0.089355111
-0.37484583 -0.061166842 0.0882833
-0.37478101 -0.036325928 0.087581515
-0.37476224 -0.01149583 0.087378383
-0.37476394 0.013332871 0.087396741
-0.37478441 0.038165074 0.087618351
-0.37485096 0.063011996 0.088338852
-0.37495509 0.087882683 0.089465976
-0.37509519 0.1127856 0.090982795
-0.37526453 0.13772674 0.092815518
-0.37548372 0.16272499 0.095188498
-0.37587154 0.18787208 0.099386334
-0.30036104 0.2120456 0.088597298
-0.22611909 0.23733665 0.094483614
-0.05189399 0.28761107 0.099982023
-0.076819569 -0.28678134 0.11302185
-0.15195641 -0.26195195 0.11557496
-0.25191844 -0.23662286 0.11148441
-0.35263345 -0.21208782 0.11926126
-0.40248963 -0.1868566 0.11634529
-0.40214202 -0.16164473 0.11287189
-0.40191507 -0.13653253 0.11060393
-0.40172404 -0.11146646 0.10869479
-0.40157431 -0.086439185 0.10719883
-0.40146589 -0.061441436 0.10611534
-0.40138927 -0.036462653 0.10534966
-0.40136683 -0.01149583 0.10512567
-0.40136871 0.013469492 0.10514426
-0.40139487 0.038438715 0.10540557
-0.40146962 0.06342341 0.10615253
-0.40159115 0.088434018 0.10736704
-0.40174276 0.11347456 0.10888171
-0.40193197 0.13855602 0.11077249
-0.40217397 0.16369499 0.11319065
-0.40259501 0.18898134 0.11739814
-0.32659495 0.213302 0.10673165
-0.25226247 0.2391368 0.11786854
-0.12673211 0.26302302 0.10396886
-0.076819569 0.28916088 0.11675894
-0.10197514 -0.28820714 0.12985873
-0.17736837 -0.26286784 0.1274724
-0.27813417 -0.23797481 0.13099635
-0.42952532 -0.1878487 0.13475573
-0.42914876 -0.16249408 0.13126183
-0.42890158 -0.13723946 0.12896824
-0.42870167 -0.11203356 0.1271131
-0.42854473 -0.086865507 0.12565684
-0.42842457 -0.061725136 0.12454188
-0.42833906 -0.036604378 0.12374866
-0.4283126 -0.01149583 0.12350345
-0.42831466 0.013611018 0.12352216
-0.42834517 0.038722117 0.1238054
-0.42843068 0.063849434 0.12459874
-0.42855898 0.089001223 0.12578928
-0.42872 0.11418293 0.12728345
-0.42891791 0.13940342 0.12911975
-0.42917329 0.16468106 0.13148952
-0.42965031 0.19012181 0.13591564
-0.35311103 0.21456082 0.12490094
-0.1776225 0.26571214 0.13572538
-0.15213558 0.26466298 0.12333333
-0.12739262 -0.28964764 0.14687085
-0.30466133 -0.23933767 0.15066695
-0.37944463 -0.21324591 0.13806653
-0.45661795 -0.16341519 0.15120447
-0.45634985 -0.13800593 0.14888299
-0.45612419 -0.11264375 0.14692843
-0.45594734 -0.087321363 0.14539707
-0.45580822 -0.062027656 0.14419222
-0.45570889 -0.036755059 0.14333212
-0.45567802 -0.011495879 0.14306462
-0.45568022 0.0137616 0.14308357
-0.45571771 0.039023932 0.14340854
-0.45581484 0.064303234 0.14424956
-0.45596281 0.089609154 0.14553094
-0.45614627 0.11494651 0.14712
-0.45636976 0.14032423 0.14905548
-0.45664898 0.16575782 0.15147316
-0.37997341 0.21586958 0.14379072
-0.27852505 0.24063598 0.13734293
-0.1020351 0.29109049 0.13764763
-0.20357144 -0.26499954 0.1551646
-0.40642646 -0.21433085 0.15568435
-0.4570241 -0.18892461 0.15472186
-0.48418024 -0.13879603 0.16941071
-0.48392454 -0.11327206 0.16733479
-0.48372406 -0.08779043 0.16570675
-0.48356903 -0.062339481 0.16444814
-0.48346177 -0.036910899 0.16357756
-0.4834213 -0.011495729 0.16324866
-0.48342365 0.013916987 0.16326809
-0.48346892 0.039335258 0.16363561
-0.48357618 0.064770997 0.16450632
-0.48374313 0.090234958 0.16586185
-0.48394841 0.11573201 0.16752887
-0.48420176 0.14127253 0.16958547
-0.45714411 0.19134389 0.15576124
-0.40700936 0.21709706 0.1615088
-0.30513573 0.24218874 0.15751421
-0.20388782 0.26805443 0.1633842
-0.12759748 0.29317167 0.16017616
-0.15322571 -0.29165164 0.17053699
-0.2298799 -0.26659641 0.17590761
-0.33152464 -0.24073039 0.17077017
-0.4336141 -0.21537843 0.1726948
-0.48496124 -0.19005769 0.17575145
-0.4844937 -0.16437364 0.17195582
-0.51186705 -0.037086803 0.18642628
-0.51182085 -0.01149583 0.18607342
-0.51182342 0.014092592 0.18609297
-0.51187992 0.03968782 0.18652439
-0.48451528 0.1668711 0.17213082
-0.48508847 0.19263868 0.17678475
-0.43427989 0.21830018 0.17887259
-0.33207923 0.24376373 0.1779747
-0.23024173 0.26977813 0.18374133
-0.17941734 -0.29363975 0.19401443
-0.25650591 -0.26819056 0.19661736
-0.35871339 -0.24213628 0.19106174
-0.46086851 -0.21632187 0.1880157
-0.51375926 -0.19141214 0.20088565
-0.51315165 -0.16549538 0.19624245
-0.51274669 -0.13970974 0.1931479
-0.51241958 -0.11398994 0.19064879
-0.51217782 -0.088323846 0.18880129
-0.51199543 -0.062692992 0.18740714
-0.51200825 0.065302119 0.18750536
-0.51219326 0.090945192 0.18891919
-0.51244533 0.1166294 0.19084537
-0.51277244 0.1423699 0.19334471
-0.51318264 0.16818312 0.19647932
-0.51386023 0.1941703 0.20165718
-0.46152934 0.21933018 0.19373882
-0.35930589 0.24530979 0.19805861
-0.15360397 0.29564187 0.18691671
-0.28347421 -0.2698141 0.21770763
-0.38613471 -0.24348223 0.2104888
-0.48941627 -0.21779421 0.21192205
-0.54203361 -0.11487667 0.21944726
-0.54165971 -0.088969119 0.21674871
-0.54141355 -0.063117363 0.21497214
-0.54124767 -0.03729739 0.2137754
-0.54118967 -0.011495779 0.21335673
-0.54119515 0.014302828 0.21339679
-0.54126143 0.040108841 0.21387517
-0.54143006 0.06593933 0.21509182
-0.54169291 0.091809452 0.21698833
-0.54207516 0.11774177 0.21974719
-0.49013135 0.220992 0.21772754
-0.38678864 0.24681167 0.2175678
-0.25692481 0.27152655 0.20439112
-0.18015367 0.29850644 0.21792758
-0.20622072 -0.2961784 0.22399473
-0.41388199 -0.24484673 0.23018444
-0.54395139 -0.19315828 0.23328769
-0.54312557 -0.1669312 0.22732782
-0.5425303 -0.1408599 0.22303188
-0.54257196 0.14375502 0.22333276
-0.54317844 0.16986591 0.22770977
-0.54412758 0.19619668 0.23455906
-0.28376633 0.27305594 0.22245073
-0.31072837 -0.27139443 0.23823667
-0.44212455 -0.24633475 0.25166202
-0.51881945 -0.21949582 0.23955226
-0.51952267 0.22287631 0.24492586
-0.41464937 0.24837326 0.23785233
-0.31072837 0.27439278 0.2382369
-0.23366567 -0.29904708 0.2578721
-0.36541259 -0.27385306 0.27017558
-0.33794177 -0.27261806 0.2541312
-0.54908562 -0.2213918 0.27034056
-0.57529545 -0.14267366 0.27015519
-0.57459092 -0.11628982 0.2653383
-0.57401133 -0.08999978 0.26137555
-0.57358873 -0.063787311 0.25848627
-0.57331038 -0.03762693 0.25658333
-0.57317579 -0.01149583 0.25566328
-0.57317883 0.014628316 0.25568378
-0.57331342 0.040766623 0.25660372
-0.57359475 0.066942319 0.25852704
-0.57403827 0.093181819 0.2615602
-0.57462096 0.11950464 0.2655437
-0.57534969 0.14593464 0.27052629
-0.44291961 0.25000426 0.25903928
-0.33794177 0.27573866 0.2541312
-0.2079007 0.30309886 0.2676419
-0.47083217 -0.24790344 0.27430344
-0.57728732 -0.19587868 0.28377342
-0.57618654 -0.16919065 0.27624714
-0.57625306 0.17250599 0.27670228
-0.57736933 0.19926199 0.28433442
-0.54974353 0.22496611 0.27508914
-0.47170982 0.25176436 0.28190434
-0.36560476 0.27728939 0.27244496
-0.39327726 -0.27521062 0.28780937
-0.49940291 -0.24919897 0.29300356
-0.60669422 -0.064483225 0.30369139
-0.60632551 -0.037971236 0.30129647
-0.60613489 -0.011495779 0.30005836
-0.60614467 0.014970419 0.30012143
-0.60633528 0.041455783 0.30135953
-0.60671365 0.067988291 0.30381751
-0.50041145 0.25324902 0.30119157
-0.39365289 0.27893484 0.29187572
-0.4216615 -0.27675882 0.30792189
-0.52896398 -0.25086644 0.31707096
-0.58065283 -0.22363618 0.30678427
-0.60891736 -0.14452039 0.31813061
-0.60796273 -0.11772439 0.31193066
-0.60724175 -0.091059119 0.30724776
-0.60727751 0.094595864 0.30747938
-0.6080246 0.12130543 0.31233203
-0.60899889 0.14815801 0.31866062
-0.58138704 0.22750981 0.31180394
-0.42187884 0.28047734 0.31009388
-0.45019951 -0.2781958 0.32658839
-0.61162364 -0.19867727 0.3357085
-0.61018991 -0.17150694 0.3263967
-0.61024249 0.17520212 0.3267374
-0.61178851 0.20249175 0.33677948
-0.52990031 0.25502235 0.32422554
-0.45045224 0.28207272 0.32893336
-0.47867325 -0.27939832 0.34220922
-0.55956876 -0.25287041 0.34599662
-0.61333358 -0.22610141 0.34681535
-0.641294 -0.065255307 0.35383368
-0.64087451 -0.038355626 0.35123897
-0.64067197 -0.011495779 0.34998631
-0.64068246 0.015354709 0.35005116
-0.6409024 0.042226415 0.35141194
-0.64133942 0.069149971 0.35411513
-0.61414444 0.23030049 0.35208201
-0.56053483 0.25723487 0.35296857
-0.47924247 0.28361419 0.34713864
-0.50828302 -0.28116041 0.36510062
-0.64290416 -0.11932135 0.36379433
-0.64194882 -0.092228547 0.35788488
-0.642012 0.09615995 0.35827565
-0.64299572 0.1233081 0.36436045
-0.50880134 0.28549168 0.36930895
-0.53821844 -0.28290692 0.3877877
-0.59137046 -0.25523052 0.38006115
-0.64572906 -0.17404144 0.38126957
-0.64417005 -0.14657925 0.37162459
-0.64427602 0.15063456 0.3722806
-0.64585352 0.17818215 0.38203907
-0.59244251 0.2598848 0.38739061
-0.64912128 -0.22951567 0.40225327
-0.6476115 -0.20175986 0.39291346
-0.64780831 0.20602362 0.39413071
-0.64945948 0.23392138 0.40434539
-0.53945452 0.28785628 0.39723349
-0.56995416 -0.28545943 0.4209466
-0.62362444 -0.25755802 0.413656
-0.67886662 -0.093593255 0.41697252
-0.67809272 -0.066156954 0.41240287
-0.67757404 -0.038802769 0.40934074
-0.67736995 -0.011495779 0.40813529
-0.67737746 0.015802253 0.40817976
-0.67762327 0.043122604 0.40963101
-0.67816091 0.070505321 0.41280568
-0.67896533 0.097985215 0.41755569
-0.62425935 0.26222411 0.4177798
-0.68146443 -0.14891522 0.43231225
-0.6799854 -0.12116238 0.42357862
-0.68010354 0.12561418 0.42427683
-0.6815871 0.15344073 0.43303609
-0.57224476 0.29126394 0.43747747
-0.6551789 -0.2593641 0.43972504
-0.68366003 -0.23216532 0.44527662
-0.68289304 -0.20433728 0.4407475
-0.68302774 -0.1768253 0.44154322
-0.71298742 -0.094474182 0.45512486
-0.71286166 -0.066803776 0.45441461
-0.71274817 -0.039144922 0.45377326
-0.71271574 -0.011495779 0.45359027
-0.71271574 0.016151763 0.45359015
-0.71274817 0.043802306 0.45377326
-0.7128576 0.071465664 0.4543916
-0.71300769 0.099145636 0.45523942
-0.68306243 0.1813996 0.44174802
-0.68295467 0.20891698 0.44111133
-0.68373728 0.23678876 0.44573236
-0.65567517 0.26414961 0.44279432
-0.68715322 -0.26117781 0.46590304
-0.71547163 -0.23363557 0.46915591
-0.71473253 -0.20564312 0.4649812
-0.71412528 -0.17774962 0.46155179
-0.71360862 -0.14992832 0.45863378
-0.71326327 -0.12218163 0.4566834
-0.71329582 0.12686855 0.45686698
-0.71365333 0.15463468 0.45888638
-0.71414971 0.1824742 0.46168971
-0.71483445 0.21042235 0.46555734
-0.71552479 0.23843232 0.4694562
-0.68768072 0.2661683 0.46901751
-0.60624206 -0.29013926 0.48173857
-0.74644136 -0.17890118 0.48648834
-0.74599361 -0.15090719 0.48406541
-0.74562824 -0.12296392 0.48208749
-0.74534047 -0.095060803 0.48052979
-0.7451731 -0.067191966 0.47962368
-0.74504864 -0.039338693 0.47895038
-0.74501002 -0.011495879 0.47874129
-0.74502289 0.016346034 0.47881103
-0.74505723 0.044190649 0.47899675
-0.74519455 0.072050981 0.47973979
-0.74535763 0.099927276 0.48062277
-0.7456454 0.1278429 0.48218036
-0.7460109 0.15580192 0.48415852
-0.74646723 0.18381804 0.48662829
-0.7198019 -0.26309776 0.49361348
-0.74764097 -0.23510286 0.49298131
-0.7469629 -0.20695433 0.48931146
-0.77795935 -0.067587115 0.50528336
-0.77780974 -0.03953537 0.50450611
-0.77775538 -0.011495879 0.50422382
-0.77775991 0.016541809 0.50424731
-0.7778188 0.044584099 0.50455332
-0.77795935 0.072641008 0.50528359
-0.7470665 0.21191987 0.48987222
-0.74780095 0.24012215 0.49384725
-0.72160137 0.26884401 0.50377643
-0.78038859 -0.23663798 0.51790643
-0.77948141 -0.20824121 0.51319218
-0.77900815 -0.18002118 0.51073325
-0.77866733 -0.15186533 0.50896204
-0.7783767 -0.12374486 0.50745189
-0.77812707 -0.095652677 0.50615513
-0.77814078 0.10071553 0.50622606
-0.77839029 0.12881826 0.50752282
-0.77868998 0.15695308 0.50908017
-0.77902639 0.18512198 0.51082766
-0.77951324 0.21336621 0.513358
-0.78062606 0.24187435 0.51914024
-0.81281006 -0.20964727 0.53928411
-0.81175971 -0.18109725 0.5340358
-0.8113097 -0.15274411 0.53178787
-0.81097984 -0.12444358 0.53013921
-0.81075525 -0.096180744 0.52901757
-0.81063104 -0.067942984 0.5283972
-0.81054044 -0.039715827 0.52794385
-0.81052601 -0.011495779 0.5278722
-0.81052125 0.016723469 0.52784836
-0.81054509 0.044944618 0.52796769
-0.81064057 0.07317578 0.52844465
-0.81077909 0.10142095 0.52913666
-0.81100368 0.12969343 0.53025889
-0.81136715 0.15801528 0.53207469
-0.81179798 0.18638295 0.53422725
-0.81313205 0.21506186 0.54089248
0 0 0 1 0 0 0 1 0 0 0 1 0 0 0 0 0 1373 1 0 0
