ply
format ascii 1.0
comment PCL generated
element vertex 1381
property float x
property float y
property float z
element camera 1
property float view_px
property float view_py
property float view_pz
property float x_axisx
property float x_axisy
property float x_axisz
property float y_axisx
property float y_axisy
property float y_axisz
property float z_axisx
property float z_axisy
property float z_axisz
property float focal
property float scalex
property float scaley
property float centerx
property float centery
property int viewportx
property int viewporty
property float k1
property float k2
end_header
-0.18231538 -0.13944493 -0.14344704
-0.1821049 -0.1168115 -0.14648545
-0.1821049 -0.094341874 -0.14648557
-0.18210597 -0.071872666 -0.14646983
-0.15982431 -0.071966782 -0.14341557
-0.18210597 -0.049402978 -0.14646971
-0.15969144 -0.049423669 -0.1455729
-0.18210597 -0.026933193 -0.14646971
-0.15969241 -0.026947245 -0.1455574
-0.18210597 -0.0044634622 -0.14646971
-0.15982431 -0.0044869427 -0.14341545
-0.18210706 0.018006224 -0.14645398
-0.15982431 0.018006273 -0.14341545
-0.18210706 0.040476199 -0.14645398
-0.15982431 0.040499538 -0.14341545
-0.18210706 0.062946029 -0.14645398
-0.15982431 0.062992848 -0.14341557
-0.18210706 0.085415915 -0.14645386
-0.15982431 0.085486069 -0.14341557
-0.18210815 0.10788627 -0.14643836
-0.15982431 0.10797937 -0.14341545
-0.18210815 0.13035615 -0.14643824
-0.15982431 0.13047259 -0.14341557
-0.18210815 0.15282631 -0.14643824
-0.15982431 0.15296586 -0.14341557
-0.18210815 0.17529629 -0.14643824
-0.15982431 0.17545922 -0.14341545
-0.18210925 0.19776718 -0.14642262
-0.15982431 0.19795243 -0.14341545
-0.18210925 0.22023734 -0.14642251
-0.15982431 0.22044574 -0.14341545
-0.18210925 0.24270752 -0.14642251
-0.15982431 0.24293901 -0.14341545
-0.18210925 0.26517764 -0.14642251
-0.15982431 0.26543221 -0.14341545
-0.18210925 0.28764781 -0.14642251
-0.15982431 0.28792554 -0.14341557
-0.18210815 0.31011617 -0.14643824
-0.15982431 0.31041878 -0.14341545
-0.18210706 0.33258462 -0.1464541
-0.15982431 0.33291197 -0.14341545
-0.18210706 0.35505441 -0.14645386
-0.15982431 0.35540518 -0.14341545
-0.18210597 0.37752241 -0.14646971
-0.15982431 0.37789848 -0.14341557
-0.1821049 0.39999008 -0.14648545
-0.15982431 0.40039191 -0.14341545
-0.1821049 0.42245981 -0.14648545
-0.15982431 0.42288521 -0.14341545
-0.1821049 0.44492939 -0.14648521
-0.15982431 0.44537851 -0.14341557
-0.1821049 0.46739897 -0.14648545
-0.15982431 0.4678717 -0.14341545
-0.1821038 0.48986611 -0.14650106
-0.15982431 0.49036491 -0.14341545
-0.1821038 0.51233572 -0.14650118
-0.15982431 0.51285821 -0.14341557
-0.1821038 0.53480512 -0.14650106
-0.15982431 0.53535151 -0.14341545
-0.1821038 0.5572747 -0.14650118
-0.15964784 0.55731535 -0.146281
-0.13723175 0.55750436 -0.14525831
-0.1147992 0.55769038 -0.14425051
-0.1821038 0.5797441 -0.14650118
-0.15964784 0.5797866 -0.146281
-0.13723175 0.57998335 -0.14525831
-0.1147992 0.58017725 -0.14425051
-0.2055973 -0.16256896 -0.13319921
-0.18300889 -0.16255432 -0.13343728
-0.2055973 -0.13999711 -0.13319921
-0.16030894 -0.13987061 -0.13554609
-0.2055973 -0.11742523 -0.13319921
-0.16005754 -0.1171283 -0.13962829
-0.13815483 -0.11765946 -0.12812781
-0.2055973 -0.094853252 -0.13319921
-0.15984955 -0.094475865 -0.14300561
-0.13805707 -0.09497869 -0.12994206
-0.2055973 -0.072281361 -0.13319921
-0.13805707 -0.07238169 -0.12994218
-0.2055973 -0.049709436 -0.1331991
-0.13743557 -0.049518313 -0.1414758
-0.11511788 -0.049613629 -0.13735116
-0.092945799 -0.049834292 -0.12779331
-0.2055973 -0.027137548 -0.1331991
-0.1374364 -0.027010471 -0.14145994
-0.11532578 -0.027142983 -0.13284993
-0.2055973 -0.0045656618 -0.1331991
-0.13805792 -0.0045908261 -0.1299262
-0.2055973 0.018006224 -0.13319898
-0.13805707 0.018006224 -0.12994206
-0.2055973 0.040578254 -0.13319921
-0.13805707 0.040603276 -0.12994218
-0.2055973 0.063150093 -0.13319921
-0.13805707 0.06320028 -0.1299423
-0.2055973 0.085722029 -0.1331991
-0.13805707 0.085797235 -0.12994218
-0.2055973 0.10829391 -0.13319921
-0.13805707 0.10839424 -0.12994218
-0.2055973 0.13086584 -0.1331991
-0.13805707 0.1309911 -0.12994218
-0.2055973 0.15343769 -0.13319921
-0.13805707 0.15358819 -0.12994218
-0.2055973 0.17600963 -0.1331991
-0.13805707 0.17618515 -0.1299423
-0.2055973 0.19858161 -0.1331991
-0.13805707 0.19878216 -0.12994218
-0.2055973 0.22115363 -0.13319921
-0.13805707 0.2213791 -0.1299423
-0.2055973 0.24372542 -0.13319921
-0.13805707 0.24397612 -0.12994218
-0.2055973 0.2662974 -0.13319921
-0.13805707 0.26657307 -0.12994218
-0.2055973 0.28886935 -0.1331991
-0.13805707 0.28917018 -0.12994218
-0.2055973 0.31144112 -0.13319921
-0.13805707 0.31176701 -0.12994218
-0.2055973 0.3340131 -0.1331991
-0.13805707 0.33436412 -0.12994218
-0.2055973 0.356585 -0.1331991
-0.13805707 0.35696104 -0.1299423
-0.2055973 0.37915683 -0.1331991
-0.13805707 0.37955812 -0.12994218
-0.2055973 0.40172878 -0.1331991
-0.13805707 0.40215504 -0.12994218
-0.2055973 0.42430079 -0.13319921
-0.13805707 0.42475203 -0.12994218
-0.2055973 0.44687262 -0.13319921
-0.13805707 0.44734895 -0.12994218
-0.2055973 0.46944457 -0.13319921
-0.13805707 0.46994615 -0.12994218
-0.2055973 0.49201649 -0.1331991
-0.13805707 0.4925431 -0.12994206
-0.2055973 0.51458842 -0.1331991
-0.13805707 0.51514006 -0.12994218
-0.2055973 0.53716028 -0.1331991
-0.13754959 0.53606969 -0.13935959
-0.1153485 0.53730929 -0.1323576
-0.2055973 0.5597322 -0.1331991
-0.092610821 0.55912304 -0.13649631
-0.2055973 0.58230412 -0.13319898
-0.092726737 0.5822491 -0.13348484
-0.22999266 -0.1866328 -0.11166513
-0.20644957 -0.18590796 -0.12212777
-0.18401758 -0.18613315 -0.11887801
-0.1615251 -0.18634659 -0.115798
-0.22999266 -0.16389523 -0.11166501
-0.1609032 -0.16301872 -0.12589657
-0.1386714 -0.16347171 -0.1185416
-0.22999266 -0.14115755 -0.11166513
-0.1383318 -0.14044729 -0.12484372
-0.11622398 -0.14106381 -0.11340332
-0.22999266 -0.11841986 -0.11166501
-0.1160889 -0.11820447 -0.11632788
-0.22999266 -0.095682159 -0.11166501
-0.11608815 -0.095502064 -0.11634374
-0.22999266 -0.072944462 -0.11166513
-0.1160889 -0.07280089 -0.11632788
-0.22999266 -0.050206769 -0.11166501
-0.070756547 -0.050152492 -0.11401451
-0.22999266 -0.027469024 -0.11166501
-0.093267977 -0.027349599 -0.11942291
-0.22999266 -0.0047314223 -0.11166513
-0.1160889 -0.0046955757 -0.11632788
-0.1160889 0.018006273 -0.11632776
-0.22999266 0.018006321 -0.11166513
-0.22999266 0.040744018 -0.11166513
-0.1160889 0.040708028 -0.11632776
-0.22999266 0.063481666 -0.11166513
-0.1160889 0.063409925 -0.11632788
-0.22999266 0.086219355 -0.11166513
-0.1160889 0.08611168 -0.11632788
-0.22999266 0.10895711 -0.11166513
-0.1160889 0.10881352 -0.11632788
-0.22999266 0.13169461 -0.11166513
-0.1160889 0.13151518 -0.116328
-0.22999266 0.1544324 -0.11166489
-0.1160889 0.15421693 -0.11632776
-0.22999266 0.17717005 -0.11166501
-0.1160889 0.17691883 -0.11632776
-0.22999266 0.19990771 -0.11166513
-0.1160889 0.1996205 -0.11632788
-0.22999266 0.22264549 -0.11166489
-0.1160889 0.22232234 -0.11632776
-0.22999266 0.24538314 -0.11166501
-0.1160889 0.24502419 -0.11632788
-0.22999266 0.2681208 -0.11166513
-0.1160889 0.26772609 -0.11632776
-0.22999266 0.29085854 -0.11166513
-0.1160889 0.29042774 -0.11632788
-0.22999266 0.31359622 -0.11166513
-0.1160889 0.3131296 -0.116328
-0.22999266 0.33633378 -0.11166513
-0.1160889 0.33583134 -0.11632776
-0.22999266 0.35907167 -0.11166513
-0.1160889 0.35853299 -0.11632776
-0.22999266 0.3818092 -0.11166513
-0.1160889 0.38123488 -0.11632776
-0.22999266 0.40454683 -0.11166501
-0.1160889 0.40393674 -0.11632776
-0.22999266 0.42728457 -0.11166489
-0.1160889 0.42663845 -0.11632788
-0.22999266 0.45002225 -0.11166501
-0.1160889 0.44934031 -0.11632788
-0.22999266 0.47275981 -0.11166513
-0.1160889 0.47204211 -0.11632788
-0.22999266 0.4954977 -0.11166489
-0.1160889 0.49474394 -0.11632788
-0.22999266 0.51823527 -0.11166513
-0.1160889 0.51744556 -0.11632776
-0.22999266 0.54097295 -0.11166513
-0.093229145 0.53942096 -0.12043178
-0.22999266 0.56371075 -0.11166501
-0.070456527 0.56147641 -0.12375796
-0.22999266 0.58644837 -0.11166513
-0.070666537 0.58543366 -0.11693776
-0.16127031 0.60753077 -0.11993539
-0.13879068 0.60825282 -0.11632776
-0.231076 -0.21035534 -0.098871708
-0.20806243 -0.21017794 -0.1011765
-0.18516423 -0.21008936 -0.10232759
-0.16249751 -0.21026792 -0.10000813
-0.13977949 -0.21042415 -0.097977877
-0.139167 -0.1867937 -0.10934424
-0.11672582 -0.18726514 -0.10253811
-0.094174787 -0.1877276 -0.095863342
-0.11636975 -0.16398254 -0.11024725
-0.094057128 -0.16468012 -0.098920345
-0.093939081 -0.14167899 -0.10198712
-0.093915999 -0.11883914 -0.10258675
-0.093915373 -0.096030906 -0.10260284
-0.093915999 -0.073223978 -0.10258675
-0.048357785 -0.050473381 -0.10012186
-0.07100676 -0.027558088 -0.10588849
-0.093915999 -0.0048013367 -0.10258675
-0.093915999 0.018006273 -0.10258675
-0.093915999 0.040813833 -0.10258687
-0.093915999 0.063621446 -0.10258687
-0.093915999 0.08642906 -0.10258687
-0.093915999 0.10923646 -0.10258663
-0.093915999 0.13204403 -0.10258675
-0.093915999 0.15485173 -0.10258663
-0.093915999 0.1776593 -0.10258687
-0.093915999 0.20046687 -0.10258687
-0.093915999 0.22327434 -0.10258663
-0.093915999 0.24608189 -0.10258675
-0.093915999 0.26888961 -0.10258663
-0.093915999 0.29169711 -0.10258675
-0.093915999 0.31450462 -0.10258675
-0.093915999 0.33731228 -0.10258687
-0.093915999 0.36011988 -0.10258663
-0.093915999 0.38292742 -0.10258663
-0.093915999 0.40573493 -0.10258675
-0.093915999 0.42854252 -0.10258687
-0.093915999 0.45135009 -0.10258687
-0.093915999 0.47415769 -0.10258663
-0.093915999 0.4969652 -0.10258663
-0.093915999 0.51977271 -0.10258675
-0.070937619 0.54159826 -0.10813415
-0.048464403 0.54383409 -0.095505238
-0.04811316 0.56388634 -0.11071467
-0.025577018 0.5663926 -0.097148657
-0.048382156 0.58887303 -0.099066377
-0.18675056 -0.2348378 -0.079430938
-0.16349252 -0.23446345 -0.083851576
-0.14058226 -0.23452875 -0.083080173
-0.11767156 -0.23461503 -0.082061768
-0.094815508 -0.23485589 -0.079217076
-0.25534514 -0.21154955 -0.083359003
-0.11713116 -0.21074875 -0.093762159
-0.09449771 -0.21123284 -0.087473392
-0.071756624 -0.2116899 -0.081536055
-0.25534514 -0.18859403 -0.083359122
-0.071661592 -0.18850645 -0.084622502
-0.25534514 -0.16563846 -0.083359003
-0.071569264 -0.16537599 -0.087620616
-0.25534514 -0.14268275 -0.083359241
-0.071536519 -0.14239582 -0.08868432
-0.25534514 -0.11972713 -0.083359241
-0.071535006 -0.11947905 -0.088733315
-0.25534514 -0.096771613 -0.083359122
-0.071535006 -0.09656477 -0.088733315
-0.25534514 -0.073816091 -0.083359241
-0.071535513 -0.073651016 -0.088716984
-0.25534514 -0.050860483 -0.083359241
-0.025747409 -0.050797541 -0.086081505
-0.25534514 -0.027904913 -0.083359241
-0.048540063 -0.027768403 -0.092229128
-0.25534514 -0.0049492959 -0.083359122
-0.071535513 -0.0049081072 -0.088716984
-0.25534514 0.018006224 -0.083359003
-0.071535513 0.018006321 -0.088717103
-0.25534514 0.040961839 -0.083359241
-0.071535513 0.040920652 -0.088716865
-0.25534514 0.063917458 -0.083359241
-0.071535513 0.063834935 -0.088716865
-0.25534514 0.08687298 -0.083359241
-0.071535513 0.08674936 -0.088716865
-0.25534514 0.10982864 -0.083359241
-0.071535513 0.10966365 -0.088716865
-0.25534514 0.13278411 -0.083359241
-0.071535513 0.13257803 -0.088716865
-0.25534514 0.15573978 -0.083359241
-0.071535513 0.15549232 -0.088716865
-0.25534514 0.17869531 -0.083359122
-0.071535513 0.1784067 -0.088716984
-0.25534514 0.20165081 -0.083359122
-0.071535513 0.20132093 -0.088716865
-0.25534514 0.22460663 -0.083359241
-0.071535513 0.22423537 -0.088717103
-0.25534514 0.24756205 -0.083359241
-0.071535513 0.2471496 -0.088716865
-0.25534514 0.27051777 -0.083359122
-0.071535513 0.27006397 -0.088717103
-0.25534514 0.29347324 -0.083359241
-0.071535513 0.29297841 -0.088716865
-0.25534666 0.31643054 -0.083342671
-0.071535513 0.31589264 -0.088716865
-0.25534666 0.33938625 -0.083342671
-0.071535513 0.33880708 -0.088716865
-0.25534666 0.36234182 -0.083342791
-0.071535513 0.36172137 -0.088716865
-0.25534666 0.38529754 -0.083342671
-0.071535513 0.38463569 -0.088716865
-0.25534666 0.40825325 -0.083342791
-0.071535513 0.40755004 -0.088716865
-0.25534666 0.43120897 -0.083342791
-0.071535513 0.43046436 -0.088716984
-0.071535513 0.45337859 -0.088716865
-0.25534666 0.45416477 -0.083342791
-0.25534666 0.4771204 -0.083342791
-0.071535513 0.47629306 -0.088717103
-0.25534666 0.50007612 -0.083342791
-0.071535513 0.49920732 -0.088716865
-0.25534666 0.52303189 -0.083342671
-0.071535513 0.52212185 -0.088716865
-0.25534666 0.54598755 -0.083342791
-0.025802718 0.54613864 -0.082489014
-0.25534666 0.56894326 -0.083342671
-0.0028344952 0.56895846 -0.083260655
-0.25560468 0.59243649 -0.080549598
-0.025825994 0.5923543 -0.080977201
-0.14144054 -0.2589578 -0.067152858
-0.11831422 -0.25886583 -0.068148017
-0.095246017 -0.25887653 -0.068032146
-0.072245009 -0.25909424 -0.065675259
-0.23398128 -0.23609686 -0.064562082
-0.2100167 -0.23514614 -0.075789332
-0.07200627 -0.23534605 -0.073428392
-0.049101934 -0.23581418 -0.067899346
-0.049039178 -0.2125304 -0.070616722
-0.048973866 -0.18928085 -0.073445082
-0.048944496 -0.16617063 -0.074716687
-0.048944876 -0.14314939 -0.074700236
-0.048944116 -0.12012564 -0.074733257
-0.048943728 -0.097103089 -0.074749827
-0.048944116 -0.074081659 -0.074733257
-0.0029218942 -0.051124979 -0.071907401
-0.025865005 -0.027980648 -0.07844317
-0.002978567 -0.028194573 -0.064545393
-0.048944116 -0.0050156973 -0.074733377
-0.048944116 0.018006273 -0.074733257
-0.048944116 0.041028339 -0.074733257
-0.048944116 0.064050168 -0.074733257
-0.048944116 0.087072283 -0.074733257
-0.048944116 0.1100942 -0.074733257
-0.048944116 0.13311626 -0.074733257
-0.048944116 0.15613824 -0.074733138
-0.048944116 0.1791603 -0.074733257
-0.048944116 0.20218208 -0.074733257
-0.048944116 0.22520414 -0.074733377
-0.048944116 0.24822606 -0.074733257
-0.048944116 0.27124819 -0.074733257
-0.048944116 0.29427007 -0.074733138
-0.048944116 0.31729221 -0.074733257
-0.048944116 0.34031415 -0.074733257
-0.048944116 0.36333615 -0.074733257
-0.048944116 0.38635793 -0.074733257
-0.048944116 0.40937996 -0.074733257
-0.048944116 0.43240201 -0.074733257
-0.048944116 0.45542404 -0.074733257
-0.048944116 0.47844601 -0.074733257
-0.048944116 0.501468 -0.074733257
-0.048944116 0.52449 -0.074733257
-0.0029304288 0.54820853 -0.070798874
0.020121844 0.57164335 -0.068728447
-0.0029922649 0.59585905 -0.062765718
-0.14254785 -0.2840946 -0.046603441
-0.11899151 -0.28340599 -0.05348444
-0.09574154 -0.28323853 -0.0551579
-0.072547235 -0.28316829 -0.055860281
-0.0494418 -0.28343615 -0.053183079
-0.026329329 -0.28392631 -0.048284531
-0.18844615 -0.26008439 -0.054957271
-0.16488333 -0.25950137 -0.061267376
-0.049275875 -0.25958452 -0.060367465
-0.026236901 -0.26014623 -0.05428791
-0.25815436 -0.23708028 -0.052948475
-0.02619751 -0.23675016 -0.05684638
-0.28185958 -0.21428715 -0.047797203
-0.02615588 -0.21338236 -0.059550524
-0.0031186268 -0.21439835 -0.046351075
-0.28185958 -0.1910578 -0.047797203
-0.026140222 -0.19017307 -0.060567498
-0.0031190161 -0.19116154 -0.04630053
-0.28185958 -0.1678285 -0.047797203
-0.026139965 -0.16704097 -0.060584068
-0.0031188857 -0.16791958 -0.046317458
-0.28185958 -0.14459909 -0.047797203
-0.026140222 -0.14391088 -0.060567498
-0.0031190161 -0.14467974 -0.04630053
-0.28185958 -0.12136969 -0.047797203
-0.026139708 -0.12077834 -0.060600758
-0.0031187572 -0.12143734 -0.046334147
-0.28185958 -0.098140389 -0.047797322
-0.026139451 -0.097646952 -0.060617566
-0.0031186268 -0.098196059 -0.046350956
-0.28185958 -0.074911043 -0.047797322
-0.026139708 -0.074516818 -0.060600758
-0.0031187572 -0.074956119 -0.046334267
-0.28185958 -0.051681738 -0.047797322
0.020121844 -0.051454965 -0.057614803
-0.28185958 -0.028452385 -0.047797322
0.020121844 -0.028410763 -0.05050087
-0.28185958 -0.0052230787 -0.047797084
-0.026139708 -0.0051244888 -0.060600877
-0.0031187572 -0.0052342433 -0.046334267
-0.28185958 0.018006178 -0.047797203
-0.026139708 0.018006273 -0.060600877
-0.0031187572 0.018006273 -0.046334147
-0.28185958 0.041235577 -0.047797203
-0.026139708 0.041137032 -0.060600758
-0.0031187572 0.041246884 -0.046334147
-0.28185958 0.064464979 -0.047797084
-0.026139708 0.064267799 -0.060600758
-0.0031187572 0.064487591 -0.046334267
-0.28185958 0.087694287 -0.047797322
-0.026139708 0.087398648 -0.060600758
-0.0031187572 0.087728113 -0.046334147
-0.28185958 0.11092368 -0.047797084
-0.026139708 0.11052927 -0.060600758
-0.0031187572 0.11096872 -0.046334267
-0.28185958 0.13415299 -0.047797322
-0.026139708 0.13366012 -0.060600758
-0.0031187572 0.13420929 -0.046334267
-0.28185958 0.15738229 -0.047797322
-0.026139708 0.15679099 -0.060600877
-0.0031187572 0.15744986 -0.046334147
-0.28185958 0.1806116 -0.047797322
-0.026139708 0.17992173 -0.060600638
-0.0031187572 0.18069048 -0.046334147
-0.28185958 0.20384106 -0.047797322
-0.026139708 0.20305243 -0.060600877
-0.0031187572 0.20393108 -0.046334386
-0.28185958 0.22707026 -0.047797084
-0.026139708 0.22618328 -0.060600877
-0.0031187572 0.22717158 -0.046334147
-0.28185958 0.25029954 -0.047797203
-0.026139708 0.24931413 -0.060600877
-0.0031187572 0.2504122 -0.046334386
-0.28185958 0.27352905 -0.047797084
-0.026139708 0.27244475 -0.060600758
-0.0031187572 0.27365297 -0.046334147
-0.28185958 0.29675826 -0.047797203
-0.026139708 0.29557556 -0.060600758
-0.0031187572 0.29689354 -0.046334147
-0.28185958 0.31998762 -0.047797322
-0.026139708 0.31870645 -0.060600758
-0.0031187572 0.32013419 -0.046334147
-0.28186125 0.34321895 -0.047780514
-0.026139708 0.34183717 -0.060600758
-0.0031187572 0.34337476 -0.046334386
-0.28186125 0.3664484 -0.047780395
-0.026139708 0.36496788 -0.060600758
-0.0031187572 0.3666153 -0.046334147
-0.026139708 0.38809875 -0.060600996
-0.28186125 0.3896777 -0.047780514
-0.0031187572 0.38985586 -0.046334147
-0.28186125 0.41290715 -0.047780395
-0.026139708 0.41122955 -0.060600638
-0.0031187572 0.41309655 -0.046334267
-0.28186125 0.43613669 -0.047780514
-0.026139708 0.43436027 -0.060600877
-0.0031187572 0.43633705 -0.046334147
-0.28186125 0.45936614 -0.047780395
-0.026139708 0.45749107 -0.060600877
-0.0031187572 0.45957762 -0.046334267
-0.28186125 0.48259568 -0.047780395
-0.026139708 0.48062187 -0.060600758
-0.0031187572 0.48281819 -0.046334147
-0.28186125 0.50582504 -0.047780395
-0.026139708 0.50375247 -0.060600877
-0.0031187572 0.50605893 -0.046334147
-0.28186125 0.52905464 -0.047780514
-0.026139708 0.52688342 -0.060600996
-0.0030953381 0.52878433 -0.049376249
0.020121844 0.55026209 -0.059200168
-0.28186125 0.55228406 -0.047780395
0.043357268 0.55242097 -0.047007084
-0.28186125 0.5755136 -0.047780395
0.043305598 0.5744164 -0.053718686
-0.073246934 -0.33212662 -0.033137083
-0.04987105 -0.33195826 -0.034595728
-0.026527556 -0.33186421 -0.035409451
-0.0032356437 -0.33235607 -0.031149983
-0.11984672 -0.30858704 -0.034968734
-0.096221209 -0.30775431 -0.042695761
-0.072912626 -0.30761442 -0.043993831
-0.049621724 -0.30746371 -0.045391798
-0.026430959 -0.30786338 -0.041683555
-0.0031895582 -0.30835333 -0.037136912
-0.16632663 -0.28497249 -0.037830949
-0.003160404 -0.28466299 -0.040924072
-0.21273965 -0.26142752 -0.040417314
-0.0031420924 -0.261161 -0.043302774
0.020121844 -0.26221138 -0.03193152
-0.0031223837 -0.2376802 -0.045863152
0.020121844 -0.23885858 -0.031948447
0.020121844 -0.2155071 -0.031948566
0.020121844 -0.19215822 -0.031914473
0.020121844 -0.16880657 -0.031914592
0.020121844 -0.14545499 -0.031914592
0.020121844 -0.12210256 -0.03193152
0.020121844 -0.098750517 -0.031948447
0.020121844 -0.075399622 -0.03193152
0.043387078 -0.051789422 -0.043134212
0.043439761 -0.0286295 -0.036290526
0.020121844 -0.0053451024 -0.031948447
0.020121844 0.018006321 -0.031948447
0.020121844 0.041357554 -0.031948447
0.020121844 0.064709023 -0.031948566
0.020121844 0.08806026 -0.031948566
0.020121844 0.11141168 -0.031948566
0.020121844 0.13476291 -0.031948447
0.020121844 0.1581143 -0.031948447
0.020121844 0.18146572 -0.031948328
0.020121844 0.20481695 -0.031948447
0.020121844 0.22816843 -0.031948447
0.020121844 0.25151965 -0.031948447
0.020121844 0.27487108 -0.031948447
0.020121844 0.29822227 -0.031948566
0.020121844 0.32157379 -0.031948447
0.020121844 0.34492496 -0.031948447
0.020121844 0.36827645 -0.031948566
0.020121844 0.39162791 -0.031948447
0.020121844 0.4149791 -0.031948447
0.020121844 0.43833047 -0.031948447
0.020121844 0.46168175 -0.031948447
0.020121844 0.48503312 -0.031948328
0.020121844 0.50838441 -0.031948447
0.020121844 0.53053916 -0.039014697
0.066785596 0.55463946 -0.034477115
0.066730574 0.57731104 -0.038050771
0.020121844 0.59965986 -0.043016076
-0.050306819 -0.38108954 -0.015726328
-0.02679204 -0.38076171 -0.018230677
-0.0033207275 -0.38051739 -0.020097613
0.020121844 -0.38102889 -0.016189814
-0.073659509 -0.35711905 -0.019738317
-0.050095744 -0.35648754 -0.024866223
-0.026658898 -0.35623965 -0.026878476
-0.0032794215 -0.35641402 -0.025463223
0.020121844 -0.35689569 -0.021552086
-0.12065069 -0.33392498 -0.017562151
-0.096860848 -0.33294183 -0.026077271
0.020121844 -0.33299106 -0.025650859
0.043603882 -0.33422431 -0.014970779
-0.14368793 -0.30961326 -0.025446296
0.020121844 -0.30935606 -0.027832508
0.043588288 -0.31052405 -0.016996264
-0.19072616 -0.28655195 -0.022047877
0.020121844 -0.28575683 -0.029993892
0.043585386 -0.28701976 -0.017373562
-0.23809186 -0.26368141 -0.016018152
0.043585256 -0.26355463 -0.01739049
-0.28476867 -0.23997802 -0.01872766
0.043585122 -0.24008977 -0.017407894
0.043585122 -0.21662654 -0.017407775
0.043585386 -0.1931656 -0.017373443
0.043585256 -0.16970095 -0.017390728
0.043585386 -0.14623842 -0.017373443
0.043585122 -0.12277341 -0.017407775
0.043585122 -0.099310055 -0.017407775
0.043585256 -0.075847343 -0.017390728
0.066877678 -0.052127395 -0.028496504
0.066979066 -0.028850935 -0.021911263
0.043585122 -0.0054569263 -0.017407894
0.043585122 0.018006178 -0.017407775
0.043585122 0.04146947 -0.017407775
0.043585122 0.064932816 -0.017407775
0.043585122 0.088396117 -0.017407775
0.043585122 0.11185931 -0.017407894
0.043585122 0.13532256 -0.017407894
0.043585122 0.15878595 -0.017407775
0.043585122 0.18224925 -0.017407894
0.043585122 0.2057125 -0.017407894
0.043585122 0.2291759 -0.017407775
0.043585122 0.25263914 -0.017407894
0.043585122 0.2761023 -0.017407775
0.043585122 0.29956549 -0.017407775
0.043585122 0.32302892 -0.017407775
0.043585122 0.34649214 -0.017407775
0.043585122 0.36995539 -0.017407775
0.043585122 0.39341867 -0.017407775
0.043585122 0.41688201 -0.017407775
0.043585122 0.44034532 -0.017407775
0.043585122 0.46380848 -0.017407894
0.043585122 0.48727176 -0.017407894
0.043585122 0.51073521 -0.017407894
0.043506052 0.53245884 -0.027679324
0.067072697 0.53446561 -0.015829325
0.090414383 0.55691588 -0.021620512
0.090408854 0.58030236 -0.021859765
0.043567445 0.60414636 -0.019703865
-0.027058473 -0.43020681 -0.00092542171
-0.0034488477 -0.42983687 -0.0034540892
0.020121844 -0.42976347 -0.0039558411
0.04371988 -0.43035635 9.7632408e-05
-0.050591834 -0.40627587 -0.0033849478
-0.026925409 -0.40541899 -0.009567976
-0.0033824258 -0.40507057 -0.012082458
0.020121844 -0.40524703 -0.010808587
0.043666452 -0.40579671 -0.0068421364
0.067342497 -0.40697962 0.0016943216
-0.074079998 -0.38235155 -0.0060822964
0.043633934 -0.38169929 -0.011066914
0.067312308 -0.38311261 -0.00026655197
-0.0974565 -0.35824445 -0.010601878
0.043618832 -0.35794559 -0.013028741
0.067281887 -0.35927406 -0.0022423267
-0.14506906 -0.33597428 0.00018453598
0.06727469 -0.33564001 -0.0027098656
-0.16812557 -0.31142667 -0.0086196661
0.06727469 -0.31206363 -0.0027098656
0.067274958 -0.28848904 -0.002692461
0.067274421 -0.26490924 -0.0027270317
0.067274153 -0.2413314 -0.0027444363
-0.30993316 -0.21774723 -0.0028482676
0.067274421 -0.21775661 -0.0027271509
-0.30993316 -0.19417192 -0.0028483868
0.067274958 -0.19418265 -0.002692461
-0.30993316 -0.17059654 -0.0028482676
0.06727469 -0.17060521 -0.0027097464
-0.30993316 -0.14702125 -0.0028482676
0.067274958 -0.14702967 -0.002692461
-0.30993316 -0.12344584 -0.0028482676
0.067274421 -0.12345152 -0.0027270317
-0.30993316 -0.099870533 -0.0028482676
0.067274153 -0.099874467 -0.0027444363
-0.30993316 -0.076295167 -0.0028482676
0.06727469 -0.076299444 -0.0027096272
-0.30993316 -0.052719858 -0.0028482676
0.090597317 -0.052469168 -0.013699174
0.11454871 -0.052813824 0.0012255907
-0.30993316 -0.029144447 -0.0028482676
0.090742514 -0.029074196 -0.0074118376
-0.30993316 -0.0055690873 -0.0028482676
0.067274421 -0.0055700019 -0.0027270317
-0.30993316 0.018006224 -0.0028482676
0.067274421 0.018006273 -0.0027271509
-0.30993316 0.041581631 -0.0028482676
0.067274421 0.041582547 -0.0027270317
-0.30993316 0.065156892 -0.0028482676
0.067274421 0.065158918 -0.0027271509
-0.30993316 0.088732406 -0.0028483868
0.067274421 0.088735148 -0.0027272701
-0.30993316 0.1123078 -0.0028483868
0.067274421 0.11231136 -0.0027271509
-0.30993316 0.13588302 -0.0028482676
0.067274421 0.13588779 -0.0027270317
-0.30993316 0.15945843 -0.0028482676
0.067274421 0.15946406 -0.0027269125
-0.30993316 0.1830337 -0.0028483868
0.067274421 0.18304025 -0.0027271509
-0.30993316 0.2066091 -0.0028482676
0.067274421 0.20661661 -0.0027271509
-0.30993316 0.23018457 -0.0028482676
0.067274421 0.23019288 -0.0027269125
-0.30993316 0.25375977 -0.0028483868
0.067274421 0.25376925 -0.0027270317
-0.30993316 0.27733523 -0.0028482676
0.067274421 0.27734539 -0.0027269125
-0.30993316 0.30091059 -0.0028482676
0.067274421 0.30092177 -0.0027271509
-0.30993316 0.32448587 -0.0028482676
0.067274421 0.32449809 -0.0027271509
-0.30993316 0.34806132 -0.0028482676
0.067274421 0.34807441 -0.0027269125
-0.30993316 0.37163657 -0.0028482676
0.067274421 0.37165058 -0.0027271509
-0.30993316 0.39521194 -0.0028482676
0.067274421 0.39522681 -0.0027269125
-0.30993316 0.41878739 -0.0028482676
0.067274421 0.41880322 -0.0027270317
-0.30993316 0.44236255 -0.0028482676
0.067274421 0.44237953 -0.0027271509
-0.30993316 0.465938 -0.0028482676
0.067274421 0.46595573 -0.0027271509
-0.30993316 0.48951337 -0.0028481483
0.067274421 0.48953205 -0.0027271509
-0.30993316 0.5130887 -0.0028482676
0.067274421 0.51310825 -0.0027269125
-0.30993316 0.53666419 -0.0028482676
0.09083432 0.53656441 -0.0034368038
-0.30993316 0.56023943 -0.0028483868
0.11426043 0.55930316 -0.0081368685
-0.30993316 0.5838148 -0.0028482676
0.11436839 0.5834856 -0.0046304464
-0.027309598 -0.48002386 0.015385747
-0.0035743397 -0.47961351 0.012847543
0.020121844 -0.47955704 0.012497902
0.043846607 -0.48021373 0.016560197
-0.051053248 -0.4564943 0.016595125
-0.027189875 -0.45511094 0.0076094866
-0.0035147071 -0.45472488 0.0051014423
0.020121844 -0.45466319 0.0047011375
0.043786429 -0.45528537 0.0087428093
0.067577846 -0.45655379 0.016981006
-0.074821495 -0.43297449 0.017998457
-0.050840504 -0.43142194 0.0073828697
0.067432761 -0.43144745 0.0075571537
-0.074463502 -0.40762773 0.0063723326
0.091204338 -0.40848866 0.012585282
-0.098101117 -0.38395181 0.0061459541
0.09119343 -0.38473272 0.012113333
-0.12168944 -0.36015713 0.0049273968
0.09119343 -0.36104223 0.012113214
0.091193028 -0.33734959 0.01209569
0.091193028 -0.31365919 0.01209569
-0.21637638 -0.28944141 0.0068253279
0.09119343 -0.28997061 0.012113214
0.091193028 -0.26627851 0.012095928
0.091192625 -0.24258655 0.012078285
0.091192625 -0.21889625 0.012078285
0.09119343 -0.19520849 0.012113214
0.09119343 -0.17151794 0.012113333
0.091193832 -0.1478284 0.012130737
0.091193028 -0.12413608 0.012095809
0.091192625 -0.10044503 0.012078166
0.09119343 -0.076755837 0.012113214
0.13873553 -0.053161953 0.016297102
0.11473402 -0.029299814 0.0072435141
0.091192625 -0.0056839902 0.012078404
0.091192625 0.018006321 0.012078404
0.091192625 0.041696489 0.012078404
0.091192625 0.065386891 0.012078404
0.091192625 0.089077055 0.012078285
0.091192625 0.11276722 0.012078166
0.091192625 0.13645764 0.012078166
0.091193028 0.16014872 0.01209569
0.091193028 0.18383908 0.012095809
0.091193028 0.20752944 0.012095928
0.091193028 0.23121984 0.012095928
0.091193028 0.25491029 0.01209569
0.091193028 0.27860057 0.01209569
0.091193028 0.30229098 0.012095809
0.091193028 0.32598141 0.01209569
0.091193028 0.34967178 0.01209569
0.091193028 0.37336209 0.012095809
0.091193028 0.39705256 0.01209569
0.091193028 0.42074296 0.01209569
0.091193028 0.44443351 0.012095809
0.091193028 0.46812376 0.012095928
0.091193028 0.49181426 0.012095809
0.091193028 0.5155046 0.012095809
0.11480059 0.53873944 0.0094059706
0.13832806 0.56175488 0.0057106018
0.13863643 0.58687633 0.013722539
-0.0037295129 -0.55442625 0.033005357
0.020121844 -0.55439353 0.032827973
-0.027540525 -0.53011096 0.030384898
-0.0036826804 -0.52949774 0.02692163
0.020121844 -0.52945721 0.026692033
0.043955751 -0.5301736 0.030738831
-0.051424861 -0.50666952 0.032686472
-0.027428577 -0.50504833 0.023113728
-0.0036303475 -0.50454193 0.020123363
0.020121844 -0.50449133 0.019824624
0.043903023 -0.50517958 0.023888469
0.067832746 -0.50681359 0.03353703
-0.051246099 -0.48156938 0.024945974
0.067709975 -0.48166916 0.025563121
-0.075154439 -0.45837519 0.028811336
0.091570079 -0.45831528 0.028422475
0.091352046 -0.4331184 0.018981457
-0.098775223 -0.41002315 0.023659468
0.11542534 -0.41085947 0.029695153
-0.12262464 -0.38644207 0.025175095
0.11535135 -0.38671917 0.027292252
-0.14651647 -0.3628813 0.027045012
0.11534429 -0.36288351 0.027062654
-0.17031325 -0.33905959 0.026903868
0.11534429 -0.33907783 0.027062654
-0.19367222 -0.31456229 0.020474792
0.11534429 -0.3152723 0.027062654
0.11534483 -0.29146841 0.027080417
0.11534429 -0.26766101 0.027062654
0.11534374 -0.2438539 0.027045012
0.11534374 -0.22004855 0.027045131
0.11534483 -0.19624551 0.027080536
0.11534483 -0.17243966 0.027080417
0.11534483 -0.14863393 0.027080417
0.11534429 -0.12482736 0.027062654
0.11534374 -0.1010211 0.027045012
0.11534429 -0.077216163 0.027062654
0.16316126 -0.053513441 0.031517506
0.13895591 -0.029527262 0.022022367
0.11534374 -0.0057991818 0.027045131
0.11534374 0.018006273 0.027045012
0.11534374 0.041811727 0.027045131
0.11534374 0.065617129 0.027045012
0.11534374 0.089422688 0.027045012
0.11534374 0.11322819 0.027045131
0.11534374 0.13703369 0.027045131
0.11534374 0.16083914 0.027045012
0.11534374 0.18464459 0.027045131
0.11534374 0.2084502 0.027045131
0.11534374 0.2322555 0.027045012
0.11534374 0.25606099 0.027045131
0.11534374 0.27986661 0.027045131
0.11534374 0.30367187 0.027045131
0.11534374 0.32747746 0.027045131
0.11534374 0.35128295 0.027045131
0.11534374 0.37508827 0.027045131
0.11534374 0.39889383 0.027045131
0.11534374 0.42269942 0.027045012
0.11534374 0.44650474 0.027045131
0.11534374 0.47031033 0.027045012
0.11534374 0.4941158 0.027045012
0.11534374 0.51792127 0.027045131
0.13898028 0.54098338 0.022655964
0.16262363 0.56426322 0.019877315
0.16326354 0.59057319 0.033732176
-0.0038456153 -0.62911505 0.048087239
0.020121844 -0.62910759 0.048051596
-0.027815828 -0.60518348 0.048266411
-0.0038113669 -0.60425717 0.043638349
0.020121844 -0.60423928 0.043549061
0.044088617 -0.60512972 0.047998071
-0.027731946 -0.5801661 0.042817831
0.044045858 -0.58009404 0.042443275
-0.0037720129 -0.5793401 0.038526177
0.020121844 -0.57931626 0.038401723
-0.051744185 -0.55692202 0.046513557
-0.027640963 -0.55514753 0.036908746
0.04400311 -0.55514413 0.036890745
0.068051808 -0.55715328 0.047765374
-0.051592186 -0.53180116 0.039931655
0.067947641 -0.53199047 0.041000009
-0.075737529 -0.50922024 0.047747493
0.092029586 -0.50931728 0.048320055
-0.07545796 -0.48378766 0.038668394
0.091809161 -0.48380494 0.038775206
-0.099695481 -0.46126297 0.04756844
0.11604405 -0.46160468 0.049788237
-0.099281088 -0.43572482 0.036802173
0.11569453 -0.43596396 0.038437247
-0.12372673 -0.41353938 0.049036026
0.1399433 -0.38938674 0.047675967
0.13984974 -0.36512291 0.045244932
0.13975699 -0.3408992 0.042835832
0.13973093 -0.31689906 0.042158246
0.13973162 -0.29297909 0.042175889
0.13973162 -0.2690571 0.042175889
0.13973093 -0.24513373 0.042158246
0.13973093 -0.22121182 0.042158127
0.1397323 -0.19729252 0.04219377
0.1397323 -0.17337044 0.04219389
0.1397323 -0.14944835 0.04219389
0.13973093 -0.12552463 0.042158246
0.13973093 -0.10160273 0.042158246
0.13973162 -0.077681512 0.042176008
0.18782948 -0.053868446 0.046889067
0.16341273 -0.029757261 0.036961913
0.13973093 -0.0059154797 0.042158127
0.13973093 0.018006273 0.042158246
0.13973093 0.041928023 0.042158246
0.13973093 0.065849975 0.042158246
0.13973093 0.089771718 0.042158246
0.13973093 0.11369362 0.042158246
0.13973093 0.13761541 0.042158246
0.13973093 0.16153717 0.042158484
0.13973093 0.18545894 0.042158246
0.13973093 0.20938073 0.042158246
0.13973093 0.23330262 0.042158246
0.13973093 0.25722438 0.042158246
0.13973093 0.28114626 0.042158246
0.13973093 0.30506811 0.042158246
0.13973093 0.32898986 0.042158484
0.13973093 0.35291177 0.042158246
0.13973093 0.37683341 0.042158246
0.13973093 0.40075532 0.042158246
0.13973093 0.42467707 0.042158246
0.13973093 0.44859898 0.042158246
0.13973093 0.47252071 0.042158246
0.13973093 0.49644262 0.042158484
0.13973093 0.52036446 0.042158246
0.1633832 0.54329783 0.036322474
0.18801855 0.54568154 0.050397396
0.18717115 0.56688255 0.034671903
0.21196957 0.56956851 0.049842
-0.0039776061 -0.99417067 0.065233469
0.020121844 -0.99420571 0.065342069
-0.0039752387 -0.96997422 0.064926147
0.020121844 -0.97000277 0.065016627
-0.0039752387 -0.94587708 0.064926147
0.020121844 -0.94590467 0.065016389
-0.0039752387 -0.92177999 0.064926147
0.020121844 -0.92180693 0.06501627
-0.003977187 -0.82545978 0.065179229
0.020121844 -0.82547951 0.065251708
-0.0039735679 -0.80123782 0.064708948
0.020121844 -0.80125678 0.064781427
-0.0039673038 -0.77693564 0.063895583
0.020121844 -0.77695858 0.063985944
-0.0039570127 -0.7525171 0.062558413
0.020121844 -0.75253928 0.062648773
-0.02809461 -0.72934884 0.066373706
-0.0039422829 -0.72798181 0.060645342
0.020121844 -0.72799474 0.060699344
0.044231884 -0.72940505 0.066609263
-0.02805757 -0.70468491 0.063967824
-0.0039243847 -0.70338064 0.058320045
0.020121844 -0.70338893 0.058356285
0.044212803 -0.70472252 0.064130545
-0.028009744 -0.67990178 0.060861826
-0.0039020833 -0.67868763 0.055423021
0.020121844 -0.67869163 0.055441022
0.044188336 -0.6799221 0.060952067
-0.027952874 -0.65503979 0.057167768
-0.0038752649 -0.65391272 0.05193913
0.020121844 -0.6539166 0.05195713
0.044159345 -0.65504366 0.057185769
-0.052151449 -0.63245326 0.064148307
-0.027889507 -0.63014692 0.05305171
0.044126689 -0.63012469 0.052944183
0.068306267 -0.63248336 0.064293027
-0.052020594 -0.60722816 0.05848217
0.068229839 -0.60739768 0.059328914
-0.051879846 -0.58200783 0.052387714
0.068144523 -0.58227724 0.053787827
-0.076236427 -0.56014329 0.063949704
0.092424788 -0.56041723 0.065432429
-0.07599768 -0.53468096 0.056196213
0.09223558 -0.53486574 0.057239771
-0.1001759 -0.48724425 0.060050011
0.11636725 -0.4872821 0.060284376
-0.12450996 -0.43999451 0.065993547
0.14013709 -0.41404864 0.052710652
-0.14820565 -0.39078912 0.058392167
0.16463503 -0.34327665 0.063425422
0.16451828 -0.3189187 0.060897708
0.1643934 -0.2945821 0.058194041
0.16435763 -0.27046525 0.057419658
0.16435681 -0.24642444 0.057401776
0.16435763 -0.22238664 0.057419658
-0.34084427 -0.19857334 0.060681224
0.16435847 -0.19834864 0.057437778
-0.34084427 -0.17450897 0.060681224
0.16435932 -0.17431034 0.057455778
-0.34084427 -0.15044454 0.060681105
0.16435932 -0.1502708 0.057455778
-0.34084427 -0.12638028 0.060681462
0.16435763 -0.12622952 0.057419658
-0.34084427 -0.10231577 0.060681462
0.16435763 -0.10219029 0.057419777
-0.34084427 -0.078251407 0.060681343
0.16435847 -0.078151464 0.057437658
-0.34084427 -0.054186981 0.060681462
0.21274379 -0.054226916 0.06241405
-0.34084427 -0.030122563 0.060681343
0.18810742 -0.029989567 0.052046895
-0.34084427 -0.0060580969 0.060681343
0.16435763 -0.0060329325 0.057419777
0.16435763 0.018006273 0.057419777
-0.34084427 0.018006321 0.060681343
-0.34084427 0.042070687 0.060681224
0.16435763 0.042045575 0.057419896
-0.34084427 0.066135108 0.060681224
0.16435763 0.066084877 0.057419658
-0.34084427 0.090199485 0.060681224
0.16435763 0.090124175 0.057419777
-0.34084427 0.11426389 0.060681224
0.16435763 0.11416338 0.057419896
-0.34084427 0.13832831 0.060681224
0.16435763 0.13820273 0.057419658
-0.34084427 0.16239265 0.060681343
0.16435763 0.16224213 0.057419777
-0.34084427 0.18645699 0.060681343
0.16435763 0.18628138 0.057419896
-0.34084427 0.21052162 0.060681462
0.16435763 0.21032074 0.057419658
-0.34084427 0.23458599 0.060681343
0.16435763 0.23435998 0.057419777
-0.34084427 0.25865039 0.060681462
0.16435763 0.25839919 0.057419896
-0.34084427 0.28271478 0.060681343
0.16435763 0.28243855 0.057419658
-0.34084427 0.30677921 0.060681224
0.16435763 0.30647784 0.057419658
-0.34084427 0.33084363 0.060681343
0.16435763 0.33051723 0.057419896
-0.34084427 0.35490799 0.060681224
0.16435763 0.35455659 0.057419777
-0.34084427 0.37897241 0.060681224
0.16435763 0.3785958 0.057419896
-0.34084427 0.40303677 0.060681224
0.16435763 0.40263504 0.057419896
-0.34084427 0.42710119 0.060681224
0.16435763 0.42667434 0.057419777
-0.34084427 0.45116577 0.060681224
0.16435763 0.4507136 0.057419658
-0.34084427 0.47523007 0.060681462
0.16435763 0.4747529 0.057419896
-0.34084427 0.49929443 0.060681462
0.16435763 0.49879226 0.057419658
-0.34084427 0.52335888 0.060681462
0.16435763 0.52283162 0.057419896
-0.34084427 0.54742324 0.060681462
0.21283948 0.54797983 0.063967824
-0.34084427 0.57148767 0.060681343
0.23704824 0.57237387 0.065685868
0.18815672 0.59412587 0.052961826
-0.028176976 -0.99626899 0.07172358
0.044274613 -0.99640989 0.072159529
-0.028163275 -0.97183859 0.070833445
0.044266921 -0.97194177 0.071160436
-0.028163275 -0.94769603 0.070833564
0.044266921 -0.94779682 0.071160555
-0.028163275 -0.92355359 0.070833683
0.044266921 -0.92365164 0.071160436
-0.028214483 -0.90038383 0.074159503
-0.0039993506 -0.89859933 0.068058372
0.020121844 -0.89863086 0.068166971
0.044290148 -0.90038925 0.074177742
-0.028327068 -0.87829858 0.081472278
-0.0041027535 -0.87830389 0.081490755
0.020121844 -0.87827772 0.081399202
0.044346161 -0.87829345 0.081454277
-0.028234379 -0.85240573 0.07545197
-0.0039965585 -0.85025615 0.067695737
0.020121844 -0.85029149 0.067822695
0.044304442 -0.85256714 0.076034665
-0.028167466 -0.82705671 0.071105957
0.044268876 -0.82713991 0.071414709
-0.028160756 -0.80279797 0.070670128
0.044265524 -0.8028788 0.070978999
-0.028147904 -0.77844453 0.069835305
0.044259094 -0.77852297 0.070143819
-0.052556597 -0.75723046 0.08169198
0.068585396 -0.75741059 0.08242321
-0.028125567 -0.75395232 0.068384409
0.044247925 -0.7540282 0.068692803
-0.052503861 -0.73245943 0.079408288
0.06854938 -0.7326206 0.080083966
-0.05244194 -0.70763165 0.076727152
0.068505839 -0.70775354 0.077255487
-0.05235786 -0.68263084 0.073086381
0.068446971 -0.68270802 0.073431969
-0.052260585 -0.65756291 0.068873882
0.068378471 -0.65758651 0.068982959
-0.07665737 -0.61105853 0.077620268
0.092741646 -0.61136526 0.079152703
-0.076446161 -0.58554369 0.070760965
0.092590213 -0.58589685 0.072595835
-0.10063639 -0.51332998 0.072014093
0.11675698 -0.51348704 0.072941065
-0.12517259 -0.46630847 0.08033967
0.14072992 -0.44030437 0.068112612
0.16541627 -0.3936612 0.08033967
-0.17314842 -0.36853421 0.072941065
0.16493863 -0.36817184 0.069998741
0.18954542 -0.29663756 0.078732848
0.18938629 -0.2721613 0.075779796
0.18922646 -0.24772957 0.072813869
0.18922646 -0.22357175 0.072813749
0.18922842 -0.19941644 0.072850108
0.18922842 -0.17525844 0.072850108
0.18922842 -0.15110029 0.072850227
0.18922743 -0.12694137 0.072831988
0.18922743 -0.10278346 0.072831988
0.18922743 -0.078625455 0.072831869
0.23791043 -0.054589864 0.078130841
0.23822303 -0.03046063 0.082642794
0.2130423 -0.03022385 0.067260981
0.18922646 -0.0061516352 0.072813869
0.18922646 0.018006273 0.072813749
0.18922646 0.042164087 0.072813749
0.18922646 0.066321895 0.072813749
0.18922646 0.090479717 0.072813749
0.18922646 0.11463757 0.072813749
0.18922646 0.13879539 0.072813749
0.18922646 0.1629532 0.072813869
0.18922646 0.18711083 0.072813749
0.18922646 0.21126863 0.072813749
0.18922646 0.2354265 0.072813749
0.18922646 0.25958431 0.072813749
0.18922646 0.28374207 0.072813749
0.18922646 0.30789992 0.072813869
0.18922646 0.3320578 0.072813749
0.18922646 0.35621557 0.072813869
0.18922646 0.38037336 0.072813869
0.18922646 0.40453103 0.072813749
0.18922646 0.42868888 0.072813749
0.18922646 0.45284668 0.072813869
0.18922646 0.47700453 0.072813749
0.18922646 0.50116229 0.072813869
0.18922646 0.52532011 0.072813988
0.23779677 0.55010062 0.076490402
0.26242834 0.57531136 0.08227694
0.21341227 0.5978775 0.073268414
-0.052616596 -0.97608566 0.084289789
0.068627395 -0.97635752 0.085150838
-0.052616596 -0.95183969 0.084290147
0.068627395 -0.95210463 0.085150719
-0.052616596 -0.92759347 0.084289908
0.068627395 -0.92785174 0.085150719
-0.052616596 -0.90334725 0.084289908
0.068627395 -0.9035992 0.085150957
-0.052616596 -0.87910128 0.084290147
0.068627395 -0.87934637 0.085150838
-0.052622519 -0.83067793 0.084546208
0.068631627 -0.8309148 0.085425615
-0.052613638 -0.80632907 0.084161639
0.068625696 -0.80655915 0.085040689
-0.052595034 -0.78187948 0.08335638
0.068612732 -0.78209329 0.084198356
-0.077241428 -0.68787754 0.096588492
0.093180545 -0.68822777 0.098157525
-0.077077478 -0.66238904 0.09126389
0.093045555 -0.66261512 0.092312455
-0.076888122 -0.6368109 0.085114002
0.092889048 -0.63689852 0.085535407
-0.10146374 -0.56560463 0.093509316
0.11748 -0.56614274 0.096422195
-0.1010652 -0.53945416 0.083155036
0.11713294 -0.5398075 0.085150957
0.14133778 -0.46685749 0.083905458
-0.15032557 -0.42028707 0.097732902
-0.198448 -0.34627682 0.089407086
0.19056828 -0.34723607 0.097714424
0.18995348 -0.321657 0.086305499
0.21496896 -0.27426443 0.09854579
0.21463042 -0.24944305 0.09304893
0.21442878 -0.22487745 0.089774728
0.21434508 -0.20049484 0.088415384
0.21434508 -0.17621697 0.088415384
0.21434508 -0.151939 0.088415384
0.21434397 -0.12766038 0.088397264
0.21434283 -0.1033818 0.088378787
0.21434397 -0.079104751 0.088397145
0.26332989 -0.054956172 0.093988419
0.26365229 -0.030699819 0.098176241
0.21434283 -0.0062713027 0.088378668
0.21434283 0.018006369 0.088378787
0.21434283 0.042283896 0.088378787
0.21434283 0.066561423 0.088378787
0.21434283 0.090839192 0.088378787
0.21434283 0.11511672 0.088378787
0.21434283 0.13939434 0.088378906
0.21434283 0.16367202 0.088378787
0.21434283 0.18794969 0.088378787
0.21434283 0.21222717 0.088378787
0.21434283 0.23650499 0.088378787
0.21434283 0.26078245 0.088378787
0.21434283 0.28505999 0.088378787
0.21434283 0.30933776 0.088378787
0.21434283 0.33361527 0.088378787
0.21434283 0.35789296 0.088378787
0.21434283 0.38217059 0.088378787
0.21434283 0.40644825 0.088378787
0.21434283 0.43072578 0.088378787
0.21434283 0.45500353 0.088378787
0.21434283 0.47928107 0.088378787
0.21434283 0.50355864 0.088378787
0.21434283 0.52783638 0.088378668
0.26299986 0.55233783 0.089701176
0.2391547 0.60209388 0.096090198
-0.077662624 -0.98428464 0.11026704
0.093520433 -0.98510778 0.11287522
-0.077691302 -0.96012509 0.11119807
0.093520857 -0.96064734 0.11289394
-0.077662624 -0.93539232 0.11026692
0.093520857 -0.93618089 0.1128937
-0.077662624 -0.91094613 0.11026692
0.093520857 -0.91171467 0.11289382
-0.053210065 -0.8619765 0.10998774
0.069024399 -0.86223972 0.11093736
0.093526036 -0.83837605 0.11311781
-0.077669509 -0.83766806 0.11049044
-0.077667214 -0.81320083 0.11041617
0.093522154 -0.81386387 0.11294985
-0.077635691 -0.78849334 0.10939229
0.09349934 -0.78914613 0.11196196
-0.077575006 -0.76356852 0.10742128
0.093450308 -0.76416409 0.10983896
-0.077493824 -0.73851526 0.10478508
0.093384609 -0.73904234 0.10699427
-0.077385418 -0.71329814 0.10126448
0.093296342 -0.71373868 0.10317183
-0.10196061 -0.59240609 0.10641849
0.11782385 -0.59263128 0.10758889
-0.12616898 -0.4940117 0.10191238
0.14212644 -0.49441308 0.10439563
0.16640496 -0.42084301 0.10174561
0.21574353 -0.29987904 0.11112368
0.24012272 -0.22643912 0.11006224
0.23987925 -0.20175107 0.10654831
0.23971212 -0.17718509 0.10413587
0.23971212 -0.15278614 0.10413587
0.23970956 -0.1283855 0.10409892
0.23970956 -0.1039869 0.1040988
0.23970956 -0.07958822 0.1040988
0.28900865 -0.05532648 0.11002493
0.2893337 -0.03094127 0.11386371
0.23970956 -0.0063924119 0.10409892
0.23970956 0.018006321 0.10409892
0.23970956 0.042404909 0.10409892
0.23970956 0.0668035 0.10409892
0.23970956 0.09120214 0.1040988
0.23970956 0.11560087 0.10409892
0.23970956 0.13999951 0.1040988
0.23970956 0.16439804 0.10409868
0.23970956 0.18879668 0.10409892
0.23970956 0.21319534 0.10409892
0.23970956 0.23759396 0.10409892
0.23970956 0.26199272 0.10409892
0.23970956 0.28639129 0.10409892
0.23970956 0.31078988 0.10409892
0.23970956 0.33518851 0.10409892
0.23970956 0.35958728 0.10409892
0.23970956 0.38398582 0.10409892
0.23970956 0.40838432 0.10409892
0.23970956 0.43278316 0.10409892
0.23970956 0.45718175 0.10409892
0.23970956 0.48158038 0.10409892
0.23970956 0.50597882 0.10409892
0.23942602 0.52971596 0.10000622
0.26468912 0.53159744 0.1116451
0.28843617 0.55463499 0.10326469
0.28811643 0.57835865 0.099488378
-0.10247453 -0.61949486 0.11977041
0.1183144 -0.62024528 0.12352002
-0.12712367 -0.52189386 0.1225816
0.1430949 -0.52307528 0.12955701
0.19198917 -0.37483329 0.12408328
0.24082255 -0.25173908 0.12016392
0.26584914 -0.20314832 0.12671435
0.26555991 -0.17834421 0.12295711
0.26533335 -0.15364176 0.12001395
0.26533046 -0.12911889 0.11997652
0.26533046 -0.10459799 0.1199764
0.26533046 -0.080077142 0.1199764
0.31495291 -0.055701453 0.12626302
0.31526935 -0.03118493 0.12968874
0.265329 -0.0065144375 0.1199578
0.265329 0.018006369 0.11995769
0.265329 0.04252708 0.1199578
0.265329 0.067047596 0.11995769
0.265329 0.091568395 0.11995757
0.265329 0.11608911 0.11995757
0.265329 0.14060982 0.1199578
0.265329 0.16513063 0.11995769
0.265329 0.18965138 0.1199578
0.265329 0.21417199 0.1199578
0.265329 0.23869266 0.11995757
0.265329 0.2632134 0.11995769
0.265329 0.28773406 0.1199578
0.265329 0.31225494 0.1199578
0.265329 0.3367756 0.1199578
0.26533046 0.36129832 0.11997652
0.26533046 0.38581917 0.11997628
0.26533046 0.41034013 0.1199764
0.26533046 0.43486077 0.1199764
0.26533046 0.45938182 0.11997652
0.26533046 0.48390257 0.11997628
0.26533046 0.50842351 0.1199764
0.29021499 0.53363854 0.12427115
0.31412497 0.5570119 0.11730039
0.31411117 0.58148587 0.11715078
0.26583466 0.60771698 0.12652624
-0.07879211 -0.89694786 0.1469481
0.094310381 -0.89698565 0.14708126
-0.10297318 -0.64670676 0.13272548
0.11874691 -0.64771295 0.13756585
0.21736847 -0.32717535 0.13750923
0.24194954 -0.27776402 0.13643003
0.26686102 -0.22873285 0.13985884
0.29179853 -0.17957672 0.14297187
0.29145947 -0.15466319 0.13896787
0.29120934 -0.1298596 0.13601387
0.29120773 -0.10521466 0.13599491
0.29120934 -0.080570906 0.13601387
0.29120773 -0.0066378079 0.13599491
0.29120773 0.018006273 0.13599491
0.29120773 0.042650498 0.13599503
0.29120773 0.067294583 0.13599503
0.29120773 0.091938853 0.13599491
0.29120773 0.11658289 0.13599503
0.29120773 0.14122716 0.13599503
0.29120773 0.16587129 0.13599491
0.29120773 0.1905155 0.13599503
0.29120773 0.2151597 0.13599491
0.29120773 0.23980382 0.13599503
0.29120773 0.26444799 0.13599491
0.29120773 0.28909212 0.13599503
0.29120773 0.31373629 0.13599491
0.29120773 0.3383806 0.13599491
0.29120773 0.36302459 0.13599503
0.29120773 0.38766897 0.13599491
0.29120773 0.41231301 0.13599503
0.29120773 0.43695727 0.13599503
0.29120773 0.46160132 0.13599503
0.29120773 0.48624557 0.13599503
0.29120773 0.51088971 0.13599491
0.31599003 0.5357756 0.13749015
0.34105173 0.56111842 0.14154744
0.34104413 0.58579189 0.14147151
-0.15356563 -0.45343116 0.15786088
0.29302359 -0.20527701 0.15743923
0.31796396 -0.15573494 0.15885854
0.3175745 -0.13072006 0.15464246
0.31734836 -0.10583819 0.15219462
0.31734836 -0.081069157 0.1521945
0.34221289 -0.056322452 0.15315044
0.34221289 -0.031546239 0.1531502
0.31734836 -0.0067626704 0.15219462
0.31734836 0.018006224 0.15219462
0.31734836 0.042775214 0.1521945
0.31734836 0.067544013 0.15219438
0.31734836 0.092312902 0.15219462
0.31734836 0.11708181 0.15219462
0.31734836 0.14185056 0.15219462
0.31734836 0.16661955 0.15219462
0.31734836 0.1913885 0.15219462
0.31734836 0.2161572 0.15219462
0.31734836 0.24092613 0.15219462
0.31734836 0.26569504 0.15219474
0.31734836 0.29046386 0.15219438
0.31734836 0.31523278 0.15219462
0.31734836 0.3400017 0.15219462
0.31734836 0.36477047 0.15219462
0.31734836 0.38953936 0.15219462
0.31734836 0.4143084 0.15219462
0.31734836 0.43907711 0.15219462
0.31734836 0.46384606 0.15219462
0.31734836 0.48861498 0.15219474
0.31734836 0.51338375 0.15219438
0.3422837 0.53842157 0.15385807
-0.079429626 -0.87795687 0.16765177
0.094786778 -0.87797302 0.16770971
0.26882389 -0.25556594 0.16535747
0.31926718 -0.18142392 0.17296636
0.34434131 -0.13163348 0.17441881
0.34389791 -0.10652299 0.16998816
0.34375489 -0.081573188 0.16855896
0.34375489 -0.0068885442 0.16855896
0.34375489 0.018006224 0.16855896
0.34375489 0.042901091 0.16855896
0.34375489 0.067796007 0.16855896
0.34375489 0.092690721 0.16855896
0.34375489 0.11758573 0.16855896
0.34375489 0.14248049 0.16855896
0.34375489 0.16737537 0.16855907
0.34375489 0.19227023 0.16855896
0.34375489 0.21716499 0.16855896
0.34375489 0.24205996 0.16855896
0.34375489 0.26695463 0.16855896
0.34375489 0.2918497 0.16855896
0.34375489 0.31674445 0.16855896
0.34375489 0.34163922 0.16855896
0.34375489 0.36653417 0.16855896
0.34375489 0.39142895 0.16855896
0.34375489 0.41632381 0.16855896
0.34375489 0.44121867 0.16855896
0.34375489 0.46611366 0.16855896
0.34375489 0.4910084 0.16855896
0.34375489 0.51590317 0.16855896
0.29547739 -0.23231697 0.18641734
0.34555376 -0.15722631 0.1865344
0.32188448 -0.20831563 0.20129967
0.34800214 -0.18376625 0.21099997
0 0 0 1 0 0 0 1 0 0 0 1 0 0 0 0 0 1381 1 0 0
