ply
format ascii 1.0
comment PCL generated
element vertex 1336
property float x
property float y
property float z
element camera 1
property float view_px
property float view_py
property float view_pz
property float x_axisx
property float x_axisy
property float x_axisz
property float y_axisx
property float y_axisy
property float y_axisz
property float z_axisx
property float z_axisy
property float z_axisz
property float focal
property float scalex
property float scaley
property float centerx
property float centery
property int viewportx
property int viewporty
property float k1
property float k2
end_header
0.43686578 0.037298717 -0.20789218
-0.60643297 0.052540466 -0.2132585
-0.5904274 0.052485321 -0.21565032
-0.57525498 0.052496333 -0.21516824
-0.56038392 0.052533939 -0.21354043
-0.54545951 0.052569062 -0.21202052
-0.53070706 0.052621946 -0.20973134
0.40632626 0.052685015 -0.20700169
0.42123374 0.052636962 -0.20908511
0.43645033 0.052622773 -0.20969093
-0.66950494 0.068033747 -0.20777059
-0.65351635 0.067973159 -0.20974147
-0.6377517 0.067931771 -0.21108329
-0.62239844 0.067930683 -0.2111237
-0.60723454 0.06794931 -0.2105186
-0.59158176 0.067916103 -0.21159744
-0.5761441 0.067904785 -0.21195996
-0.56081784 0.067905828 -0.2119298
-0.54534084 0.067888983 -0.21247363
-0.52946872 0.067823432 -0.21460581
-0.5150075 0.067929983 -0.21114373
-0.49988589 0.067958273 -0.21022582
-0.48405161 0.067893423 -0.21233273
-0.46878302 0.067902043 -0.21205068
-0.4538579 0.067960456 -0.21015537
-0.43892741 0.068022348 -0.2081449
-0.6514709 0.083075233 -0.21622217
-0.63621259 0.083080634 -0.21608162
-0.62097919 0.083089471 -0.21585083
-0.60647714 0.083195105 -0.21310782
-0.65125251 0.098344795 -0.21691394
-0.63601804 0.098354153 -0.21671355
0.43976879 0.022029718 -0.19532192
0.45497718 0.022021536 -0.19638658
0.40829694 0.037453189 -0.19785893
0.42253891 0.037370361 -0.20323861
0.45262527 0.037324179 -0.20624208
-0.51628739 0.052709345 -0.20594823
-0.50108814 0.052726842 -0.20518792
-0.48609549 0.052766278 -0.20348263
-0.4705371 0.052749824 -0.20419347
-0.45574331 0.052814115 -0.20140791
-0.44041869 0.052824255 -0.20097005
-0.42578399 0.052914746 -0.19705141
-0.41088265 0.052980468 -0.19420493
0.34758714 0.05302887 -0.1921109
0.36252931 0.052963406 -0.19494283
0.37688625 0.052835528 -0.20048106
0.39162815 0.052759923 -0.20375681
0.45431882 0.052866429 -0.1991452
-0.42394656 0.068081327 -0.20623207
-0.40894863 0.068142131 -0.20425439
-0.3938064 0.06818413 -0.20289326
-0.37883466 0.068259209 -0.20045054
-0.36364484 0.068301693 -0.19907379
-0.34847206 0.068351403 -0.19746041
-0.33324021 0.068394229 -0.19606936
-0.31796923 0.068433315 -0.1947993
0.31640053 0.068477497 -0.19336367
0.33115098 0.068351053 -0.19747066
0.34608024 0.068264872 -0.20026708
0.36147916 0.068260781 -0.20039964
0.37669867 0.0682294 -0.20141792
0.39202964 0.06821695 -0.20182514
0.40774056 0.06825956 -0.20044017
-0.40949836 0.083645903 -0.20139778
-0.39427277 0.083685376 -0.20036888
-0.37890688 0.08369796 -0.20004296
-0.3635498 0.083713584 -0.19963491
-0.34817329 0.083726205 -0.1993084
-0.33284047 0.083750926 -0.19866562
-0.31767428 0.083822139 -0.19681621
-0.30232534 0.083850518 -0.19607949
-0.28699866 0.083888732 -0.19508624
-0.27179709 0.083970867 -0.19295299
-0.25632468 0.08397352 -0.19288123
-0.24084564 0.083974436 -0.19286084
-0.22507076 0.08386153 -0.19579291
-0.20928715 0.083726205 -0.1993084
-0.19383119 0.083715238 -0.19959426
-0.17847934 0.083754152 -0.19858396
-0.16317011 0.083825357 -0.19673443
-0.14798744 0.083993368 -0.19236767
0.33193806 0.083968036 -0.19302499
0.34689173 0.083858393 -0.19587493
-0.55036938 0.099437296 -0.19326103
-0.53520936 0.099495314 -0.19200826
-0.51949871 0.099453487 -0.19291198
-0.50412303 0.099473812 -0.19247043
-0.22497964 0.099278338 -0.19670379
-0.20914966 0.09908922 -0.20079672
-0.19374228 0.099096313 -0.20064402
-0.17851944 0.09921553 -0.19806302
-0.16324244 0.099324994 -0.19569039
-0.14791599 0.099425063 -0.19352794
-0.13250609 0.099481992 -0.19229591
-0.19446136 0.11497541 -0.1921519
0.4279623 0.0065672072 -0.17894495
0.4585439 0.0065672072 -0.18144023
0.441917 0.0065672942 -0.1860199
0.39688262 0.022159426 -0.17847645
0.4112882 0.022117117 -0.18398142
0.42584351 0.02208269 -0.18843579
0.36542985 0.037730187 -0.17987096
0.38001871 0.037653711 -0.18483031
0.39415979 0.037549902 -0.19157648
-0.39593896 0.053046368 -0.1913501
-0.38074657 0.053085625 -0.18965209
0.31848666 0.053284321 -0.18104553
0.33317289 0.053168803 -0.18605101
-0.3029778 0.068538912 -0.19137084
-0.28781906 0.068617515 -0.1888175
-0.27253526 0.068674706 -0.1869601
-0.2570776 0.068693079 -0.18636096
-0.24162857 0.068716668 -0.18559587
-0.22586173 0.068646066 -0.18788922
-0.21004227 0.068546131 -0.19113421
-0.19453885 0.068543002 -0.19123709
-0.17914471 0.068582825 -0.18994045
-0.16379079 0.068649597 -0.18777561
-0.14847776 0.068753272 -0.1844058
-0.1332373 0.06892816 -0.17872632
0.25651276 0.068926938 -0.17876792
0.27155092 0.068810813 -0.18254054
0.28669071 0.068726465 -0.1852752
0.30141148 0.068570554 -0.19034195
0.42526409 0.068549223 -0.19103146
-0.55263019 0.084291518 -0.18462336
-0.53719324 0.084307797 -0.18419874
-0.52126014 0.084247686 -0.18576133
-0.50581783 0.084262751 -0.18536842
-0.490114 0.084235415 -0.18608189
-0.47477889 0.084269494 -0.18519247
-0.45932323 0.084284641 -0.18479931
-0.44333273 0.084201902 -0.18694973
-0.42870706 0.084375218 -0.18244708
-0.13258809 0.084054738 -0.1907742
-0.11717001 0.084120944 -0.18905449
-0.10173593 0.084197544 -0.18706334
-0.086292982 0.084301353 -0.18436456
-0.070803374 0.084396765 -0.18188679
-0.055273622 0.08448717 -0.17953825
0.19428451 0.084563769 -0.17754889
0.20980076 0.084536135 -0.17826807
0.22497439 0.084404774 -0.18167901
0.24029894 0.084333301 -0.1835357
0.25554657 0.084248431 -0.18574071
0.27083501 0.084183268 -0.18743503
0.28619775 0.084143095 -0.18847704
0.3012169 0.0840251 -0.19154561
0.31668755 0.084020264 -0.19166887
-0.56631821 0.099517904 -0.19151461
-0.48876202 0.099498533 -0.19193614
-0.47342265 0.099529393 -0.19126785
-0.45959556 0.099886566 -0.18353581
-0.28829074 0.099809043 -0.18521321
-0.27241701 0.099684 -0.18792021
-0.25670829 0.09960831 -0.18955946
-0.24095856 0.099504232 -0.19181299
-0.11704831 0.09950994 -0.19168949
-0.1016022 0.099563129 -0.19053745
-0.086159356 0.099647783 -0.18870413
-0.070681915 0.099719822 -0.18714607
-0.055184819 0.099804692 -0.18530619
-0.039650254 0.099834815 -0.18465436
-0.024105655 0.09994968 -0.18216693
-0.0085466197 0.099921517 -0.18277907
0.0070527047 0.10004226 -0.18016219
0.022665286 0.1001092 -0.17871594
0.038276449 0.10014036 -0.17803884
0.16303007 0.10013514 -0.1781534
0.17851634 0.10008504 -0.17923641
0.1941094 0.10008805 -0.17917407
0.2097034 0.10009088 -0.17911136
0.22499359 0.09997949 -0.18152332
0.24035184 0.099905193 -0.18313146
0.25617126 0.099992901 -0.18123257
-0.22620098 0.11538781 -0.18449903
-0.21006888 0.11504583 -0.1908462
-0.17903304 0.11501645 -0.19139135
-0.16372576 0.11516061 -0.18871415
-0.14828168 0.11522128 -0.18758988
-0.13270962 0.11517119 -0.1885184
-0.11729205 0.1152847 -0.18641269
-0.10185216 0.11541241 -0.18404341
-0.086328395 0.11545702 -0.18321443
-0.070801452 0.11552414 -0.18196976
-0.055250257 0.11557341 -0.18105602
-0.039685637 0.11562712 -0.18005812
-0.024105655 0.11563217 -0.17996454
-0.0085286368 0.11560636 -0.18044293
0.0070757754 0.1157022 -0.17866385
0.43084136 -0.024808353 -0.16604841
0.44564942 -0.02474981 -0.16985786
0.40011972 -0.0091448817 -0.16290164
0.41497636 -0.0091141984 -0.16687047
0.42946392 -0.0090730637 -0.17221844
0.44412374 -0.009040419 -0.1764642
0.38373563 0.0065672072 -0.16625917
0.39856258 0.0065672509 -0.17039359
0.41345569 0.0065672942 -0.17392528
0.33721536 0.022276858 -0.16321898
0.35233209 0.022252178 -0.16642785
0.36746201 0.022230068 -0.16931164
0.38218459 0.022193767 -0.17400897
0.30562875 0.037970535 -0.16425443
0.32045615 0.037891015 -0.16941667
0.33547911 0.037835475 -0.17302513
0.35060707 0.037793297 -0.1757648
0.25849602 0.053667523 -0.16445506
0.27359343 0.053572416 -0.16857564
0.28871706 0.053490635 -0.17211378
0.30367514 0.053393092 -0.17633903
-0.11788283 0.06908533 -0.17362177
0.19579244 0.069395274 -0.16355717
0.2111643 0.069305874 -0.16645956
0.22648345 0.06921456 -0.16942728
0.24138425 0.069035448 -0.17524254
-0.039722707 0.084652521 -0.17524266
-0.024105655 0.084830239 -0.17062426
-0.0084294248 0.08494845 -0.16755497
0.0073148664 0.085118547 -0.16313434
0.11713523 0.085034415 -0.16532063
0.13265097 0.084945664 -0.16762865
0.14810586 0.084845163 -0.17023575
0.16353865 0.084752411 -0.17264819
0.17883763 0.084622398 -0.17602599
0.05392535 0.10020448 -0.17665207
0.06952481 0.10019769 -0.17679822
0.085185006 0.10024491 -0.17577517
0.10079152 0.10024008 -0.17587972
0.11636461 0.10021409 -0.17644334
0.13198447 0.10022137 -0.17628706
0.14756697 0.10020683 -0.17659986
-0.38475782 0.11633102 -0.16699684
-0.36861232 0.11618299 -0.16974235
-0.35293934 0.11617846 -0.16982639
-0.33737278 0.11621076 -0.16922736
-0.32186016 0.11626625 -0.16819692
0.022697052 0.11577358 -0.17734051
0.038313046 0.11579992 -0.1768502
0.053955488 0.11585285 -0.17586923
0.069619827 0.11591361 -0.17474079
0.085390784 0.11606368 -0.17195642
0.1008887 0.11593724 -0.17430174
0.11658186 0.11599078 -0.17330778
0.13241148 0.11612932 -0.17073989
0.14813165 0.11617276 -0.16993141
0.16382648 0.1161943 -0.1695323
-0.38294303 0.13138026 -0.17724669
0.43420833 -0.056648504 -0.15096617
0.449595 -0.056592833 -0.15277302
0.40312147 -0.040902376 -0.14845943
0.41788378 -0.040788773 -0.15338159
0.43234324 -0.040651582 -0.15932083
0.44822997 -0.040666293 -0.15868378
0.38686508 -0.025045874 -0.1506238
0.40159321 -0.024966003 -0.15581262
0.41636583 -0.024895011 -0.16042387
0.3552618 -0.0092396811 -0.15057039
0.37034294 -0.0092106927 -0.15434194
0.3850925 -0.0091710407 -0.15947998
0.33859837 0.0065672072 -0.15540779
0.35376674 0.0065671639 -0.15866256
0.36890334 0.0065672509 -0.16182232
0.32335988 0.0065672942 -0.15227079
0.2763162 0.02237897 -0.14996016
0.29164875 0.022354987 -0.153072
0.30695212 0.022331918 -0.15606809
0.32200781 0.022299709 -0.16025436
0.22909768 0.038217634 -0.14820206
0.24449395 0.038167186 -0.15147972
0.25989291 0.038122527 -0.15437376
0.27522984 0.038076304 -0.1573875
0.29035857 0.038013715 -0.16145182
0.18158127 0.054033443 -0.14860952
0.19724396 0.05399932 -0.15008855
0.21265961 0.053920317 -0.15350974
0.22806855 0.053849939 -0.1565578
0.24325134 0.053747956 -0.1609751
0.11828853 0.069853604 -0.14867389
0.13391551 0.069775775 -0.15120161
0.14944541 0.069676802 -0.15441656
0.16495426 0.069587223 -0.1573236
0.18047433 0.06951493 -0.15967095
0.023060562 0.085177615 -0.16159999
0.038810365 0.085212216 -0.16069961
0.054508366 0.085181311 -0.16150475
0.070224822 0.085176006 -0.16164243
0.085920326 0.085157201 -0.16212916
0.10160965 0.085139267 -0.16259491
-0.35446271 0.10095491 -0.16040277
-0.33879024 0.10097258 -0.16002119
-0.32276773 0.1008817 -0.16199183
-0.30729529 0.10096383 -0.16021204
0.43750432 -0.088938281 -0.13620222
0.45348704 -0.088951379 -0.13591981
0.4213272 -0.072974309 -0.13740623
0.43567961 -0.072706059 -0.14437556
0.45141494 -0.072686166 -0.14489233
0.3900494 -0.057148915 -0.13471413
0.40494841 -0.056996275 -0.13966966
0.41948634 -0.056803022 -0.14594674
0.35808688 -0.041206751 -0.13527906
0.37317285 -0.041106164 -0.13963723
0.38837013 -0.041026119 -0.14310408
0.32621726 -0.025280213 -0.13539875
0.34140205 -0.025216015 -0.1395725
0.35663521 -0.025161171 -0.14313638
0.3718718 -0.025110899 -0.14639795
0.29413912 -0.0093449261 -0.13689661
0.30941778 -0.0093148053 -0.14081573
0.3246915 -0.0092872102 -0.14440775
0.34000146 -0.0092635322 -0.14748287
0.27746096 0.0065672509 -0.14213312
0.30828965 0.0065672509 -0.14779425
0.24656577 0.0065672942 -0.13564849
0.26206985 0.0065672942 -0.13866305
0.2929379 0.0065672942 -0.14469862
0.19895482 0.022500057 -0.13421392
0.2145391 0.022476858 -0.13723278
0.23001944 0.022450089 -0.14071846
0.24548991 0.02242576 -0.14386916
0.26092067 0.022402037 -0.14695668
0.13523413 0.038435262 -0.13407254
0.15099514 0.03840379 -0.13611531
0.16676408 0.038378853 -0.13773143
0.182529 0.038357221 -0.13913941
0.19811763 0.038313475 -0.14198208
0.21361613 0.038263552 -0.14522588
0.023701055 0.054373987 -0.13386583
0.039623566 0.054364108 -0.13428986
0.055523239 0.054344695 -0.13513792
0.071389332 0.054314792 -0.13643003
0.087292291 0.054309264 -0.13666868
0.10312416 0.054278404 -0.1380024
0.11890563 0.054237708 -0.13976705
0.13466929 0.05419971 -0.14140987
0.15039968 0.054159667 -0.14314711
0.16593175 0.054076664 -0.14674187
-0.055940658 0.070237152 -0.13621294
-0.039984729 0.070083588 -0.14120471
-0.024105655 0.070073277 -0.14153945
-0.0082368013 0.070042633 -0.14253247
0.0076252464 0.070029095 -0.14297473
0.02347227 0.070004508 -0.14377236
0.039346851 0.070019826 -0.14327657
0.055162705 0.069981873 -0.14450467
0.071002953 0.069973037 -0.14479554
0.086845092 0.069967769 -0.14496768
0.1025694 0.069904745 -0.14701045
0.4252238 -0.1057651 -0.11932826
0.43964899 -0.1053735 -0.12659514
0.40897685 -0.08967334 -0.12028754
0.42338839 -0.089324392 -0.12784326
0.37673771 -0.07360138 -0.12111402
0.39194646 -0.073442772 -0.1252358
0.40700883 -0.073268801 -0.12975633
0.34451622 -0.057540867 -0.12198365
0.35970342 -0.057400975 -0.12652934
0.37495884 -0.057283018 -0.13035703
0.29685071 -0.041576285 -0.11928415
0.31227726 -0.041487448 -0.12312734
0.32760805 -0.041393694 -0.12718654
0.34292746 -0.041306686 -0.13095701
0.26445884 -0.025495449 -0.12142241
0.28004476 -0.025448529 -0.12446761
0.29545885 -0.025389204 -0.12832451
0.31078589 -0.025327178 -0.13235259
0.21640415 -0.0094668418 -0.12108076
0.23208053 -0.0094443392 -0.12398446
0.24766885 -0.0094194859 -0.12721956
0.26318902 -0.0093935449 -0.13058603
0.27875611 -0.0093726963 -0.13327825
0.1681477 0.0065672509 -0.1227535
0.21547179 0.0065672072 -0.1291554
0.15235966 0.0065672942 -0.12000108
0.18395445 0.0065672942 -0.12489569
0.19980425 0.0065672942 -0.12633204
0.23105253 0.0065672942 -0.13233078
0.072138473 0.02260787 -0.12021041
0.088103183 0.022597119 -0.12162054
0.10405377 0.02258724 -0.12290764
0.11992911 0.022571092 -0.12499452
0.13576168 0.022553943 -0.12721932
0.15164651 0.022544716 -0.12842298
0.16751291 0.022535443 -0.1296252
0.18323871 0.022516858 -0.13204753
-0.024105655 0.03863696 -0.12097073
-0.0080864038 0.038605794 -0.12299562
0.0079123769 0.038585249 -0.12432492
0.023904668 0.038574107 -0.12504911
0.039888859 0.038564619 -0.12567449
0.05584193 0.038546294 -0.12685812
0.071771279 0.03852623 -0.12816072
0.087707169 0.038513739 -0.12896955
0.1035997 0.038493585 -0.13028049
0.11942534 0.03846303 -0.13226557
-0.056158714 0.05464685 -0.12204969
-0.04008624 0.054509003 -0.12801838
-0.024105655 0.054459255 -0.1301713
-0.0081591066 0.054406893 -0.13243961
0.0077711809 0.054382563 -0.13349593
-0.072073191 0.070523985 -0.12690198
0.42746058 -0.12245164 -0.10895085
0.44229558 -0.12209518 -0.11473989
0.39599231 -0.10653608 -0.10502136
0.4110069 -0.10623971 -0.11052072
0.45783901 -0.1058865 -0.1170752
0.36355519 -0.090347946 -0.10568106
0.37888771 -0.090151124 -0.10994208
0.39388531 -0.089892186 -0.11554861
0.33103257 -0.074145935 -0.10696578
0.34627414 -0.073950067 -0.11205494
0.36171991 -0.073813088 -0.11561489
0.28277454 -0.058039103 -0.10580397
0.29829931 -0.057913754 -0.1098752
0.31383392 -0.057802197 -0.11349809
0.32929984 -0.057688285 -0.11719692
0.23435558 -0.041894153 -0.10551345
0.25011787 -0.041825123 -0.10850513
0.26563677 -0.041723099 -0.112921
0.2813752 -0.041666556 -0.11537123
0.16978985 -0.025748638 -0.10497677
0.18580689 -0.02572692 -0.10638511
0.20166907 -0.02568618 -0.10902894
0.2174464 -0.025639651 -0.11205494
0.23316459 -0.025591509 -0.11518312
0.24880262 -0.025539497 -0.11855578
0.10506648 -0.0095792264 -0.10646307
0.12107924 -0.0095644258 -0.10839343
0.13713369 -0.0095566344 -0.10939646
0.15310968 -0.0095431861 -0.11114359
0.16896887 -0.0095222928 -0.11386406
0.18481785 -0.0095037948 -0.11626804
0.20066255 -0.0094876029 -0.11836815
0.0082054418 0.0065672509 -0.10528982
0.024332607 0.0065672509 -0.1065191
0.040427148 0.0065672509 -0.1081928
0.12047239 0.0065672072 -0.11715269
0.13646178 0.0065672072 -0.1181252
0.056491315 0.0065672942 -0.10998654
0.072541349 0.0065672942 -0.11148822
0.088526525 0.0065673376 -0.11376441
0.10454106 0.0065672942 -0.11499488
-0.040233791 0.022695402 -0.10885048
-0.024105655 0.022676032 -0.11135483
-0.0080108177 0.022662148 -0.11317635
0.0080604572 0.022650352 -0.11470652
0.024103118 0.022636859 -0.11645603
0.04013288 0.022626892 -0.11774945
0.056145757 0.022617577 -0.11896408
-0.056315504 0.038777199 -0.11186612
-0.040164441 0.038684882 -0.11786008
-0.072426587 0.054888155 -0.11159933
-0.088522956 0.070984617 -0.11194384
0.42996487 -0.13938402 -0.097332239
0.4453958 -0.13914005 -0.10085261
0.39840573 -0.12343625 -0.092963099
0.41325921 -0.12302227 -0.099684358
0.36574605 -0.10713951 -0.093822598
0.38100684 -0.10686426 -0.098930836
0.31740794 -0.091008104 -0.091389418
0.33295813 -0.090813756 -0.095595837
0.34824565 -0.090567924 -0.10092008
0.26865166 -0.074754246 -0.09116292
0.28442281 -0.074624412 -0.094534516
0.29989776 -0.07443364 -0.099493146
0.31557527 -0.0743092 -0.10272622
0.21985096 -0.058487725 -0.091230989
0.23562856 -0.058366287 -0.095178127
0.25143856 -0.058266703 -0.09841311
0.26713488 -0.058152881 -0.10210955
0.15475653 -0.042213328 -0.091695428
0.17083275 -0.042167366 -0.093687057
0.18678838 -0.042100638 -0.096577048
0.20279856 -0.042055026 -0.098548293
0.21856502 -0.041966885 -0.1023674
0.073485367 -0.025963088 -0.091049552
0.08963827 -0.025930924 -0.093132973
0.10575171 -0.025897017 -0.095336318
0.12182063 -0.025860762 -0.097692728
0.13788654 -0.02583112 -0.099616766
0.15393263 -0.025803393 -0.10142517
-0.0078499895 -0.0096884742 -0.092284203
0.0083658118 -0.0096685402 -0.094873309
0.024553606 -0.0096524786 -0.0969491
0.040736258 -0.0096432511 -0.098154426
0.056857139 -0.0096252318 -0.10048199
0.072989039 -0.0096150897 -0.10179555
0.089062177 -0.0095995944 -0.10382402
-0.056641929 0.0065672509 -0.090664148
-0.040318906 0.0065672509 -0.097793937
-0.024105655 0.0065672509 -0.1007179
-0.0079335645 0.0065672072 -0.10314083
-0.056468651 0.02274872 -0.10191882
-0.18676083 0.039098199 -0.091004133
-0.072712913 0.038972106 -0.099200726
-0.18575588 0.05506226 -0.1040591
-0.17020224 0.055266134 -0.095234632
-0.089037463 0.055266134 -0.095234632
-0.10541275 0.071612954 -0.09153688
-0.18605632 0.13612787 -0.10015631
-0.17008267 0.13632461 -0.096960425
-0.15416771 0.13662937 -0.092012405
0.43327194 -0.1567819 -0.081989527
0.44989029 -0.15687957 -0.080719829
0.40120926 -0.14065719 -0.078955889
0.41607389 -0.14015925 -0.086142063
0.35271582 -0.12450115 -0.075672388
0.36807591 -0.12415994 -0.081211805
0.38334095 -0.12381566 -0.086802244
0.3192938 -0.10789921 -0.079723716
0.33493558 -0.10767318 -0.083919406
0.35023621 -0.10736289 -0.089677334
0.25445372 -0.09174791 -0.075373173
0.27040029 -0.091601446 -0.078543067
0.28614739 -0.091407321 -0.082743645
0.30179554 -0.091203138 -0.087166309
0.20507328 -0.075282343 -0.077441692
0.22110565 -0.075169787 -0.080365062
0.23700683 -0.075030334 -0.08398807
0.25286129 -0.074893616 -0.087541819
0.13963954 -0.058930818 -0.076844454
0.15573826 -0.058830533 -0.080101609
0.17187004 -0.058758017 -0.082458019
0.18786913 -0.05865569 -0.08577776
0.20394678 -0.058590617 -0.087894082
0.0414441 -0.042595137 -0.075166106
0.057743073 -0.042541992 -0.077464461
0.074049242 -0.042510174 -0.078841329
0.090243667 -0.042439617 -0.081898093
0.10645129 -0.042391565 -0.083976507
0.12262875 -0.042344254 -0.086028337
0.13872683 -0.042282533 -0.088700771
-0.024105655 -0.026162131 -0.078118682
-0.0077634342 -0.026117215 -0.081040263
0.0085455272 -0.026083918 -0.083200574
0.024826074 -0.026053926 -0.085151076
0.041076697 -0.026023937 -0.087098241
0.057301417 -0.025995558 -0.088939428
-0.056823425 -0.0097915437 -0.078875661
-0.040412545 -0.0097396169 -0.085629582
-0.024105655 -0.0097085834 -0.089666009
-0.073234789 0.0065672509 -0.076603293
-0.072953567 0.022849917 -0.088780403
-0.17110722 0.039234262 -0.082172275
-0.089489691 0.039259247 -0.080548048
-0.15480398 0.055579215 -0.081680775
-0.10601541 0.055713098 -0.075879216
-0.13815087 0.13690458 -0.08754158
-0.12214471 0.1372861 -0.081349134
-0.18740641 0.15353803 -0.082617998
-0.17077067 0.15323231 -0.087029815
-0.15490545 0.15371706 -0.080032945
-0.17158625 0.17043459 -0.075258374
0.43643758 -0.17436045 -0.067302823
0.40407813 -0.15811892 -0.064622045
0.41896099 -0.15753148 -0.072251558
0.35519969 -0.14185657 -0.061643481
0.37064353 -0.14146367 -0.067314267
0.38599032 -0.14106719 -0.073035717
0.30576456 -0.12538078 -0.0613873
0.32156613 -0.12511724 -0.065667272
0.33708948 -0.12477653 -0.071201205
0.25622302 -0.10886222 -0.061853409
0.27220699 -0.10866535 -0.065504789
0.28790486 -0.10838392 -0.070727825
0.30373526 -0.10817704 -0.074567795
0.19034849 -0.092411675 -0.061002493
0.20641606 -0.092227735 -0.064982295
0.22252031 -0.092083186 -0.068113685
0.23849501 -0.091908038 -0.071905494
0.12431252 -0.075887263 -0.061725259
0.14055717 -0.075764216 -0.064924121
0.15679261 -0.075659193 -0.067650318
0.17300379 -0.075561695 -0.070184588
0.18897599 -0.075387202 -0.074717522
0.041826077 -0.059364509 -0.062761426
0.058213696 -0.059288252 -0.065237761
0.07457523 -0.05921996 -0.067453504
0.09093532 -0.059170473 -0.069062829
0.10720178 -0.059086468 -0.07178998
0.12343155 -0.059004854 -0.074441314
-0.04060078 -0.042918053 -0.061177373
-0.024105655 -0.042819902 -0.065435052
-0.007670965 -0.042736854 -0.06902802
0.0087364931 -0.042696029 -0.070796967
0.025105597 -0.042644016 -0.0730474
-0.057014808 -0.026341936 -0.066444755
-0.040506124 -0.026233731 -0.073473573
-0.073481441 -0.009891348 -0.065922618
-0.18823017 0.022979625 -0.071916938
-0.1720708 0.023007786 -0.068264246
-0.089840494 0.023000952 -0.069155455
-0.15571657 0.039469954 -0.066862106
-0.10652837 0.039536286 -0.062551975
-0.13924398 0.055912316 -0.067256331
-0.1228969 0.055962894 -0.065063596
-0.10656603 0.1385038 -0.061573625
-0.1389139 0.15417795 -0.073381305
-0.12271433 0.15448035 -0.069016576
-0.1555732 0.17090169 -0.069190145
-0.13943477 0.17132321 -0.063715339
-0.17231023 0.18770623 -0.064808011
-0.15600783 0.18793285 -0.062132835
0.44076455 -0.19266281 -0.047227979
0.40742487 -0.17600334 -0.047900915
0.42196885 -0.17516682 -0.057780027
0.45496964 -0.17515093 -0.057967186
0.37357503 -0.15913308 -0.051447153
0.38892403 -0.15864459 -0.057791829
0.32394293 -0.14259642 -0.050964832
0.33964583 -0.14224017 -0.056106687
0.2580798 -0.12622593 -0.047664762
0.27420703 -0.12601614 -0.05107069
0.29012388 -0.12573992 -0.055556178
0.19185466 -0.10971902 -0.045951962
0.20791915 -0.10944512 -0.051035404
0.22410029 -0.10926227 -0.054430604
0.24028377 -0.10910318 -0.057382464
0.12523024 -0.092990048 -0.048478961
0.14163722 -0.092878446 -0.050894141
0.15790111 -0.092709213 -0.054559588
0.17419398 -0.092582643 -0.057300448
0.025729427 -0.076491229 -0.046034694
0.042252786 -0.076380849 -0.048903465
0.058722317 -0.076260671 -0.052023411
0.075194612 -0.076182894 -0.054043531
0.091588669 -0.076071464 -0.056937933
0.10796958 -0.075979762 -0.059322476
-0.040704526 -0.059828188 -0.047700286
-0.024105655 -0.059684638 -0.052364111
-0.007567076 -0.059587058 -0.055532694
0.0089401435 -0.059524421 -0.057569504
0.025404232 -0.059445988 -0.060116172
-0.057222188 -0.043107606 -0.052975178
-0.073830411 -0.026582589 -0.050811768
-0.090534963 -0.010040119 -0.046602011
-0.17327261 0.0065672509 -0.050917745
-0.18987931 0.0065673376 -0.050493956
-0.090172768 0.0065672942 -0.05836463
-0.15666589 0.023137232 -0.051447034
-0.10697798 0.023141714 -0.050870657
-0.13998948 0.039676964 -0.053421259
-0.12351985 0.039705254 -0.051576495
-0.20620778 0.13900509 -0.05343318
-0.10687167 0.15554608 -0.053632617
-0.18939228 0.17185383 -0.056820869
-0.12318365 0.17169714 -0.058855295
-0.13981764 0.18840039 -0.056610227
-0.1235318 0.18884857 -0.051317811
-0.17322615 0.20539449 -0.051588416
-0.15639408 0.20499983 -0.055860639
-0.14022657 0.20563179 -0.049021244
-0.15680656 0.22220629 -0.049162865
0.42565435 -0.19332609 -0.040048242
0.37700969 -0.17727737 -0.032856464
0.39259517 -0.17678113 -0.038716078
0.32673106 -0.16049781 -0.033717752
0.34251046 -0.16007645 -0.039191961
0.35810569 -0.1596116 -0.045230508
0.27638638 -0.14367869 -0.035342574
0.29239383 -0.14335361 -0.040036321
0.30834129 -0.14303382 -0.044650674
0.20972753 -0.12705165 -0.034255624
0.22593822 -0.12678941 -0.038513541
0.242027 -0.12649901 -0.043229461
0.12629603 -0.11041173 -0.033095837
0.14272784 -0.11021622 -0.036726594
0.15925279 -0.11011542 -0.038596988
0.17552887 -0.10988625 -0.042849898
0.026065843 -0.093775727 -0.031467438
0.042704195 -0.093647458 -0.034243703
0.059277594 -0.093492635 -0.037596703
0.075846508 -0.093384825 -0.039929509
0.092418782 -0.09331087 -0.041533232
0.10881048 -0.093119837 -0.045668125
-0.040822111 -0.077015065 -0.032425523
-0.024105655 -0.076809622 -0.037763476
-0.007457206 -0.076674998 -0.041260004
0.0091505256 -0.076573186 -0.043904662
-0.057424687 -0.060070757 -0.03982234
-0.074091621 -0.043418642 -0.039501309
-0.090980694 -0.026870208 -0.032126307
-0.17462264 -0.010156898 -0.031431556
-0.15785353 0.0065672509 -0.03216207
-0.10743757 0.0065672072 -0.038930178
-0.14095917 0.023260627 -0.03542614
-0.12412595 0.023237295 -0.038454175
-0.10721921 0.17279442 -0.044603467
-0.10740964 0.18983608 -0.039655805
-0.12394208 0.20624019 -0.042434931
-0.17384963 0.22286406 -0.042589188
-0.14061283 0.22293766 -0.041853547
-0.12430883 0.22367412 -0.034494519
-0.15729471 0.23964801 -0.041236401
-0.14109571 0.24054751 -0.032892346
-0.15786828 0.25737217 -0.031922698
0.42955703 -0.21186291 -0.021271229
0.44506729 -0.211263 -0.027265787
0.39617133 -0.19516571 -0.020133853
0.41089875 -0.19420391 -0.030544519
0.34577295 -0.17837206 -0.019928098
0.36143553 -0.17782201 -0.026423454
0.27891707 -0.1617787 -0.017078638
0.2950854 -0.16142805 -0.021633983
0.31091607 -0.16094366 -0.027927041
0.22793476 -0.14465708 -0.02122283
0.24408953 -0.14429246 -0.026483774
0.26021829 -0.14395721 -0.031323671
0.14408347 -0.12798397 -0.019116402
0.1605337 -0.1277159 -0.023470283
0.17707185 -0.12755106 -0.02614665
0.19345777 -0.12731786 -0.029932737
0.043178946 -0.11118071 -0.01882565
0.059861295 -0.11098649 -0.022431731
0.076532066 -0.11084346 -0.025086522
0.093207031 -0.11074544 -0.026904941
0.10980022 -0.11060046 -0.029596686
-0.024105655 -0.094224915 -0.02174294
-0.0073353909 -0.094054289 -0.025436044
0.0093856025 -0.093906432 -0.028636217
-0.057657875 -0.077313296 -0.024676681
-0.074429803 -0.06053156 -0.024857402
-0.091408923 -0.043910135 -0.018219352
-0.19140209 -0.010162383 -0.030712247
-0.10793009 -0.010197595 -0.026134729
-0.14196485 0.0065671201 -0.016762853
-0.12494026 0.0065671639 -0.020823717
-0.10773035 0.20726661 -0.031323791
-0.10794399 0.22454689 -0.025773287
-0.1746974 0.24082094 -0.030352712
-0.12464161 0.24115112 -0.027289748
-0.10818855 0.24199945 -0.019419312
-0.14148776 0.25810027 -0.025616765
-0.12501408 0.25883824 -0.019225597
-0.15850784 0.27537179 -0.021537423
-0.14186677 0.27573544 -0.018583179
0.41511548 -0.21304324 -0.0094764233
0.36516255 -0.19652919 -0.0053732395
0.38054696 -0.19575904 -0.01371038
0.2978825 -0.17984691 -0.00251019
0.31398842 -0.1793845 -0.0079715252
0.32993588 -0.178883 -0.013893127
0.2466277 -0.16264106 -0.0058761835
0.26286635 -0.16223985 -0.011089087
0.1622013 -0.14586574 -0.0037767887
0.17874287 -0.14556919 -0.0080573559
0.19519094 -0.14525351 -0.012613893
0.2116245 -0.14497355 -0.016653538
0.060591154 -0.12894759 -0.0034694672
0.077378578 -0.12874502 -0.0067591667
0.094109312 -0.12853554 -0.010160804
0.11082882 -0.12836726 -0.012894154
0.12746294 -0.12816034 -0.016252756
-0.024105655 -0.1120043 -0.0035432577
-0.0072089564 -0.11170954 -0.0090118647
0.0096403565 -0.11154371 -0.012089491
0.026435176 -0.11136138 -0.015474916
-0.057922602 -0.094883628 -0.0074818134
-0.040951662 -0.094508789 -0.015596628
-0.074799985 -0.077923313 -0.0088282824
-0.19303496 -0.027218631 -0.0095008612
-0.1757703 -0.027136022 -0.014866829
-0.10861127 -0.02723491 -0.008436799
-0.15901087 -0.010295875 -0.013369322
-0.12562443 -0.010352589 -0.0060111284
-0.1757071 0.25923634 -0.015778661
-0.10839095 0.25942317 -0.014160872
-0.12531722 0.27646476 -0.012662649
-0.10866924 0.27717087 -0.0069305897
-0.1590634 0.29335243 -0.01251626
-0.14226797 0.29353294 -0.011137843
-0.12573786 0.29452503 -0.0035556555
-0.1427163 0.31156608 -0.00281775
0.43411458 -0.23102842 0.00065612793
0.4506765 -0.23082389 -0.00124228
0.3847802 -0.21491262 0.0092028379
0.39998958 -0.21396224 -0.00029349327
0.33334416 -0.19768976 0.0071903467
0.3494032 -0.19716494 0.0015077591
0.26557556 -0.18087351 0.0096132755
0.28182656 -0.18039134 0.0039182901
0.18054081 -0.16397144 0.011405945
0.19712812 -0.16361247 0.0067434311
0.21366301 -0.16326754 0.002261281
0.23027183 -0.16301773 -0.00098371506
0.095209725 -0.14683819 0.010260224
0.11196719 -0.14651465 0.0055903196
0.12887588 -0.14641424 0.0041413307
0.14550112 -0.1460788 -0.00070023537
-0.0070641451 -0.12976478 0.0097999573
0.0099064503 -0.12948121 0.0051939487
0.026857337 -0.12933406 0.002805233
0.043760218 -0.12916449 5.1736832e-05
-0.058185421 -0.1127119 0.00958848
-0.041092463 -0.11234036 0.0026940107
-0.075227022 -0.095675454 0.0096629858
-0.091935471 -0.061262537 -0.001119256
-0.19455141 -0.044566501 0.010198116
-0.17693384 -0.044375468 0.0019278526
-0.10909683 -0.044427305 0.0041781664
-0.16002144 -0.027411668 0.0030400753
-0.12632656 -0.027506379 0.0091904402
-0.14288157 -0.010400772 0.00024902821
-0.092216574 0.24495549 0.0080096722
-0.092270538 0.26218557 0.0097625256
-0.17678507 0.27799743 -0.0002194643
-0.092302352 0.27935404 0.010795593
-0.10900212 0.29521522 0.0017178059
-0.15981461 0.31191242 -0.00031816959
-0.12607963 0.31248921 0.003844142
-0.10929118 0.31323528 0.0092277527
-0.14323352 0.32991427 0.0067807436
0.43938828 -0.25092939 0.026029348
0.40491456 -0.23368397 0.025297284
0.41973186 -0.2324222 0.013588428
0.35351121 -0.21656996 0.025764227
0.36910197 -0.21568055 0.016876578
0.30131066 -0.19895884 0.020928144
0.31737316 -0.19832002 0.014013052
0.21624087 -0.18227647 0.026180863
0.23282085 -0.18184549 0.02109158
0.2492236 -0.1813466 0.015200019
0.13024902 -0.16493793 0.023960829
0.14713612 -0.16467446 0.020538688
0.16394807 -0.16439071 0.016851544
0.010221401 -0.14790449 0.02565062
0.027293867 -0.14763127 0.021707535
0.044355869 -0.14747113 0.019396067
0.061381981 -0.14731051 0.017076969
0.078342609 -0.14710513 0.014112949
-0.041236117 -0.13047647 0.02135551
-0.024105655 -0.13012666 0.015675306
-0.092390649 -0.078788996 0.013663292
-0.17803288 -0.061844867 0.017791033
-0.10973717 -0.061938051 0.020815134
-0.16089128 -0.044727329 0.017164588
-0.12702799 -0.044893902 0.02437675
-0.14374517 -0.027615501 0.016275883
-0.17838527 0.29798436 0.022877693
-0.092463769 0.29708937 0.016037941
-0.092617452 0.31487024 0.021028757
-0.16061878 0.33078608 0.012739778
-0.12653373 0.33092293 0.013675809
-0.10961836 0.33151558 0.017728448
-0.14378026 0.34849465 0.016926765
-0.12694828 0.34937599 0.022651076
0.42502636 -0.25254732 0.040041327
0.38946462 -0.2346821 0.034557939
0.32163063 -0.21816126 0.041665912
0.3377046 -0.21741053 0.034163594
0.25236988 -0.20078936 0.040744662
0.26868692 -0.20010984 0.033388376
0.28515995 -0.19960982 0.027975321
0.16600053 -0.18353881 0.041090012
0.18285474 -0.18314643 0.036454916
0.19953287 -0.18266542 0.03077352
0.062255561 -0.16615511 0.039772987
0.079318658 -0.16580661 0.03524518
0.096391656 -0.16557179 0.032194376
0.11337143 -0.16527916 0.028392553
-0.024105655 -0.14855161 0.034990549
-0.0069094226 -0.14819884 0.029899001
-0.058504559 -0.13102838 0.030317187
-0.075662486 -0.11373201 0.028518915
-0.092996061 -0.096768342 0.033324718
-0.1792236 -0.079609372 0.034977794
-0.11042458 -0.0797517 0.038674474
-0.19655401 -0.06241205 0.036212802
-0.16182703 -0.062293481 0.032359242
-0.12777217 -0.062543802 0.040488839
-0.1445189 -0.045038365 0.030634046
-0.17949034 0.3173365 0.038827658
-0.092850424 0.33310497 0.028594971
-0.16152044 0.35010427 0.027380943
-0.10999183 0.3501119 0.027431607
-0.09309873 0.35153261 0.036658883
-0.14441106 0.36748344 0.028632998
-0.12739317 0.36807346 0.032283187
-0.1103789 0.3689149 0.037487745
-0.14497417 0.3864398 0.039082885
0.35841769 -0.23685673 0.054735661
0.37384042 -0.23566082 0.043639183
0.30553523 -0.2189765 0.049811959
0.21925829 -0.20203041 0.054178834
0.23587687 -0.20141879 0.047557473
0.11490846 -0.18457721 0.053350687
0.1320186 -0.18425128 0.049502492
0.14911506 -0.18397546 0.046245575
-0.0067245085 -0.16724426 0.053920031
0.010600137 -0.1669617 0.050250411
0.027848678 -0.16661389 0.045731664
0.045059748 -0.16634619 0.042255044
-0.058862373 -0.1498379 0.053557634
-0.041395426 -0.14904077 0.042050242
-0.076136358 -0.13218124 0.049038529
-0.093609922 -0.1150652 0.053260207
-0.18053776 -0.097720765 0.053945899
-0.16268457 -0.080044582 0.046284199
-0.14547245 -0.062785238 0.048329949
-0.16243802 0.3696897 0.042280793
-0.093363464 0.37017062 0.045256257
-0.12790169 0.38715258 0.043293118
-0.11084234 0.38820875 0.049528122
-0.093673304 0.38918933 0.055318594
-0.14575067 0.40625799 0.053492904
-0.12845115 0.40655822 0.055189013
0.44708937 -0.27265945 0.063081264
0.39594069 -0.25596166 0.069610476
0.411109 -0.25456148 0.057484627
0.34257141 -0.23788415 0.064269066
0.27268204 -0.22038808 0.063916445
0.28915897 -0.21967943 0.056835651
0.16844225 -0.203485 0.069925547
0.18545428 -0.20299263 0.064595699
0.20226446 -0.20238972 0.05806911
0.045930773 -0.18603297 0.070542574
0.063251734 -0.18561904 0.065654397
0.08050321 -0.18521564 0.060891151
0.097793639 -0.18498874 0.058211923
-0.041586094 -0.16823721 0.066818833
-0.024105655 -0.1677428 0.060396552
-0.16381468 -0.098214611 0.064634919
-0.11123863 -0.097992241 0.05982399
-0.19861631 -0.080688022 0.063002825
-0.14654498 -0.080889419 0.06823349
-0.1288428 -0.08071366 0.063668489
-0.16351601 0.38994575 0.059785128
-0.11124514 0.40740892 0.059993148
-0.094076224 0.408898 0.06840384
-0.14650191 0.42621151 0.067434311
-0.12903185 0.42627195 0.06776166
0.43227744 -0.27428386 0.076269746
0.38003427 -0.2570022 0.078621745
0.31010538 -0.23969348 0.081058145
0.32647324 -0.23883793 0.07311964
0.22254001 -0.22246082 0.084629297
0.23943789 -0.22183713 0.078396916
0.25616139 -0.2211497 0.071527958
0.1168552 -0.20487399 0.084961772
0.13415253 -0.20444365 0.080302954
0.15135115 -0.20398097 0.07529366
-0.0065176412 -0.18690091 0.080793023
0.010995859 -0.18649107 0.075953245
0.028478144 -0.18623993 0.072988033
-0.059262112 -0.16921493 0.079521537
-0.076735079 -0.15132099 0.074964046
-0.094418563 -0.13405864 0.079521656
-0.18216494 -0.11636779 0.077432275
-0.20014918 -0.099058792 0.082915306
-0.12974036 -0.099067412 0.083101273
-0.16452554 0.41027418 0.076177597
-0.11178636 0.42743468 0.074054599
-0.094545968 0.42920905 0.083659291
-0.14720036 0.44619107 0.080395699
-0.12966497 0.44639766 0.081469178
0.4188551 -0.27692759 0.097734571
0.36427915 -0.25824061 0.089346051
0.2771869 -0.2415559 0.098339796
0.29404345 -0.24088199 0.092086434
0.18842115 -0.22367014 0.096712828
0.20563924 -0.22317769 0.091791987
0.064466834 -0.20600671 0.097223639
0.081975594 -0.20559525 0.092769027
0.099470615 -0.20527782 0.089332581
-0.041797724 -0.18804555 0.094310045
-0.024105655 -0.18736203 0.086239338
-0.1655737 -0.11721715 0.093197584
-0.11223947 -0.11682016 0.085826755
-0.14779571 -0.099452741 0.091444135
-0.094746985 0.23615164 0.09018743
-0.077173196 0.39572918 0.093934774
-0.16545171 0.43060532 0.091216683
-0.1122774 0.44742605 0.086812139
-0.094936743 0.44926143 0.096349955
-0.14809193 0.46708778 0.096941233
-0.13026303 0.46658254 0.094417334
0.40385488 -0.27873978 0.11244726
0.33286399 -0.26116002 0.11462879
0.3484734 -0.25956059 0.1007781
0.26084277 -0.24276266 0.10953581
0.1540813 -0.2250758 0.1107595
0.17131549 -0.22438496 0.10385668
0.011524616 -0.20721437 0.11029708
0.029270763 -0.20693842 0.10730982
0.046889201 -0.20641723 0.10166836
-0.05971919 -0.18930727 0.1092099
-0.077399209 -0.17107792 0.1037215
-0.09530931 -0.15364094 0.10844934
-0.18393013 -0.135499 0.10291076
-0.11333283 -0.13619624 0.11423314
-0.20222144 -0.11811388 0.10983491
-0.1311789 -0.11835148 0.11424661
-0.077335902 0.37917894 0.10098028
-0.077375181 0.41496691 0.10268092
-0.077637233 0.43481979 0.11402845
-0.16626593 0.45081803 0.1044383
-0.11285337 0.46805546 0.10177624
-0.095284238 0.46922803 0.10763514
-0.14878671 0.48747984 0.10983479
-0.13101846 0.48767489 0.11077309
0.44212008 -0.29827261 0.1254468
0.38850293 -0.2804648 0.1264528
0.31657964 -0.26239485 0.12532282
0.22676392 -0.24430236 0.12382245
0.24406828 -0.24372834 0.11849737
0.10150282 -0.22670558 0.12704563
0.11911637 -0.22616851 0.12167859
0.13667643 -0.22567354 0.11673236
-0.04205833 -0.20886478 0.12816358
-0.024105655 -0.2078784 0.11748457
-0.006251812 -0.20767882 0.11532509
-0.18550964 -0.15483673 0.12570858
-0.1671849 -0.13651201 0.11936045
-0.14917828 -0.11850543 0.11710167
-0.077826917 0.45424438 0.12224162
-0.16760895 0.47295287 0.12624609
-0.11339641 0.4887374 0.11588502
-0.095815308 0.49060738 0.12488222
-0.14973569 0.50908744 0.12744582
-0.13178027 0.50904864 0.12726653
0.3732338 -0.28240693 0.14222074
0.30014631 -0.26364273 0.13612986
0.19268565 -0.24635592 0.14287758
0.20991783 -0.24545807 0.13454616
0.048108205 -0.22812773 0.14125693
0.066019483 -0.22775802 0.13756263
0.083827652 -0.22728826 0.13286757
-0.078159526 -0.19163029 0.13664436
-0.096274398 -0.17385456 0.13979173
-0.20393582 -0.13729683 0.13210523
-0.15050399 -0.13788803 0.14170361
-0.078088 0.36644953 0.13354707
-0.078171097 0.47513443 0.13714504
-0.16837019 0.49346012 0.13860703
-0.16865386 0.51248592 0.14321327
-0.11399728 0.50996035 0.13149595
-0.096304469 0.51195896 0.14076817
-0.15045358 0.53000873 0.14076829
0.42892209 -0.30149156 0.1500442
0.35738829 -0.28409481 0.15592504
0.26681089 -0.26616704 0.15799093
0.283806 -0.26511949 0.14891946
0.15744829 -0.24760824 0.15449798
0.17512536 -0.24699953 0.14884913
-0.0059492812 -0.22946563 0.15462506
0.012121411 -0.22890867 0.14905977
0.030178202 -0.2286628 0.14660275
-0.060311742 -0.21066931 0.14769733
-0.18720344 -0.17465247 0.15015674
-0.20552273 -0.15670806 0.15271997
-0.16877022 -0.15618037 0.14510286
-0.11460358 -0.15632893 0.14724815
-0.13265911 -0.13817069 0.14629424
-0.078602508 0.49703902 0.15582597
-0.1689793 0.53173423 0.14849782
-0.13262802 0.53109199 0.14562118
-0.11465276 0.53174043 0.14852583
-0.096672058 0.5326736 0.15270603
-0.16940188 0.5514282 0.15535975
0.4148221 -0.30433989 0.1718092
0.34152409 -0.28593656 0.17087805
0.24963643 -0.26717478 0.16671896
0.1220555 -0.24921477 0.16940415
0.13986133 -0.24849251 0.1627022
-0.042392105 -0.23115674 0.17152262
-0.024105655 -0.23007917 0.16075575
-0.18874228 -0.19465528 0.17236805
-0.17004873 -0.17586154 0.16586304
-0.15180738 -0.15762064 0.16589153
-0.13389453 -0.15811609 0.17304194
-0.096867509 0.22485274 0.15905356
-0.18821461 0.51712835 0.16475177
-0.18803912 0.53479731 0.16221893
-0.20706394 0.55544209 0.17274082
-0.18796632 0.55276936 0.16116762
-0.15145954 0.55236953 0.15943635
-0.13336577 0.55286783 0.16159379
-0.11521757 0.55323881 0.16320014
0.3992759 -0.30636695 0.18729854
0.32559338 -0.28791615 0.18695021
0.23301487 -0.26891899 0.18182385
0.086300828 -0.25104785 0.18641329
0.10419118 -0.25002649 0.17693543
-0.079152897 -0.21362166 0.17965841
-0.17131518 -0.19584593 0.18642783
-0.097545967 -0.19539356 0.18108714
-0.20801491 -0.17734201 0.18509412
-0.11600064 -0.17722279 0.18354475
-0.097477108 0.20833874 0.17885089
-0.079194568 0.52073026 0.18146265
-0.2264463 0.54001075 0.18557215
-0.20719428 0.53752422 0.17443407
-0.31848902 0.55853599 0.18613768
-0.30004317 0.55844218 0.18573165
-0.2817896 0.55874705 0.18705165
-0.26345038 0.55890131 0.18771958
-0.24487707 0.55849582 0.18596375
-0.22624889 0.55786693 0.18324077
-0.18949056 0.57622635 0.18316829
-0.17133126 0.57706642 0.1866889
0.43768117 -0.32591918 0.19555748
0.45535526 -0.32536724 0.19157386
0.38296601 -0.30798817 0.19968665
0.30878231 -0.28933316 0.1984551
0.21601471 -0.27049467 0.19546986
0.031340852 -0.25218311 0.19694698
0.049789235 -0.25206488 0.19585001
0.068159536 -0.25177535 0.19316292
-0.060962386 -0.23300157 0.18995786
-0.1903955 -0.2151525 0.19623017
-0.15300003 -0.17756756 0.1880244
-0.13518552 -0.17856587 0.20099258
-0.079366907 0.35655507 0.18892539
-0.22742561 0.52410901 0.19713736
-0.2082483 0.52216673 0.18812621
-0.28294909 0.54274291 0.19781053
-0.26444417 0.54270691 0.19764972
-0.24522723 0.54094434 0.18975425
-0.43051767 0.56076539 0.19579148
-0.41162887 0.56017178 0.19322097
-0.3927626 0.55955267 0.19053984
-0.37433186 0.55955595 0.1905545
-0.35563493 0.55911595 0.1886493
-0.3373251 0.55930728 0.1894778
-0.45013556 0.56225842 0.20225608
-0.50465959 0.57953542 0.1970346
-0.48552987 0.57873333 0.19367349
-0.4670271 0.57867408 0.19342566
-0.44815391 0.57811052 0.19106424
-0.4295297 0.57784665 0.18995786
-0.41092271 0.57758284 0.18885279
-0.39246702 0.57752728 0.18861997
-0.37452146 0.57829827 0.19185054
-0.35620579 0.57851756 0.19276905
-0.33765277 0.5783295 0.19198191
-0.31930214 0.57851046 0.19273984
-0.30097875 0.57877153 0.19383407
-0.28274253 0.57926309 0.19589388
-0.26459518 0.5800423 0.19915867
-0.24591465 0.57957375 0.19719601
-0.22752976 0.57985324 0.19836712
-0.20846325 0.57807577 0.19091833
-0.15319051 0.57822883 0.1915592
-0.13489805 0.57899463 0.19476867
-0.59727645 0.59822732 0.19788384
0.42188567 -0.32792628 0.210042
0.3485266 -0.31017011 0.21636057
0.36614871 -0.30935296 0.21011603
0.2917468 -0.29070562 0.20959806
0.18080179 -0.27285206 0.21588469
0.19849986 -0.27168971 0.20581841
-0.024105655 -0.2540783 0.21453261
-0.0055206306 -0.25362301 0.21030819
0.012954907 -0.25285664 0.20319712
-0.17266566 -0.21627268 0.2083565
-0.21000032 -0.19791697 0.21088552
-0.1541777 -0.19783175 0.20987916
-0.07984262 0.34098893 0.20952439
-0.30223835 0.54429054 0.20474267
-0.098316573 0.56314909 0.20611322
-0.59916639 0.58162796 0.20580339
-0.58012968 0.58112532 0.20369732
-0.56270158 0.58230752 0.20865214
-0.54551208 0.5838387 0.21506751
-0.52467102 0.58129042 0.20438921
-0.11697441 0.58235359 0.20884418
-0.54674464 -0.3294149 0.22078514
-0.52843904 -0.32965505 0.22251797
-0.51041305 -0.330107 0.22578073
-0.49254107 -0.33070627 0.23010468
-0.6769703 -0.32919171 0.21917439
-0.65790766 -0.3289749 0.21761036
-0.63926262 -0.32897288 0.21759546
-0.62050784 -0.32890898 0.217134
-0.60201943 -0.32899565 0.21775925
-0.58343899 -0.32903275 0.21802723
-0.56509727 -0.32922065 0.21938312
-0.67801207 -0.31104445 0.22304118
-0.66020697 -0.31148341 0.22639549
-0.6410147 -0.31123444 0.22449255
-0.62247914 -0.31131852 0.2251364
-0.60395515 -0.31141472 0.22587073
-0.58491135 -0.31122255 0.22440267
-0.56660908 -0.31145194 0.22615552
-0.54743397 -0.31116772 0.22398365
-0.52890855 -0.31127158 0.22477698
-0.5101372 -0.31122255 0.22440267
-0.49145237 -0.31122842 0.22444761
-0.47284979 -0.31129324 0.22494173
-0.45414683 -0.31128919 0.22491193
-0.43548995 -0.31132066 0.22515154
-0.41712028 -0.31158751 0.22719038
-0.39847693 -0.31164828 0.22765565
-0.37993628 -0.31180757 0.22887206
0.3311457 -0.31128919 0.22491193
-0.2300963 -0.29305553 0.22867668
-0.2111989 -0.29278192 0.22645557
-0.19261537 -0.29300556 0.22827113
-0.17408654 -0.29339451 0.2314291
0.25653768 -0.2927857 0.22648549
0.27444774 -0.29198614 0.21999454
-0.21149026 -0.27450961 0.23023999
-0.19268927 -0.27440542 0.22933793
-0.17400128 -0.27448702 0.23004448
0.14456654 -0.27455309 0.23061621
0.1626983 -0.27363861 0.22269738
-0.1928352 -0.25590092 0.23144412
-0.042786051 -0.2549583 0.22269738
-0.19209985 -0.23609094 0.22083008
-0.17376179 -0.23662391 0.22615552
-0.08012303 -0.23617469 0.22166634
-0.21157134 -0.21839151 0.23129344
-0.15514691 -0.21807486 0.22786582
-0.09881527 -0.21756165 0.22230875
-0.13641703 -0.19933687 0.22765565
-0.11733303 -0.19853298 0.21816123
-0.098674722 0.19298987 0.21774447
-0.36161277 -0.31218949 0.23179054
-0.3431721 -0.31249917 0.23415744
-0.32521048 -0.31335667 0.2407093
-0.47554713 -0.29439378 0.23954165
-0.45605111 -0.29391655 0.23566735
-0.43703052 -0.29374167 0.23424804
-0.41845161 -0.29388684 0.23542583
-0.3991228 -0.29344651 0.23185062
-0.38043806 -0.29350218 0.23230255
-0.36167538 -0.29349467 0.23224235
-0.34290177 -0.29347619 0.23209178
-0.32413423 -0.29346132 0.23197114
-0.30546769 -0.29355228 0.23270965
-0.28670698 -0.29354858 0.23267937
-0.26803425 -0.29365256 0.23352396
-0.24915074 -0.29349282 0.23222733
-0.15564308 -0.29408973 0.23707354
-0.13703397 -0.29457489 0.24101257
-0.11832838 -0.29494551 0.2440213
0.20196567 -0.29486114 0.24333692
0.22041605 -0.29438254 0.23945069
0.23852165 -0.29357827 0.23292065
-0.38217652 -0.27612019 0.24418855
-0.36344245 -0.27621338 0.24499536
-0.34453264 -0.27616245 0.24455392
-0.32587907 -0.27634525 0.24613774
-0.23054762 -0.27494448 0.2340064
-0.15559582 -0.27519736 0.23619628
-0.13696674 -0.27558538 0.23955655
-0.11824472 -0.27585 0.24184763
-0.099478677 -0.27608159 0.24385381
-0.080645971 -0.27613437 0.2443105
-0.061788656 -0.27605525 0.24362576
-0.0429447 -0.27601844 0.24330628
-0.024105655 -0.27604473 0.24353445
-0.0052666124 -0.27601844 0.24330628
0.013590934 -0.27615714 0.24450803
0.032444149 -0.27618188 0.24472141
0.051309086 -0.27623796 0.24520826
0.070103027 -0.27605879 0.24365616
0.088850006 -0.27582192 0.24160469
0.10751089 -0.27546817 0.2385416
0.12611578 -0.27509794 0.23533511
-0.21249373 -0.25717616 0.24327612
-0.15570262 -0.25662667 0.23817825
-0.13712658 -0.25714824 0.24301755
-0.11836764 -0.2573663 0.24504101
-0.099478215 -0.25723675 0.24383867
-0.080555096 -0.25686345 0.24037552
-0.17414498 -0.25600153 0.23237801
-0.061611548 -0.25597388 0.23212183
-0.2122121 -0.23797104 0.23961735
-0.15564634 -0.23772259 0.23713398
-0.099385597 -0.23809251 0.24083066
-0.23134671 -0.21951386 0.24344349
-0.13708237 -0.21938616 0.24206042
-0.11830087 -0.21950129 0.2433064
-0.099424392 0.17603429 0.2420907
-0.080656864 0.32702398 0.24478209
-0.23217799 -0.31499898 0.2532599
-0.21291955 -0.31441647 0.24880743
-0.099654265 -0.29562715 0.24955618
-0.080825754 -0.29593992 0.25209546
-0.061978564 -0.29641598 0.25596058
-0.043062709 -0.29674551 0.25863636
0.18428124 -0.29654104 0.25697505
-0.42043224 -0.27652314 0.2476778
-0.40136701 -0.27637878 0.24642718
-0.30730712 -0.27663419 0.24863958
-0.28828558 -0.27648264 0.24732697
-0.26931486 -0.27636641 0.24632049
-0.25044134 -0.27635238 0.24619865
-0.23241968 -0.2585597 0.25611424
-0.23236896 -0.23956211 0.25551522
-0.13727772 -0.23863889 0.24628997
-0.11844917 -0.23872586 0.24715912
-0.23184106 -0.20116812 0.24928117
-0.09998937 0.15833466 0.26043904
-0.25273088 -0.26016223 0.27098358
-0.08117304 0.31092665 0.26713312
-0.081762239 0.29485002 0.29264617
-0.082354769 0.27839643 0.3183037
-0.083062597 0.26204735 0.34895349
-0.083448738 0.24393959 0.36567378
-0.083841145 0.22559729 0.38266551
-0.084292479 0.20718996 0.40220892
-0.084540389 0.18787137 0.41294336
-0.084938459 0.16878809 0.43018067
-0.42205545 0.16132535 0.66799819
-0.39967331 0.16121261 0.66590559
-0.3775785 0.16121149 0.66588497
-0.35553956 0.16123638 0.66634476
-0.33312201 0.16107534 0.6633569
-0.33373955 0.18350083 0.66908741
-0.31135049 0.18333334 0.66636574
-0.2891041 0.18323289 0.66473532
-0.60197657 0.16214781 0.68325949
-0.57946581 0.16206796 0.68177891
-0.55665839 0.1618951 0.67856932
-0.51308054 0.18437631 0.68330204
-0.49074835 0.18433583 0.68264604
-0.4683938 0.18428236 0.68177915
-0.44603103 0.18421996 0.68076468
-0.42296857 0.18383965 0.67458797
-0.40140507 0.18411985 0.6791389
-0.37830105 0.18366492 0.67175102
-0.35652301 0.18385635 0.67486167
-0.64950866 0.16291796 0.69755101
-0.62580776 0.16256408 0.69098353
-0.69381034 0.18515506 0.69594908
-0.67057306 0.18490307 0.69185591
-0.64743334 0.18466072 0.68792295
-0.62513638 0.18465035 0.68775296
-0.60237497 0.18449627 0.68525028
-0.58008897 0.1844819 0.68501735
-0.5578301 0.18447529 0.68491149
0 0 0 1 0 0 0 1 0 0 0 1 0 0 0 0 0 1336 1 0 0
